<?xml version="1.0" encoding="utf-8"?>
<!-- Generator: Adobe Illustrator 16.0.0, SVG Export Plug-In . SVG Version: 6.00 Build 0)  -->
<!DOCTYPE svg PUBLIC "-//W3C//DTD SVG 1.1//EN" "http://www.w3.org/Graphics/SVG/1.1/DTD/svg11.dtd">
<svg version="1.1" id="Layer_1" xmlns="http://www.w3.org/2000/svg" xmlns:xlink="http://www.w3.org/1999/xlink" x="0px" y="0px"
	 width="830.58px" height="256px" viewBox="0 0 830.58 256" enable-background="new 0 0 830.58 256" xml:space="preserve">
<g>
	<path fill="#FFFFFF" d="M622.706,250.966c39.298,0,77.867,0,116.57,0c0-36.376,0.258-72.29-0.162-108.192
		c-0.121-10.469-4.188-20.255-10.347-28.785c-16.023-22.191-41.091-30.002-67.673-21.378c-22.392,7.264-38.235,30.335-38.372,56.041
		c-0.082,15.619-0.018,31.236-0.018,46.855C622.704,213.843,622.706,232.184,622.706,250.966z"/>
	<path fill="#FFFFFF" d="M791.979,227.831c0.294-1.085,0.573-1.636,0.573-2.185c0.016-23.438,0.104-46.873-0.05-70.308
		c-0.067-10.317-3.671-19.399-10.556-27.183c-10.045-11.352-28.1-16.276-40.606-10.496c7.31,13.713,7.603,28.656,7.426,43.758
		c-0.229,19.92-0.056,39.841-0.056,59.764c0,2.102,0,4.202,0,6.647C763.406,227.831,777.529,227.831,791.979,227.831z"/>
	<path fill="#FFFFFF" d="M621.125,117.217c-23.796-7.335-49.612,9.247-50.736,32.893c-1.204,25.32-0.554,50.731-0.675,76.104
		c-0.003,0.51,0.472,1.02,0.765,1.615c14.157,0,28.274,0,42.941,0c0-2.447,0-4.549,0-6.65c0-17.186-0.03-34.367,0.009-51.553
		C613.469,151.934,611.781,134.004,621.125,117.217z"/>
	<path fill="#FFFFFF" d="M681,78.729c20.423,0.033,37.161-16.623,37.31-37.125c0.147-20.306-16.703-37.209-37.163-37.28
		c-20.398-0.071-37.246,16.703-37.303,37.141C643.788,61.86,660.577,78.698,681,78.729z"/>
	<path fill="#FFFFFF" d="M830.262,208.139c0-18.373,0.855-36.326-0.244-54.158c-1.063-17.297-18.738-28.537-34.484-23.241
		c11.642,24.836,3.475,51.481,6.945,77.399C811.561,208.139,820.598,208.139,830.262,208.139z"/>
	<path fill="#FFFFFF" d="M610.106,54.851c-13.97-0.139-25.308,10.943-25.479,24.904c-0.165,13.699,11.366,25.384,25.116,25.446
		c13.559,0.064,24.779-11.049,25.026-24.787C635.025,66.324,624.089,54.99,610.106,54.851z"/>
	<path fill="#FFFFFF" d="M727.354,79.81c-0.081,13.939,11.246,25.428,25.046,25.392c13.749-0.034,25.304-11.715,25.147-25.423
		c-0.156-13.737-11.186-24.784-24.888-24.928C738.624,54.703,727.438,65.736,727.354,79.81z"/>
	<path fill="#FFFFFF" d="M576.247,102.838c0.142-9.304-7.01-16.916-16.181-17.217c-9.349-0.307-17.312,7.239-17.521,16.604
		c-0.208,9.25,7.62,17.248,16.905,17.273C568.574,119.523,576.106,112.05,576.247,102.838z"/>
	<path fill="#FFFFFF" d="M785.952,102.43c-0.041,9.479,7.605,17.184,16.946,17.073c9.008-0.106,16.669-7.825,16.744-16.869
		c0.077-9.287-7.808-17.124-17.119-17.017C793.332,85.723,785.993,93.167,785.952,102.43z"/>
	<path d="M531.67,151.232c2.355-4.166,4.197-8.756,7.176-12.416c6.934-8.516,18.165-11.486,28.186-7.852
		c-7.553,12.154-6.613,25.729-6.581,39.171c0.028,12.462,0.006,24.927,0.006,38.521c-9.935,0-19.359,0-28.785,0
		C531.67,189.514,531.67,170.375,531.67,151.232z"/>
	<path d="M622.706,250.966c0-18.782-0.002-37.123,0-55.46c0-15.619-0.064-31.236,0.018-46.855
		c0.137-25.706,15.98-48.776,38.372-56.041c26.582-8.625,51.648-0.813,67.673,21.378c6.158,8.53,10.226,18.316,10.347,28.785
		c0.42,35.902,0.162,71.816,0.162,108.192C700.573,250.966,662.003,250.966,622.706,250.966z"/>
	<path d="M791.979,227.831c-14.449,0-28.572,0-43.269,0c0-2.445,0-4.547,0-6.647c0-19.923-0.173-39.844,0.056-59.764
		c0.177-15.104-0.116-30.045-7.426-43.758c12.508-5.78,30.562-0.856,40.606,10.496c6.885,7.783,10.487,16.865,10.556,27.183
		c0.153,23.435,0.064,46.87,0.05,70.308C792.552,226.195,792.271,226.746,791.979,227.831z"/>
	<path d="M621.125,117.217c-9.344,16.788-7.655,34.717-7.696,52.409c-0.039,17.185-0.009,34.367-0.009,51.554
		c0,2.102,0,4.202,0,6.649c-14.667,0-28.784,0-42.94,0c-0.294-0.597-0.769-1.104-0.766-1.615
		c0.121-25.372-0.528-50.782,0.675-76.104C571.512,126.464,597.329,109.881,621.125,117.217z"/>
	<path d="M681,78.729c-20.423-0.032-37.212-16.87-37.156-37.265c0.057-20.438,16.903-37.212,37.303-37.141
		c20.459,0.071,37.312,16.974,37.163,37.28C718.161,62.106,701.422,78.762,681,78.729z"/>
	<path d="M830.262,208.139c-9.664,0-18.701,0-27.783,0c-3.472-25.918,4.695-52.563-6.945-77.399
		c15.746-5.295,33.421,5.944,34.484,23.241C831.118,171.812,830.262,189.766,830.262,208.139z"/>
	<path d="M610.106,54.851c13.982,0.139,24.919,11.473,24.663,25.563c-0.247,13.738-11.469,24.851-25.026,24.787
		c-13.75-0.062-25.281-11.747-25.116-25.446C584.799,65.794,596.137,54.712,610.106,54.851z"/>
	<path d="M727.354,79.81c0.084-14.074,11.271-25.107,25.307-24.96c13.702,0.145,24.73,11.191,24.888,24.928
		c0.155,13.708-11.398,25.389-25.147,25.423C738.6,105.237,727.271,93.749,727.354,79.81z"/>
	<path d="M576.247,102.838c-0.141,9.212-7.673,16.685-16.795,16.66c-9.285-0.025-17.113-8.024-16.905-17.273
		c0.209-9.365,8.172-16.911,17.521-16.604C569.237,85.922,576.388,93.534,576.247,102.838z"/>
	<path d="M785.952,102.43c0.041-9.263,7.38-16.708,16.571-16.813c9.312-0.107,17.196,7.73,17.119,17.017
		c-0.075,9.043-7.736,16.763-16.744,16.869C793.558,119.614,785.911,111.909,785.952,102.43z"/>
</g>
<path d="M237.553,0c0.014,7.668,0.014,7.668,0,12.931c-0.103,36.486-0.055,72.973-0.055,109.458c0,1.646,0,3.292,0,5.269
	c-6.74,0-13.073,0-19.795,0c0.642-1.325,1.072-2.362,1.626-3.33c3.87-6.772,3.858-7.828-0.935-13.838
	c-0.73-0.917-2.1-1.87-3.181-1.879c-15.296-0.121-30.595-0.083-46.587-0.083c0,6.628,0,12.86,0,19.269c-23.466,0-46.232,0-68.972,0
	c-1.691-8.494-1.833-9.122,5.966-10.883c13.402-3.026,22.599-11.025,30.094-22.026c5.326-7.816,11.531-15.029,17.244-22.587
	c4.819-6.374,6.717-13.271,3.23-20.978c-3.006-6.643-8.104-10.461-15.357-11.025c-7.693-0.598-13.933,2.4-18.692,8.437
	c-6.168,7.821-12.208,15.746-18.515,23.453c-1.238,1.513-3.324,2.849-5.221,3.21c-5.997,1.146-12.089,1.79-18.988,2.745
	c12.021-15.419,13.715-30.772,1.402-45.864c-9.875-12.104-22.994-14.728-40.826-8.849c1.116-8.27-0.477-2.762,0.158-23.429
	C102.15,0,175.553,0,237.553,0z"/>
<path d="M0,233c0.789-2.418,1.486-4.869,2.383-7.244c3.903-10.344,11.57-16.365,21.228-18.664
	c-3.438-3.355-7.688-6.518-10.616-10.625c-3.196-4.482-3.166-10.072-1.643-15.389c2.374-8.289,11.35-14.557,19.746-13.959
	c9.678,0.689,17.327,7.291,18.861,16.277c1.767,10.352-2.938,18.119-14.697,23.299c12.635,2.854,20.725,10.016,24.536,23.604
	c4.045-12.912,11.497-20.707,22.831-23.17c-3.506-3.533-7.741-6.848-10.708-11.055c-3.191-4.523-2.993-10.004-1.208-15.328
	c2.765-8.25,10.46-13.902,18.857-13.703c8.998,0.215,16.959,6.371,19.144,14.805c2.577,9.945-1.451,17.443-13.602,24.979
	c12.257,2.782,20.001,10.221,23.822,23.358c3.986-12.881,11.51-20.719,24.111-23.319c-12.515-7.474-16.533-15.246-13.514-25.543
	c2.498-8.517,10.715-14.541,19.477-14.281c9.107,0.271,16.906,6.715,18.954,15.664c2.267,9.896-2.185,17.748-13.896,24.039
	c12.146,2.937,20.197,10.062,23.897,23.666c4.226-13.453,11.907-21.125,24.636-23.511c-12.258-6.268-16.791-14.211-14.344-24.559
	c2.095-8.861,10.689-15.529,19.719-15.301c8.854,0.225,17.031,6.736,18.939,15.078c2.43,10.617-2.119,18.885-13.764,24.477
	c1.107,0.42,1.918,0.775,2.758,1.039c13.561,4.254,21.311,14.658,21.596,28.949c0.129,6.473,0.328,12.943,0.496,19.416
	c-79.334,0-158.667,0-238,0C0,248.303,0,240.652,0,233z"/>
<path d="M238,158c-49.08,0-89.161,0-138.621,0c0-6.762,0-13.318,0-20.5c2.068,0,4.19,0,6.313,0c41.77,0,90.081,0.07,131.85-0.139
	c0.458,8.973,0.021,2.16,0.458,8.973C238,151,238,153.333,238,158z"/>
<path d="M89.499,157.605c-17.48,1.941-25.891,9.752-29.679,27.908c-1.367-10.188-5.426-17.744-13.247-22.945
	c-7.858-5.227-16.42-5.647-25.801-3.098c-0.105-2.027-0.258-3.621-0.26-5.213c-0.018-15.498-0.031-30.997-0.004-46.496
	c0.022-12.854,6.403-19.132,19.439-19.266c14.315-0.147,28.642-0.039,42.94-0.628c7.101-0.293,14.176-1.746,21.201-3.019
	c1.717-0.312,3.611-1.648,4.706-3.067c6.896-8.936,13.595-18.022,20.347-27.068c4.535-6.076,10.377-7.527,15.4-3.8
	c4.635,3.44,5.49,10.803,1.469,16.161c-8.182,10.903-16.395,21.796-25.02,32.345c-2.166,2.649-5.726,4.549-9.022,5.798
	c-5.877,2.227-11.986,3.927-18.107,5.39c-3.42,0.816-4.503,2.329-4.441,5.809c0.208,11.83,0.079,23.664,0.079,35.496
	C89.499,153.729,89.499,155.545,89.499,157.605z"/>
<path d="M54.779,78.999c-13.437-0.088-24.854-11.542-24.773-24.853c0.085-13.958,11.337-24.742,25.713-24.645
	c13.119,0.089,24.137,11.248,24.274,24.587C80.133,67.564,68.468,79.089,54.779,78.999z"/>
<path d="M40.15,0c62,0,135.403,0,197.403,0c0.447,9.827,0.014,7.668,0,12.931"/>
</svg>
