<?xml version="1.0" encoding="utf-8"?>
<!-- Generator: Adobe Illustrator 16.0.0, SVG Export Plug-In . SVG Version: 6.00 Build 0)  -->
<!DOCTYPE svg PUBLIC "-//W3C//DTD SVG 1.1//EN" "http://www.w3.org/Graphics/SVG/1.1/DTD/svg11.dtd">
<svg version="1.1" id="Layer_1" xmlns="http://www.w3.org/2000/svg" xmlns:xlink="http://www.w3.org/1999/xlink" x="0px" y="0px"
	 width="274.796px" height="274.029px" viewBox="0 0 274.796 274.029" enable-background="new 0 0 274.796 274.029"
	 xml:space="preserve">
<path fill="#000000" stroke="#000000" stroke-miterlimit="10" d="M261.142,137.321c0-0.084-0.002-0.168-0.003-0.253l13.13-4.203
	l-0.432-5.769l-0.433-5.769l-13.597-2.197c-0.936-6.351-2.348-12.547-4.211-18.545l11.277-7.865l-2.113-5.385l-2.113-5.385
	l-13.623,1.905c-2.757-5.746-5.948-11.242-9.525-16.455l8.477-10.863l-3.606-4.523l-3.606-4.522l-12.488,5.852
	c-4.303-4.654-8.957-8.977-13.922-12.926l4.899-12.885l-4.78-3.259l-4.779-3.259l-10.191,9.257
	c-5.459-3.173-11.182-5.942-17.129-8.264l0.883-13.725l-5.528-1.705l-5.528-1.705l-7.004,11.84
	c-6.106-1.402-12.387-2.348-18.802-2.809L143.183,0.5h-5.785h-5.784l-3.209,13.404c-6.415,0.461-12.695,1.407-18.802,2.809
	l-7.004-11.84L97.07,6.579l-5.528,1.705l0.882,13.725c-5.947,2.321-11.67,5.09-17.128,8.264l-10.191-9.257l-4.78,3.259l-4.78,3.259
	l4.9,12.885c-4.966,3.949-9.619,8.272-13.922,12.926l-12.488-5.852l-3.607,4.522l-3.607,4.523L35.297,67.4
	c-3.577,5.212-6.769,10.709-9.525,16.455L12.149,81.95l-2.113,5.385L7.922,92.72l11.277,7.865
	c-1.862,5.999-3.275,12.194-4.211,18.545l-13.596,2.197l-0.432,5.769l-0.433,5.769l13.13,4.203c0,0.085-0.003,0.168-0.003,0.253
	c0,6.357,0.481,12.602,1.406,18.701l-12.34,6.104l1.288,5.64l1.287,5.641l13.754,0.146c1.871,6.116,4.199,12.032,6.951,17.705
	l-9.985,9.464l2.893,5.01l2.893,5.01l13.205-3.92c3.573,5.253,7.542,10.213,11.859,14.846l-6.769,12.017l4.241,3.935l4.241,3.935
	l11.474-7.646c4.936,3.958,10.177,7.552,15.691,10.727l-2.92,13.449l5.212,2.51l5.212,2.51l8.686-10.658
	c5.854,2.313,11.928,4.188,18.18,5.596l1.174,13.712l5.72,0.862l5.721,0.861l5.169-12.77c3.136,0.237,6.306,0.359,9.502,0.359
	c3.197,0,6.367-0.122,9.503-0.359l5.169,12.77l5.721-0.861l5.721-0.862l1.174-13.712c6.252-1.407,12.326-3.282,18.18-5.596
	l8.687,10.658l5.212-2.51l5.212-2.51l-2.92-13.449c5.514-3.175,10.755-6.769,15.691-10.727l11.474,7.646l4.24-3.935l4.24-3.935
	l-6.769-12.017c4.317-4.633,8.286-9.593,11.859-14.846l13.205,3.92l2.893-5.01l2.892-5.01l-9.984-9.464
	c2.752-5.673,5.081-11.589,6.951-17.705l13.754-0.146l1.287-5.641l1.288-5.64l-12.34-6.104
	C260.662,149.922,261.142,143.678,261.142,137.321z M243.572,120.63l-66.001,9.49c-0.159-0.936-0.349-1.861-0.569-2.773
	l63.996-18.791C242.077,112.496,242.944,116.523,243.572,120.63z M240.166,105.672l-63.979,18.785
	c-0.291-0.904-0.617-1.794-0.969-2.669l60.67-27.707C237.527,97.838,238.958,101.706,240.166,105.672z M228.753,80.483
	c2.166,3.494,4.137,7.12,5.896,10.866L174,119.046c-0.419-0.854-0.872-1.689-1.349-2.509L228.753,80.483z M227.138,77.956
	l-56.083,36.042c-0.538-0.787-1.108-1.549-1.698-2.294l50.395-43.667C222.397,71.194,224.864,74.505,227.138,77.956z
	 M217.791,65.765l-50.377,43.652c-0.646-0.702-1.32-1.377-2.013-2.032l43.667-50.394C212.14,59.747,215.052,62.676,217.791,65.765z
	 M206.805,55.021l-43.653,50.378c-0.74-0.604-1.506-1.177-2.287-1.729l36.054-56.101C200.36,49.865,203.66,52.354,206.805,55.021z
	 M183.546,39.973c3.742,1.784,7.364,3.78,10.853,5.969l-36.043,56.084c-0.819-0.492-1.661-0.95-2.517-1.385L183.546,39.973z
	 M180.819,38.723l-27.698,60.651c-0.882-0.369-1.782-0.7-2.694-1.007l18.791-63.997C173.189,35.6,177.06,37.06,180.819,38.723z
	 M166.338,33.526l-18.786,63.978c-0.924-0.237-1.865-0.431-2.814-0.604l9.49-66.006C158.347,31.542,162.388,32.424,166.338,33.526z
	 M138.899,29.596c4.182,0.058,8.308,0.347,12.36,0.87l-9.488,65.999c-0.947-0.101-1.906-0.164-2.872-0.199V29.596z M135.899,29.596
	v66.669c-0.966,0.035-1.925,0.098-2.872,0.199l-9.489-65.999C127.591,29.943,131.717,29.654,135.899,29.596z M120.569,30.893
	l9.49,66.007c-0.949,0.172-1.89,0.367-2.815,0.604l-18.786-63.978C112.408,32.424,116.45,31.542,120.569,30.893z M105.58,34.37
	l18.791,63.997c-0.912,0.308-1.812,0.638-2.693,1.007L93.979,38.723C97.738,37.06,101.608,35.6,105.58,34.37z M91.252,39.973
	l27.706,60.668c-0.855,0.435-1.698,0.893-2.517,1.385L80.398,45.942C83.887,43.753,87.508,41.757,91.252,39.973z M77.878,47.57
	l36.054,56.101c-0.781,0.552-1.547,1.125-2.287,1.729L67.993,55.021C71.138,52.354,74.438,49.865,77.878,47.57z M65.73,56.991
	l43.666,50.394c-0.692,0.655-1.367,1.33-2.012,2.032L57.006,65.765C59.745,62.676,62.657,59.747,65.73,56.991z M55.046,68.037
	l50.394,43.667c-0.59,0.746-1.16,1.508-1.698,2.294L47.659,77.956C49.934,74.506,52.4,71.194,55.046,68.037z M46.043,80.483
	l56.102,36.055c-0.477,0.82-0.929,1.654-1.349,2.509L40.147,91.349C41.908,87.604,43.878,83.977,46.043,80.483z M38.91,94.081
	l60.67,27.707c-0.353,0.876-0.678,1.765-0.97,2.67l-63.979-18.786C35.838,101.706,37.27,97.838,38.91,94.081z M33.8,108.555
	l63.996,18.791c-0.221,0.913-0.411,1.838-0.569,2.773l-66-9.489C31.854,116.523,32.721,112.496,33.8,108.555z M30.818,123.602
	l66.011,9.491c-0.088,0.93-0.138,1.871-0.163,2.818H30.002C30.042,131.747,30.315,127.639,30.818,123.602z M30.013,138.911h66.674
	c0.044,0.944,0.126,1.879,0.233,2.805l-65.994,9.488C30.393,147.172,30.085,143.071,30.013,138.911z M31.363,154.171l66.011-9.491
	c0.176,0.924,0.38,1.838,0.618,2.738l-63.979,18.785C32.905,162.28,32.021,158.264,31.363,154.171z M34.866,169.081l64.003-18.793
	c0.306,0.885,0.631,1.76,0.995,2.615L39.218,180.6C37.557,176.866,36.099,173.023,34.866,169.081z M46.42,194.096
	c-2.179-3.463-4.168-7.057-5.948-10.771l60.676-27.71c0.426,0.829,0.872,1.646,1.353,2.44L46.42,194.096z M48.05,196.614
	l56.104-36.057c0.538,0.758,1.094,1.5,1.681,2.218l-50.376,43.651C52.81,203.303,50.334,200.029,48.05,196.614z M57.431,208.689
	l50.395-43.668c0.636,0.671,1.291,1.325,1.972,1.952l-43.653,50.379C63.078,214.631,60.168,211.74,57.431,208.689z M68.416,219.313
	l43.666-50.394c0.723,0.573,1.462,1.126,2.224,1.651L78.26,226.657C74.836,224.395,71.55,221.942,68.416,219.313z M91.57,234.151
	c-3.717-1.756-7.316-3.72-10.784-5.875l36.052-56.099c0.794,0.466,1.605,0.905,2.433,1.317L91.57,234.151z M94.3,235.393
	l27.704-60.662c0.85,0.347,1.715,0.664,2.592,0.953l-18.789,63.989C101.87,238.463,98.031,237.03,94.3,235.393z M120.688,243.102
	c-4.081-0.638-8.084-1.507-11.999-2.59l18.788-63.986c0.888,0.222,1.79,0.408,2.7,0.571L120.688,243.102z M135.899,244.379
	c-4.141-0.057-8.228-0.34-12.242-0.853l9.489-66.001c0.908,0.095,1.828,0.15,2.753,0.184V244.379z M120.542,136.988
	c0-9.31,7.547-16.856,16.856-16.856s16.856,7.546,16.856,16.856s-7.547,16.856-16.856,16.856S120.542,146.297,120.542,136.988z
	 M138.899,244.379v-66.67c0.925-0.033,1.844-0.089,2.752-0.183l9.489,66C147.125,244.04,143.04,244.323,138.899,244.379z
	 M154.11,243.102l-9.49-66.005c0.91-0.163,1.812-0.349,2.7-0.571l18.788,63.986C162.193,241.595,158.19,242.464,154.11,243.102z
	 M168.99,239.673l-18.789-63.988c0.877-0.29,1.742-0.607,2.593-0.954l27.704,60.662C176.766,237.03,172.927,238.463,168.99,239.673z
	 M183.228,234.151l-27.701-60.656c0.827-0.412,1.638-0.852,2.432-1.316l36.053,56.098
	C190.543,230.431,186.945,232.395,183.228,234.151z M196.537,226.658l-36.045-56.087c0.762-0.525,1.502-1.078,2.225-1.651
	l43.666,50.394C203.248,221.942,199.96,224.395,196.537,226.658z M208.653,217.352L165,166.973c0.681-0.627,1.336-1.28,1.973-1.951
	l50.395,43.667C214.629,211.74,211.719,214.631,208.653,217.352z M219.338,206.426l-50.378-43.651
	c0.588-0.718,1.145-1.46,1.682-2.218l56.104,36.057C224.463,200.029,221.988,203.303,219.338,206.426z M228.376,194.096
	l-56.08-36.041c0.48-0.794,0.927-1.611,1.354-2.44l60.675,27.71C232.545,187.04,230.556,190.633,228.376,194.096z M235.58,180.6
	l-60.646-27.697c0.363-0.855,0.688-1.73,0.994-2.615l64.004,18.793C238.698,173.024,237.24,176.866,235.58,180.6z M240.786,166.204
	l-63.979-18.785c0.238-0.9,0.441-1.814,0.617-2.738l66.012,9.492C242.777,158.264,241.892,162.28,240.786,166.204z M243.871,151.205
	l-65.994-9.489c0.107-0.926,0.189-1.86,0.233-2.805h66.675C244.711,143.071,244.404,147.172,243.871,151.205z M178.131,135.911
	c-0.024-0.947-0.074-1.888-0.163-2.818l66.012-9.491c0.502,4.038,0.774,8.146,0.815,12.309H178.131z"/>
<g>
</g>
<g>
</g>
<g>
</g>
<g>
</g>
<g>
</g>
<g>
</g>
</svg>
