<?xml version="1.0" encoding="utf-8"?>
<!-- Generator: Adobe Illustrator 16.0.0, SVG Export Plug-In . SVG Version: 6.00 Build 0)  -->
<!DOCTYPE svg PUBLIC "-//W3C//DTD SVG 1.1//EN" "http://www.w3.org/Graphics/SVG/1.1/DTD/svg11.dtd">
<svg version="1.1" id="Layer_1" xmlns="http://www.w3.org/2000/svg" xmlns:xlink="http://www.w3.org/1999/xlink" x="0px" y="0px"
	 width="1600px" height="600px" viewBox="0 0 1600 600" enable-background="new 0 0 1600 600" xml:space="preserve">
<path fill-rule="evenodd" clip-rule="evenodd" d="M1520.818,95.748c-3.049-11.494-3.008-11.422,6.404-16.906
	c1.27-0.739,2.613-2.617,2.637-3.988c0.066-4.084-0.221-8.232-0.973-12.242c-0.299-1.594-1.9-3.652-3.387-4.199
	c-10.25-3.777-10.291-3.667-9.129-15.21c0.096-0.132,0.199-0.384,0.285-0.378c12.021,0.761,15.607-6.413,16.621-16.823
	c0.25-2.557,0.143-3.962-1.748-5.336c-9.234-6.709-9.236-6.709-4.088-16.915c1.879,0,3.922-0.326,5.824,0.057
	c7.502,1.508,7.57,1.514,11.17-5.053c1.719-3.141,3.619-6.182,5.561-9.475c-2.156-2.895-4.562-5.797-6.539-8.967
	c-0.654-1.051-0.787-3.176-0.148-4.141c1.801-2.713,4.125-5.078,6.324-7.677c3.945,1.951,7.75,3.831,11.699,5.783
	c4.008-3.515,8.201-6.935,12.023-10.729c0.904-0.896,0.76-3.052,0.721-4.62c-0.025-1.084-0.779-2.131-1.064-3.231
	c-0.594-2.3-2.299-5.528-1.381-6.752c1.971-2.629,5.254-4.321,8.15-6.163c0.5-0.319,1.863,0.326,2.594,0.852
	c1.068,0.768,1.959,1.8,2.867,2.773c3.326,3.566,6.934,5.329,11.422,1.92c0.133-0.1,0.268-0.227,0.42-0.268
	c7.873-2.082,11.559-6.57,10.094-15.217c-0.926-5.467,4.74-4.239,7.635-5.405c1.32-0.532,4.531,0.384,4.977,1.442
	c3.537,8.428,9.232,10.243,17.396,6.893c1.707-0.701,3.949-0.102,6.277-0.102c0.859-3.539,2.084-6.93,2.412-10.406
	c0.307-3.259,1.898-3.66,4.58-3.701c8.525-0.135,8.521-0.209,10.523,7.967c0.459,1.879,0.936,3.755,1.361,5.465
	c5.059,0.868,10.018,2.008,15.035,2.414c1.59,0.128,3.381-1.633,4.982-2.678c0.471-0.307,0.6-1.132,0.898-1.713
	c3.619-7.092,7.758-8.188,14.25-3.436c0.971,0.711,1.496,2.836,1.311,4.18c-0.932,6.806,0.992,10.969,8.109,13.613
	c8.754,3.254,8.539,4.027,15.438-2.705c1.939-1.895,3.457-2.932,5.775-0.539c1.096,1.129,2.766,1.689,4.143,2.56
	c2.666,1.685,3.459,3.792,1.699,6.697c-0.746,1.232-0.9,2.812-1.586,4.095c-2.023,3.791-0.822,6.008,2.711,8.313
	c3.42,2.231,6.119,5.569,9.258,8.537c1.873-0.907,3.76-1.806,5.635-2.731c1.906-0.941,3.799-1.91,6.355-3.197
	c2.15,2.775,4.525,5.605,6.57,8.656c0.473,0.705,0.166,2.389-0.379,3.236c-1.947,3.025-4.15,5.886-6.387,8.988
	c2.537,4.357,4.754,9.197,7.994,13.21c1.271,1.575,4.814,1.532,7.367,1.792c2.361,0.238,6.035-1.107,6.928,0.009
	c2.158,2.696,3.148,6.381,4.301,9.771c0.182,0.534-1.115,1.778-1.943,2.41c-2.854,2.172-5.803,4.217-8.627,6.247
	c0.965,4.809,1.855,9.416,2.826,14.006c0.643,3.039,2.602,4.584,5.699,4.878c2.92,0.276,5.824,0.724,8.836,1.108
	c0.141,0.838,0.326,1.473,0.344,2.111c0.285,10.658,0.252,10.568-10.105,13.783c-1.219,0.379-2.541,2.313-2.75,3.689
	c-0.645,4.209-0.971,8.496-0.969,12.753c0.002,1.243,1.262,2.846,2.395,3.655c3,2.146,7.65,3.283,8.979,6.084
	c1.219,2.568-1.041,6.787-1.854,10.689c-1.846,0-3.703,0.277-5.445-0.051c-6.072-1.146-8.811,1.455-11.051,7.151
	c-2.744,6.976-4.758,12.794,3.461,17.186c0.959,0.513,1.592,1.641,2.504,2.622c-1.07,1.925-2.074,3.779-3.127,5.605
	c-0.969,1.68-1.99,3.33-3.072,5.133c-4.295-1.229-8.475-2.426-12.943-3.705c-3.268,4.132-6.715,8.237-9.807,12.594
	c-0.705,0.995-0.676,3.074-0.141,4.28c1.385,3.116,3.24,6.022,5.172,9.481c-2.785,2.434-5.449,5.093-8.502,7.187
	c-0.736,0.505-2.912-0.616-4.162-1.407c-8.211-5.188-8.148-5.176-15.982,0.818c-2.184,1.67-4.666,2.949-7.287,4.578
	c0.875,3.459,1.979,6.86,2.488,10.348c0.188,1.276-0.65,3.351-1.693,4.03c-2.705,1.764-5.783,2.956-8.914,4.474
	c-2.389-2.988-4.418-5.965-6.93-8.455c-0.963-0.954-3.102-1.278-4.572-1.049c-3.041,0.475-5.953,1.808-8.996,2.256
	c-5.373,0.791-6.895,4.103-6.686,8.934c0.094,2.135,0.016,4.277,0.016,6.4c-3.066,0.566-5.754,1.187-8.475,1.531
	c-2.754,0.349-5.338,0.357-5.775-3.539c-0.193-1.719-0.883-3.668-2.006-4.922c-1.338-1.491-3.297-2.537-5.16-3.402
	c-0.959-0.445-2.318,0.07-3.459-0.103c-7.93-1.197-13.766,0.603-15.338,9.708c-0.174,1.002-2.988,2.175-4.574,2.17
	c-2.881-0.01-5.758-0.848-8.656-1.342c-1.934-4.719,2.48-11.645-4.721-14.457c-4.232-1.654-9.1-4.414-12.951-3.524
	c-3.715,0.858-6.494,5.769-9.875,9.085c-10.951-3.131-10.951-3.131-8.434-18.252c-4.131-2.764-8.396-5.468-12.486-8.416
	c-1.959-1.411-3.363-1.558-5.488-0.115c-9.371,6.362-9.426,6.281-17.484-2.566c0.793-1.631,1.49-3.454,2.502-5.082
	c4.338-6.976,3.459-6.404-0.557-13.057c-5.432-8.999-11.939-8.201-19.732-4.128c-2.25-3.879-4.277-7.372-6.859-11.821
	c2.123-1.767,4.059-4.012,6.504-5.262c3.564-1.824,4.289-3.924,2.186-7.208c-0.25-0.39-0.195-0.963-0.383-1.408
	c-1.688-4.018-2.365-9.55-5.396-11.602C1530.336,94.183,1524.971,95.748,1520.818,95.748z M1645.076-47.159
	c-36.902,0.369-78.107,29.48-90.432,65.764c19.877,0,39.689,0.004,59.504-0.002c6.123-0.002,10.195-2.828,12.145-8.71
	C1632.547-8.958,1638.721-27.833,1645.076-47.159z M1660.914-47.248c6.414,19.704,12.662,39.062,19.043,58.374
	c1.441,4.363,6.35,7.465,11.139,7.473c11.324,0.02,22.648,0.006,33.973,0.006c8.76,0,17.518,0,26.434,0
	C1737.211-19.991,1696.586-46.432,1660.914-47.248z M1756.699,34.289c-1.014,0.463-1.488,0.592-1.863,0.862
	c-15.629,11.273-31.291,22.504-46.842,33.888c-3.264,2.39-6.016,5.545-5.029,10.062c1.07,4.904,2.416,9.766,3.926,14.556
	c4.785,15.183,9.703,30.323,15.105,47.149c15.385-14.209,26.529-29.777,32.566-48.535
	C1760.645,73.369,1762.391,54.05,1756.699,34.289z M1549.965,34.354c-14.525,23.958,6.627,88.991,33.805,104.821
	c0.248-0.223,0.635-0.399,0.725-0.674c6.18-18.715,12.453-37.4,18.41-56.186c1.463-4.608,0.229-9.049-3.824-12.215
	c-2.318-1.811-4.77-3.447-7.148-5.18C1577.949,54.741,1563.969,44.554,1549.965,34.354z M1708.236,149.437
	c-14.857-10.858-29.432-21.375-43.854-32.098c-8.439-6.277-14.279-6.419-22.637-0.162c-6.934,5.19-13.982,10.225-20.969,15.344
	c-7.701,5.642-15.389,11.301-23.24,17.068C1630.494,171.911,1679.357,170.201,1708.236,149.437z M1652.971,73.605
	c8.908,0,15.084-6.209,15.059-15.143c-0.02-7.637-7.701-15.154-15.303-14.977c-7.504,0.176-14.795,7.538-14.818,14.964
	C1637.879,67.31,1644.137,73.605,1652.971,73.605z"/>
<path fill-rule="evenodd" clip-rule="evenodd" d="M1560.075,450.945c-3.855-1.94-7.348-3.698-11.047-5.559
	c0.865-4.471,1.718-8.885,2.526-13.07c-4.318-3.053-8.345-6.127-12.632-8.781c-1.194-0.739-3.448-0.816-4.713-0.186
	c-3.037,1.514-5.877,5.224-8.607,5.051c-2.747-0.174-5.256-3.98-7.892-6.167c-0.481-0.4-1.071-0.67-1.874-1.161
	c1.426-2.458,2.664-4.937,4.221-7.198c2.449-3.557,1.614-6.143-0.937-9.571c-4.98-6.694-9.797-11.918-18.82-6.556
	c-0.663,0.395-2.815-0.587-3.46-1.503c-1.859-2.645-3.303-5.583-5.068-8.687c3.33-3.11,6.57-6.135,9.959-9.298
	c-1.856-4.876-3.663-10.076-5.883-15.093c-0.484-1.095-2.4-2.059-3.736-2.176c-3.457-0.304-6.959-0.102-10.58-0.102
	c-0.842-3.34-2.044-6.425-2.211-9.565c-0.07-1.326,1.764-3.444,3.209-4.036c5.662-2.318,9.311-4.445,7.813-12.339
	c-1.911-10.078-0.854-10.281-10.696-13.742c-0.758-0.267-1.542-0.456-2.29-0.675c-0.109-0.369-0.275-0.683-0.286-1.001
	c-0.329-10.297-0.35-10.395,9.713-12.844c3.438-0.836,5.757-2.135,5.232-6.135c-0.063-0.488-0.022-1.006,0.059-1.495
	c0.645-3.853,2.858-8.379,1.551-11.369c-1.421-3.245-6.111-5.059-9.783-7.801c1.378-3.395,2.835-6.985,4.359-10.74
	c2.379,0,4.993-0.707,6.934,0.137c5.08,2.209,7.705-0.117,9.834-4.188c0.151-0.29,0.252-0.605,0.391-0.901
	c1.646-3.518,4.878-7.215,4.505-10.502c-0.382-3.365-4.295-6.328-7.009-9.928c2.384-3.142,4.92-6.483,7.336-9.667
	c0.732,0.083,1.074,0.054,1.363,0.166c3.911,1.52,8.576,5.173,11.546,4.104c4.606-1.657,8.33-6.285,11.819-10.196
	c0.973-1.091,0.266-4.271-0.466-6.188c-2.91-7.626-1.811-10.944,5.888-13.429c1.612-0.52,4.857,1.199,6.088,2.835
	c4.232,5.625,8.232,3.428,13.498,1.466c6.951-2.591,9.655-6.405,8.076-13.476c-0.922-4.133,1.674-5.522,4.982-6.298
	c3.636-0.852,7.379-2.458,9.375,2.786c2.019,5.302,5.102,8.664,11.672,6.245c3.156-1.162,6.771-1.074,10.526-1.601
	c0.747-2.777,1.962-5.838,2.317-8.997c0.4-3.566,1.923-5.133,5.389-4.477c3.325,0.63,7.804-2.409,9.035,4.38
	c1.74,9.603,2.451,8.911,13.022,10.811c6.017,1.081,8.731-0.388,11.077-5.769c2.266-5.196,9.252-5.949,13.389-1.736
	c1.104,1.125,1.297,3.754,0.996,5.539c-1.079,6.409,1.237,10.356,7.583,11.912c0.459,0.112,0.83,0.546,1.273,0.767
	c7.761,3.869,8.11,4.182,14.089-2.435c4.123-4.562,6.695-1.013,9.627,0.739c2.879,1.722,4.676,4.029,2.576,7.81
	c-1.396,2.516-2.073,5.432-1.85,7.184c3.635,4.757,7.27,9.514,10.865,14.222c4.263-2.132,7.402-3.442,10.26-5.21
	c2.58-1.595,4.207-0.767,5.751,1.31c0.198,0.266,0.444,0.496,0.639,0.763c4.737,6.524,4.745,6.533-0.731,13.112
	c-2.104,2.528-3.333,4.779-0.428,7.873c1.955,2.083,3.431,4.892,4.319,7.635c1.281,3.955,3.917,4.448,7.329,4.05
	c9.103-1.062,9.1-1.056,12.035,7.531c0.258,0.752,0.588,1.48,0.993,2.493c-0.796,0.49-1.497,0.823-2.083,1.298
	c-3.03,2.46-8.269,4.729-8.55,7.491c-0.494,4.852,1.581,10.211,3.575,14.938c0.72,1.707,4.225,2.442,6.594,3.191
	c2.258,0.713,4.693,0.867,7.094,1.274c0,4.291,0,8.1,0,11.8c-0.288,0.303-0.455,0.64-0.705,0.718
	c-11.766,3.704-11.539,3.715-12.293,15.887c-0.244,3.952-0.551,6.529,3.979,8.515c10.414,4.566,7.012,2.109,5.688,12.667
	c-0.117,0.932-0.634,1.814-1.1,3.087c-1.523,0-3.168-0.002-4.812,0c-8.632,0.015-8.083,0.271-11.749,8.118
	c-3.232,6.918-2.648,11.965,3.797,16.189c0.931,0.61,1.576,1.654,2.302,2.44c-5.026,10.817-5.083,11.022-15.922,8.032
	c-2.63-0.726-3.693-0.482-5.086,1.659c-1.513,2.327-3.433,4.415-5.337,6.456c-3.405,3.653-4.514,7.202-0.673,11.384
	c1.382,1.505,1.987,3.725,3.188,6.094c-2.6,2.271-5.141,4.825-8.061,6.827c-0.822,0.563-3.107-0.056-4.117-0.877
	c-5.493-4.468-10.014-5.564-16.23,0.004c-6.928,6.207-7.939,5.551-5.313,14.289c1.159,3.858-0.307,5.173-3.198,6.297
	c-7.422,2.886-7.42,2.858-12.666-3.892c-2-2.574-4.154-3.8-7.65-2.17c-3.213,1.499-7.117,1.63-10.151,3.357
	c-1.801,1.025-2.905,3.85-3.599,6.09c-0.801,2.587,0.078,7.052-1.334,7.815c-3.108,1.68-7.197,1.546-11.203,2.204
	c-1.828-4.34-3.518-8.353-5.186-12.318c-2.908,0-5.812,0-8.717,0c-2.964,0-5.928,0-9.629,0c-1.148,2.561-2.371,5.906-4.131,8.938
	c-0.779,1.342-2.578,2.74-4.038,2.89c-2.366,0.243-4.918-0.262-7.228-0.979c-1.055-0.327-2.207-1.809-2.449-2.95
	c-0.405-1.914-0.018-3.982-0.146-5.974c-0.2-3.114-0.741-6.016-4.901-6.025c-0.76-0.002-1.503-0.607-2.279-0.855
	C1567.749,440.078,1567.747,440.081,1560.075,450.945z M1613.53,340.007c9.127,1.326,17.018-7.962,16.596-15.769
	c-0.498-9.225-6.945-16.295-16.014-16.353c-9.296-0.059-16.227,7.006-16.23,16.545
	C1597.878,332.859,1605.03,339.978,1613.53,340.007z M1572.634,322.782c0.104-0.665,0.208-1.33,0.312-1.996
	c-21.555-3.172-43.109-6.344-64.808-9.537c-0.482,3.922-0.933,7.579-1.418,11.533
	C1529.134,322.782,1550.884,322.782,1572.634,322.782z M1721.003,322.761c0-2.02,0.017-3.515-0.003-5.01
	c-0.07-5.338-1.419-6.548-6.478-5.842c-2.597,0.362-5.198,0.695-7.793,1.074c-13.43,1.963-26.865,3.894-40.285,5.934
	c-3.873,0.589-7.697,1.503-11.544,2.268c0.112,0.525,0.224,1.051,0.336,1.576C1676.974,322.761,1698.71,322.761,1721.003,322.761z
	 M1616.331,282.747c0.561,0.058,1.12,0.116,1.68,0.174c3.1-21.537,6.198-43.074,9.305-64.659c-4.303-0.56-7.625-0.992-10.984-1.429
	C1616.331,239.191,1616.331,260.969,1616.331,282.747z M1616.274,430.952c2.59,0,5.184,0.471,7.457-0.178
	c1.346-0.384,2.978-2.475,3.088-3.906c0.207-2.711-0.559-5.504-0.972-8.255c-1.938-12.925-3.877-25.851-5.855-38.77
	c-0.759-4.958-1.626-9.9-2.442-14.85c-0.426,0.057-0.851,0.115-1.275,0.172C1616.274,386.964,1616.274,408.765,1616.274,430.952z
	 M1585.814,221.04c6.368,21.654,12.454,42.343,18.538,63.033c0.619-0.147,1.238-0.294,1.857-0.441
	c-3.132-21.539-6.264-43.078-9.465-65.09C1592.801,219.443,1589.373,220.227,1585.814,221.04z M1622.005,283.592
	c0.566,0.167,1.133,0.333,1.699,0.5c6.131-20.743,12.263-41.487,18.634-63.039c-3.862-0.864-7.442-1.665-11.052-2.473
	C1628.091,240.965,1625.048,262.278,1622.005,283.592z M1600.812,218.273c3.138,21.714,6.237,43.162,9.337,64.609
	c0.467-0.047,0.934-0.095,1.4-0.142c0-21.887,0-43.774,0-66.007C1608.005,217.241,1604.785,217.703,1600.812,218.273z
	 M1717.505,296.964c-9.767,0.97-60.78,16.916-62.257,19.501c9.501-1.252,18.896-2.408,28.263-3.748
	c10.35-1.481,20.643-3.443,31.029-4.553c3.994-0.427,4.904-2.011,4.416-5.315C1718.673,300.938,1718.04,299.08,1717.505,296.964z
	 M1653.731,332.411c0.967,1.576,1.082,2.035,1.313,2.103c19.452,5.774,38.914,11.511,58.37,17.269c4.83,1.43,4.303-2.643,5.227-5.11
	c1-2.671,0.573-5.043-2.616-5.653c-3.205-0.613-6.51-0.681-9.747-1.153c-10.162-1.481-20.306-3.091-30.471-4.552
	C1668.728,334.297,1661.624,333.443,1653.731,332.411z M1596.972,429.724c3.045-21.491,6.09-42.974,9.133-64.456
	c-0.604-0.096-1.207-0.192-1.812-0.288c-6.049,20.661-12.097,41.322-18.272,62.417
	C1589.841,428.208,1593.162,428.914,1596.972,429.724z M1611.556,365.148c-0.438-0.029-0.874-0.058-1.312-0.087
	c-3.075,21.438-6.151,42.876-9.319,64.962c3.641,0.409,7.097,0.796,10.631,1.193C1611.556,408.693,1611.556,386.92,1611.556,365.148
	z M1646.224,222.067c-5.846,21.229-12.871,41.992-18.137,63.226c0.462,0.124,0.923,0.248,1.385,0.372
	c9.049-19.797,18.1-39.594,27.213-59.53C1653.134,224.755,1649.796,223.457,1646.224,222.067z M1573.28,316.468
	c0.133-0.461,0.265-0.923,0.397-1.384c-3.149-1.037-6.271-2.167-9.452-3.095c-16.231-4.736-32.469-9.455-48.735-14.064
	c-1.538-0.436-4.576-0.513-4.747-0.013c-0.926,2.698-1.277,5.621-1.526,8.493c-0.04,0.454,1.392,1.363,2.238,1.508
	c2.899,0.498,5.851,0.689,8.767,1.106c10.668,1.525,21.325,3.124,31.994,4.634C1559.229,314.645,1566.259,315.533,1573.28,316.468z
	 M1571.423,226.151c9.203,20.103,18.123,39.586,27.042,59.07c0.56-0.228,1.12-0.455,1.681-0.682
	c-6.099-20.793-12.197-41.586-18.357-62.592C1578.081,223.451,1575.096,224.662,1571.423,226.151z M1574.124,333.701
	c-0.125-0.384-0.25-0.768-0.374-1.151c-6.731,0.838-13.477,1.586-20.192,2.534c-13.283,1.875-26.557,3.818-39.814,5.859
	c-1.644,0.253-4.551,1.356-4.517,1.923c0.173,2.868,0.932,5.765,1.995,8.449c0.177,0.444,2.957,0.155,4.408-0.25
	c15.538-4.331,31.065-8.702,46.56-13.187C1566.231,336.709,1570.149,335.105,1574.124,333.701z M1511.767,292.377
	c21.291,6.234,42.064,12.316,62.838,18.398c0.211-0.548,0.422-1.096,0.633-1.645c-19.678-9.001-39.357-18.002-59.36-27.151
	C1514.471,285.537,1513.173,288.822,1511.767,292.377z M1716.2,292.381c-1.488-3.737-2.826-7.095-4.15-10.417
	c-20.291,9.348-39.879,18.373-59.467,27.397c0.213,0.514,0.426,1.027,0.638,1.541C1674.042,304.779,1694.862,298.656,1716.2,292.381
	z M1631.161,429.577c2.166-0.464,4.211-1.248,6.265-1.273c4.959-0.062,4.43-2.54,3.354-6.046
	c-3.099-10.112-5.859-20.326-8.874-30.464c-2.729-9.178-5.617-18.308-8.435-27.459c-0.506,0.088-1.012,0.177-1.518,0.265
	C1625.021,386.236,1628.087,407.875,1631.161,429.577z M1593.403,288.341c0.47-0.27,0.939-0.539,1.408-0.809
	c-9.03-19.821-18.061-39.643-27.137-59.562c-3.496,1.8-6.529,3.361-9.916,5.106C1569.782,251.717,1581.593,270.029,1593.403,288.341
	z M1575.73,339.725c-0.178-0.53-0.355-1.061-0.533-1.591c-20.763,6.072-41.526,12.145-62.909,18.399
	c1.35,3.705,2.553,7.008,3.788,10.397C1536.207,357.75,1555.969,348.737,1575.73,339.725z M1716.055,356.582
	c-21.386-6.247-42.091-12.294-62.796-18.341c-0.199,0.517-0.4,1.034-0.6,1.551c19.678,9.006,39.357,18.013,59.353,27.164
	C1713.364,363.484,1714.578,360.371,1716.055,356.582z M1633.245,287.533c0.482,0.291,0.965,0.582,1.445,0.873
	c11.797-18.346,23.594-36.691,35.512-55.228c-3.689-2.023-6.66-3.652-9.695-5.316
	C1651.368,247.865,1642.307,267.699,1633.245,287.533z M1629.251,362.907c-0.53,0.155-1.061,0.311-1.59,0.466
	c6.112,20.899,12.226,41.799,18.417,62.964c3.839-1.549,6.923-2.793,10.296-4.154
	C1647.207,402.149,1638.229,382.528,1629.251,362.907z M1577.147,305.363c0.271-0.488,0.541-0.976,0.811-1.463
	c-18.344-11.791-36.688-23.582-55.311-35.553c-1.807,3.722-3.33,6.864-4.809,9.91
	C1537.901,287.426,1557.524,296.395,1577.147,305.363z M1705.258,268.438c-18.428,11.874-36.541,23.544-54.654,35.216
	c0.271,0.489,0.54,0.978,0.81,1.467c19.565-8.92,39.13-17.841,59.253-27.016C1708.774,274.725,1707.135,271.793,1705.258,268.438z
	 M1696.277,256.069c-16.558,14.376-33.022,28.673-49.488,42.97c0.316,0.432,0.634,0.863,0.95,1.295
	c18.371-11.803,36.742-23.606,55.25-35.498C1700.641,261.768,1698.515,258.991,1696.277,256.069z M1682.659,242.095
	c-3.492-2.528-6.107-4.421-8.959-6.486c-11.79,18.373-23.408,36.481-35.027,54.589c0.449,0.346,0.899,0.691,1.35,1.037
	C1654.148,274.954,1668.274,258.673,1682.659,242.095z M1600.22,363.551c-0.481-0.172-0.963-0.345-1.443-0.518
	c-8.92,19.554-17.842,39.109-26.919,59.008c2.663,1.116,4.967,1.899,7.093,3.02c2.373,1.252,3.336,0.842,4.111-1.874
	c4.689-16.402,9.592-32.743,14.38-49.117C1598.459,370.59,1599.298,367.059,1600.22,363.551z M1580.464,299.979
	c0.237-0.348,0.476-0.696,0.713-1.044c-16.346-14.166-32.691-28.332-48.956-42.427c-8.105,7.011-8.154,7.729-0.669,12.601
	c14.219,9.256,28.48,18.449,42.759,27.613C1576.257,297.971,1578.407,298.901,1580.464,299.979z M1545.671,242.294
	c14.479,16.691,28.688,33.074,42.898,49.456c0.423-0.298,0.846-0.597,1.268-0.895c-11.791-18.375-23.582-36.75-35.607-55.487
	C1551.152,237.858,1548.507,239.999,1545.671,242.294z M1583.716,295.365c0.393-0.375,0.786-0.751,1.18-1.126
	c-14.105-16.324-28.211-32.647-41.969-48.568c-2.708,2.379-5.486,4.82-8.244,7.243
	C1551.278,267.282,1567.497,281.324,1583.716,295.365z M1634.479,360.181c-0.481,0.239-0.963,0.478-1.445,0.717
	c8.985,19.733,17.97,39.465,27.039,59.383c2.143-0.963,3.757-1.704,5.384-2.417c3.327-1.459,4.633-2.965,1.78-6.582
	c-3.511-4.451-6.172-9.569-9.24-14.373C1650.171,384.658,1642.32,372.422,1634.479,360.181z M1578.056,345.006
	c-0.258-0.464-0.517-0.928-0.775-1.391c-19.759,9.036-39.519,18.073-59.596,27.254c2.156,3.477,3.979,6.416,5.807,9.36
	C1542.024,368.266,1560.04,356.636,1578.056,345.006z M1709.981,370.639c-19.99-9.122-39.592-18.065-59.191-27.009
	c-0.301,0.471-0.6,0.942-0.9,1.414c0.809,0.572,1.598,1.175,2.43,1.711c15.053,9.712,30.061,19.495,45.188,29.089
	C1705.397,380.849,1705.494,380.697,1709.981,370.639z M1525.648,383.849c1.741,2.296,3.231,4.666,5.163,6.594
	c0.701,0.7,2.949,0.949,3.65,0.375c5.469-4.484,10.711-9.243,16.064-13.869c9.453-8.167,18.951-16.281,28.38-24.475
	c0.889-0.772,1.425-1.95,2.125-2.939c-0.3-0.239-0.599-0.478-0.899-0.716C1562.076,360.428,1544.021,372.037,1525.648,383.849z
	 M1567.821,420.635c9.146-20.019,18.098-39.614,27.049-59.209c-0.484-0.28-0.969-0.561-1.453-0.841
	c-11.621,18.063-23.242,36.127-35.102,54.559C1561.578,417.028,1564.343,418.625,1567.821,420.635z M1685.438,245.404
	c-14.322,16.539-28.357,32.746-42.392,48.953c0.36,0.395,0.722,0.79,1.083,1.185c16.337-14.119,32.674-28.239,49.083-42.419
	C1690.623,250.551,1688.317,248.263,1685.438,245.404z M1643.587,352.956c-0.354,0.381-0.71,0.763-1.064,1.144
	c14.26,16.44,28.521,32.881,42.333,48.805c3.224-2.613,5.853-4.743,8.474-6.868C1676.412,381.385,1660,367.171,1643.587,352.956z
	 M1702.395,383.757c-18.659-11.957-36.726-23.533-54.79-35.109c-0.305,0.436-0.609,0.872-0.914,1.307
	c16.379,14.182,32.758,28.365,49.408,42.783C1698.452,389.381,1700.302,386.741,1702.395,383.757z M1545.865,406.525
	c3.031,2.196,5.868,4.251,8.849,6.411c11.953-18.653,23.711-37.002,35.469-55.352c-0.406-0.289-0.813-0.577-1.22-0.865
	C1574.638,373.274,1560.312,389.83,1545.865,406.525z M1508.22,337.783c21.763-3.195,43.084-6.326,64.406-9.457
	c-0.058-0.39-0.115-0.779-0.172-1.169c-21.746,0-43.492,0-65.689,0C1507.269,330.839,1507.729,334.195,1508.22,337.783z
	 M1682.198,406.446c-14.326-16.534-28.5-32.892-42.674-49.25c-0.432,0.298-0.863,0.596-1.297,0.894
	c11.693,18.229,23.387,36.459,35.116,54.745C1676.147,410.812,1678.79,408.905,1682.198,406.446z M1543.23,403.031
	c14.177-16.408,28.226-32.667,42.274-48.926c-0.381-0.346-0.762-0.691-1.143-1.037c-16.278,14.125-32.557,28.25-48.633,42.199
	C1538.464,398.098,1540.722,400.435,1543.23,403.031z M1719.886,337.646c0.467-3.577,0.898-6.89,1.371-10.519
	c-22.427,0-44.107,0-65.787,0c-0.056,0.422-0.11,0.844-0.166,1.266C1676.637,331.449,1697.97,334.506,1719.886,337.646z"/>
<path fill-rule="evenodd" clip-rule="evenodd" d="M1635.493,478.221c3.273-2.773,6.67-5.65,10.416-8.826
	c3.12,2.072,6.46,4.289,10.234,6.797c-1.575,4.166-3.167,8.381-4.86,12.861c4.294,3.926,8.793,8.037,13.408,12.256
	c3.062-1.295,6.345-2.35,9.276-4.021c2.768-1.578,4.288-0.496,5.8,1.588c4.676,6.445,4.717,6.471-0.588,13.717
	c-2.003,2.734-3.04,5.279-0.218,8.146c1.016,1.031,1.775,2.367,2.46,3.666c4.632,8.777,4.595,8.682,14.373,6.768
	c1.293-0.254,3.588,0.807,4.259,1.943c1.549,2.621,2.385,5.666,3.598,8.762c-2.84,2.1-5.898,4.016-8.488,6.434
	c-1.134,1.059-1.979,3.227-1.792,4.746c0.519,4.188,1.47,8.352,2.655,12.406c0.343,1.174,1.931,2.516,3.167,2.791
	c3.333,0.736,6.783,0.941,10.25,1.363c0.164,0.566,0.38,1.014,0.415,1.477c0.277,3.584,1.911,8.041,0.37,10.502
	c-1.461,2.338-6.348,2.393-9.544,3.854c-1.194,0.547-2.354,2.109-2.68,3.42c-0.668,2.682-0.808,5.504-1.082,8.275
	c-0.471,4.771-0.536,9.217,5.672,10.617c2.151,0.486,4.068,2.012,6.446,3.244c-1.249,4.041-1.334,9.553-4.024,11.543
	c-2.681,1.984-7.976,0.436-12.167,0.436c-2.18,5.225-4.293,10.107-6.208,15.066c-0.311,0.803,0.013,2.08,0.476,2.891
	c0.56,0.979,1.579,1.691,2.403,2.518c6.826,6.834,6.926,7.357,1.213,15.092c-0.629,0.852-2.521,1.4-3.622,1.158
	c-3.623-0.797-7.152-2.023-10.759-3.098c-3.617,4.678-7.213,9.324-11.126,14.383c1.37,2.645,2.619,5.857,4.561,8.578
	c1.987,2.785,1.086,4.578-1.058,6.353c-2.146,1.779-4.372,3.459-7.143,5.639c-7.034-9.4-14.349-6.955-21.651,0.084
	c-1.011,0.973-2.538,1.412-4.013,2.197c0.845,4.461,1.684,8.889,2.693,14.219c-3.908,1.209-8.346,4.156-11.522,3.145
	c-3.516-1.119-5.877-5.861-8.474-8.73c-5.964,1.846-11.549,3.574-17.23,5.332c-0.506,3.928,0.23,9.1-1.984,12.072
	c-1.868,2.506-7.163,2.457-11.442,3.682c-1.449-3.738-2.474-7.184-4.13-10.291c-0.727-1.361-2.689-2.777-4.184-2.887
	c-4.964-0.359-9.97-0.135-15.001-0.135c-1.854,4.305-3.643,8.455-5.385,12.5c-12.295-1.266-12.295-1.266-13.574-15.066
	c-5.057-1.551-10.127-3.299-15.317-4.559c-1.258-0.305-3.364,0.592-4.306,1.637c-7.437,8.252-7.379,8.305-16.846,2.881
	c-2.234-5.238,5.479-10.461-0.725-15.232c-7.48-5.752-15.056-12.388-23.036-0.785c-3.056-2.5-5.769-4.389-8.007-6.73
	c-0.775-0.812-0.906-2.971-0.414-4.125c1.396-3.283,3.264-6.365,5.025-9.674c-1.981-2.406-4.013-4.766-5.919-7.221
	c-1.798-2.318-3.465-4.74-5.312-7.283c-4.178,1.195-8.352,2.391-13.217,3.785c-1.619-2.898-3.907-5.805-4.794-9.088
	c-0.438-1.623,1.298-4.33,2.76-5.877c5.539-5.863,4.745-5.52,2.675-13.266c-2.105-7.877-6.206-10.248-13.613-8.92
	c-3.161,0.564-4.326-1.188-4.672-4.137c-0.317-2.713-1.086-5.373-1.7-8.264c1.451-0.766,3.017-1.631,4.616-2.428
	c7.312-3.646,8.604-6.213,7.047-14.135c-0.062-0.32-0.371-0.635-0.338-0.926c0.886-7.73-4.856-8.973-10.25-9.953
	c-2.988-0.545-3.592-1.949-3.285-4.375c0.387-3.061,0.938-6.102,1.417-9.152c2.385-0.447,4.862-1.539,7.14-1.217
	c5.648,0.805,6.534-2.75,7.193-6.834c0.158-0.975,0.183-1.98,0.432-2.93c2.354-9.004,2.34-8.965-5.05-14.053
	c-2.097-1.443-3.886-2.529-2.46-6.201c3.497-9.01,3.297-9.449,12.713-6.854c3.139,0.865,4.383,0.352,5.645-2.436
	c1.547-3.416,3.18-6.934,5.514-9.809c2.207-2.719,1.04-4.537-0.449-6.518c-1.868-2.484-3.951-4.805-5.921-7.172
	c7.125-9.883,7.125-9.883,19.96-4.623c3.759-3.279,7.638-6.383,11.13-9.873c1.092-1.09,1.8-3.338,1.535-4.857
	c-0.62-3.553-3.53-7.561-2.536-10.307c1.066-2.943,5.542-4.652,8.564-6.928c3.7,3.121,7.215,6.082,10.715,9.033
	c3.553-1.676,6.998-3.494,10.591-4.951c5.44-2.207,6.884-4.826,5.56-10.643c-0.426-1.875-0.629-3.801-0.947-5.789
	c4.355-1.285,8.221-2.424,12.322-3.633c2.216,3.838,4.398,7.619,6.637,11.496c4.221-0.475,8.415-0.846,12.575-1.445
	c3.659-0.527,6.873-1.438,6.952-6.354c0.04-2.469,1.381-4.918,2.2-7.592c1.454,0,2.772,0.004,4.091-0.002
	c8.06-0.039,8.623-0.131,9.819,7.352c0.831,5.197,3.79,6.162,7.856,6.641c3.871,0.453,7.745,0.885,11.766,1.344
	c0.204-0.227,0.635-0.541,0.853-0.965c5.729-11.168,5.726-11.17,17.938-6.717c0,2.062,0.319,4.268-0.058,6.346
	c-1.326,7.314-1.245,7.436,5.49,10.027C1628.574,474.68,1631.721,476.426,1635.493,478.221z M1551.976,501.481
	c5.052,15.766,9.977,31.25,15.055,46.686c0.309,0.936,1.758,1.93,2.814,2.117c7.668,1.359,9.182,0.391,11.691-6.965
	c0.368-1.078,0.779-2.143,1.128-3.229c4.106-12.795,8.205-25.592,12.377-38.609C1580.43,501.481,1566.343,501.481,1551.976,501.481z
	 M1647.249,632.555c4.493-14.027,8.768-27.369,13.167-41.104c-17.642,0-34.396,0-51.091,0c-1.228,3.744-2.391,7.289-3.613,11.018
	C1619.416,612.395,1633,622.235,1647.249,632.555z M1499.898,632.557c11.865-8.646,23.348-16.895,34.693-25.328
	c6.976-5.184,6.976-5.344,4.238-13.086c-0.425-1.199-2.152-2.75-3.291-2.762c-16.112-0.18-32.227-0.123-49.029-0.123
	C1491.037,605.225,1495.374,618.604,1499.898,632.557z M1594.989,670.102c-5.059-15.641-10.016-30.945-14.956-46.256
	c-1.482-4.594-5.292-1.924-8.021-2.559c-2.596-0.604-4.253,0.4-5.116,3.145c-3.272,10.41-6.736,20.76-10.08,31.146
	c-1.549,4.811-2.984,9.658-4.482,14.523C1566.868,670.102,1580.778,670.102,1594.989,670.102z M1605.673,666.93
	c11.623-8.447,22.933-16.668,34.657-25.189c-1.867-1.406-3.404-2.605-4.981-3.748c-10.987-7.955-22.118-15.725-32.88-23.975
	c-2.622-2.01-4.324-1.709-6.497-0.244c-2.013,1.357-3.918,2.875-6.145,4.525C1594.994,634.159,1600.222,650.2,1605.673,666.93z
	 M1548.108,611.489c-13.567,9.861-27.405,19.92-41.566,30.213c12.01,8.674,23.304,16.83,34.91,25.211
	c5.427-16.812,10.604-32.857,15.654-48.5C1553.926,615.965,1551.219,613.881,1548.108,611.489z M1547.888,560.444
	c2.118-1.518,3.583-2.953,5.339-3.744c3.886-1.754,3.909-4.311,2.673-7.898c-4.932-14.318-9.637-28.717-14.603-43.615
	c-11.469,8.352-22.936,16.703-34.652,25.236C1520.749,540.69,1534.311,550.561,1547.888,560.444z M1541.054,569.405
	c-12.958-9.426-26.548-19.312-41.092-29.893c-4.504,13.805-8.833,27.076-13.331,40.859c13.443,0,26.102-0.346,38.73,0.123
	C1533.68,580.805,1541.092,580.944,1541.054,569.405z M1660.417,580.368c-4.496-13.875-8.734-26.955-13.034-40.227
	c-0.949,0.262-1.851,0.277-2.452,0.711c-10.985,7.918-21.942,15.875-32.889,23.846c-6.525,4.752-6.82,5.502-3.862,13.049
	c0.452,1.152,2.282,2.498,3.488,2.51C1627.608,580.424,1643.552,580.368,1660.417,580.368z M1640.426,530.383
	c-11.72-8.508-23.01-16.705-34.767-25.24c-5.452,16.834-10.633,32.834-15.78,48.729c3.293,2.344,6.196,4.41,9.241,6.578
	C1612.813,550.483,1626.469,540.542,1640.426,530.383z M1590.02,586.508c1.139-9.551-8.468-17.562-16.659-17.314
	c-8.867,0.268-16.354,7.703-16.491,16.605c-0.148,9.535,6.815,16.484,17.006,17.34
	C1581.682,603.793,1590.008,594.776,1590.02,586.508z M1598.521,681.399c-16.693,0-33.293,0-50.117,0
	c-0.819,2.428-1.635,4.843-2.614,7.746c18.585,4.926,36.847,5.447,55.329-0.15C1600.115,686.059,1599.336,683.782,1598.521,681.399z
	 M1467.266,591.737c-0.105,0.416-0.304,0.873-0.326,1.338c-0.055,1.162-0.162,2.346-0.02,3.49
	c1.934,15.566,6.676,30.223,14.637,43.754c0.751,1.275,3.869,2.74,4.109,2.48c1.725-1.875,5.441-2.297,3.893-6.717
	c-4.52-12.896-8.439-26.002-12.629-39.014C1474.887,590.725,1474.747,590.676,1467.266,591.737z M1672.261,591.366
	c-5.231,16.104-10.406,32.033-15.581,47.961c1.254,0.982,2.348,1.691,3.26,2.584c2.285,2.236,3.949,2.016,5.234-1.008
	c3.812-8.967,8.285-17.713,11.32-26.934c2.343-7.113,2.906-14.814,4.325-22.604C1677.147,591.366,1674.998,591.366,1672.261,591.366
	z M1466.779,579.795c6.338,1.908,8.801-0.377,10.324-5.643c3.478-12.029,7.393-23.943,11.492-35.779
	c1.93-5.57,2.382-6.771-5.089-9.922C1473.392,544.104,1468.067,561.262,1466.779,579.795z M1663.18,528.336
	c-3.854,1.943-7.418,3.506-5.289,9.391c4.368,12.078,8.081,24.395,12.066,36.613c2.204,6.754,2.554,6.943,9.761,5.363
	C1680.926,567.331,1672.689,541.151,1663.18,528.336z M1548.423,490.374c14.695,0,29.311,0,43.926-0.002c7.16,0,7.16,0,8.548-7.639
	c-18.267-4.832-36.508-4.789-54.997-0.006C1546.739,485.272,1547.541,487.7,1548.423,490.374z M1490.947,653.61
	c11.992,14.562,26.527,25.439,44.29,31.988c2.574-6.947,2.638-7.033-1.671-10.244c-10.217-7.615-20.625-14.979-30.695-22.781
	C1498.439,649.139,1494.767,647.987,1490.947,653.61z M1609.242,493.764c13.822,10.059,27.283,19.855,40.675,29.6
	c1.288-0.777,2.403-1.441,3.507-2.123c1.121-0.691,2.231-1.4,3.469-2.178c-13.136-14.793-27.088-26.27-44.688-32.447
	c-0.47,0.424-0.659,0.512-0.708,0.648C1610.744,489.401,1610.009,491.543,1609.242,493.764z M1656.15,653.305
	c-6.594-4.889-6.484-4.734-12.901,0.082c-9.65,7.24-19.44,14.297-29.253,21.318c-5.01,3.586-5.313,5.076-1.446,10.529
	C1630.06,678.479,1642.713,669.247,1656.15,653.305z M1535.103,486.223c-17.791,7.477-32.626,17.771-44.31,32.609
	c2.564,1.902,4.376,3.246,6.237,4.627c13.669-9.961,27.203-19.824,40.665-29.633C1536.823,491.27,1536.046,488.993,1535.103,486.223
	z"/>
<path fill-rule="evenodd" clip-rule="evenodd" d="M1487.132,485.153c-1.593,2.826-3.191,5.649-4.775,8.481
	c-1.804,3.227-4.561,1.199-6.539,0.749c-8.285-1.886-7.256-0.948-13.406,4.521c-7.27,6.466-4.563,11.271-0.471,17.052
	c0.369,0.522,0.633,1.122,0.783,1.394c-3.051,3.055-5.955,5.965-9.041,9.057c-3.555-2.372-7.443-4.967-11.013-7.348
	c-3.708,2.612-7.038,5.328-10.713,7.442c-3.698,2.128-5.19,4.454-3.371,8.715c0.994,2.327,1.048,5.057,1.501,7.476
	c-14.37,7.722-10.043,6.024-19.533-4.987c-5.549,1.697-11.258,3.442-17.479,5.346c-0.499,4.025-1.04,8.387-1.644,13.248
	c-3.6,0.703-7.531,1.47-11.938,2.329c-3.043-6-3.041-13.588-14.172-13.675c-11.049-0.087-11.546,6.985-14.658,13.433
	c-4.225-0.697-8.311-1.372-12.398-2.046c1.914-11.092-3.422-15.829-13.452-16.886c-1.714-0.181-3.338-1.21-5.078-1.876
	c-2.056,2.635-4.077,5.183-6.051,7.768c-1.64,2.148-3.39,2.825-5.943,1.249c-2.333-1.438-4.929-2.451-7.973-3.925
	c1.679-6.724,4.591-12.569-4.619-18.749c-9.204-6.175-13.317-0.392-19.155,2.957c-2.928-3.117-5.541-5.896-8.551-9.101
	c1.896-3.59,4.061-7.686,6.121-11.586c-3.77-4.716-7.453-9.323-11.301-14.137c-1.778,0.47-3.818,0.92-5.801,1.55
	c-7.74,2.458-7.74,2.482-11.381-4.691c-0.592-1.166-1.098-2.375-2.231-4.846c1.413-1.061,3.319-2.384,5.099-3.859
	c1.664-1.38,3.193-2.922,4.925-4.525c-2-4.86-3.719-9.58-5.922-14.062c-0.663-1.349-2.589-2.704-4.082-2.892
	c-3.416-0.427-6.922-0.135-10.029-0.135c-0.454-0.549-0.591-0.651-0.646-0.787c-3.414-8.484-1.463-14.337,7.953-16.912
	c0.904-0.247,1.824-2.545,1.764-3.845c-0.234-4.922-0.869-9.825-1.387-15.057c-1.666-0.576-3.637-1.262-5.609-1.937
	c-6.792-2.321-8.65-5.449-6.712-12.263c0.36-1.266,2.216-2.524,3.637-2.973c2.308-0.727,5.029-0.32,7.191-1.27
	c1.628-0.715,3.022-2.623,3.845-4.327c0.82-1.699,0.732-3.82,1.158-5.73c1.941-8.714,2.145-9.034-5.538-13.524
	c-3.577-2.091-3.31-4.139-2.116-7.072c0.613-1.509,0.816-3.362,1.84-4.477c1.073-1.168,2.914-2.291,4.406-2.272
	c2.707,0.034,5.387,1.082,8.113,1.381c0.947,0.104,2.018-0.722,2.988-1.21c0.212-0.106,0.193-0.609,0.354-0.889
	c2.674-4.661,5.359-9.316,7.92-13.759c-1.315-1.88-2.429-3.501-3.573-5.101c-1.419-1.982-4.462-4.576-3.981-5.794
	c1.201-3.05,3.77-5.718,6.275-8.009c0.84-0.769,3.357-0.398,4.744,0.239c8.682,3.996,8.648,4.069,15.446-2.73
	c6.537-6.539,6.681-6.603,2.954-14.927c-1.184-2.643-1.012-4.111,1.477-5.594c2.638-1.572,5.08-3.472,8.199-5.639
	c2.939,3.466,5.733,6.762,8.424,9.937c6.324-2.972,11.914-5.598,17.297-8.126c0-4.703,0-9.135,0-13.884
	c3.594-1.082,7.276-2.191,11.283-3.397c1.521,2.543,3.429,4.888,4.414,7.57c1.525,4.157,4.514,3.989,7.818,3.437
	c4.181-0.698,8.343-1.502,12.887-2.328c0.449-2.137,1.043-4.485,1.419-6.868c0.693-4.395,2.719-6.719,7.579-5.809
	c2.082,0.39,4.299,0.065,6.777,0.065c0.937,4.223,1.844,8.309,2.805,12.646c5.962,0.994,12.033,2.007,18.215,3.038
	c2.288-3.765,4.646-7.646,7.219-11.88c3.697,1.213,7.34,2.409,11.143,3.656c0,4.58,0,9.063,0,13.606
	c5.377,2.634,10.618,5.2,17.223,8.435c1.758-2.055,3.721-4.725,6.076-6.986c1.906-1.831,3.898-2.412,6.668-0.364
	c6.95,5.138,7.477,5.099,3.709,13.194c-1.648,3.544-0.856,5.265,1.631,7.394c3.343,2.861,6.535,5.898,10.314,9.335
	c2.521-1.191,5.646-2.542,8.648-4.127c2.335-1.232,3.752-1.225,5.676,1.177c5.643,7.045,6.131,7.175,0.299,13.854
	c-2.945,3.372-2.859,5.67-0.107,8.576c0.338,0.356,0.619,0.775,0.879,1.194c2.103,3.392,3.475,8.394,6.486,9.743
	c3.108,1.393,7.808-0.766,11.795-1.368c6.617,13.851,7.396,9.527-5.899,19.188c0.911,4.547,2.075,9.099,2.691,13.723
	c0.881,6.608,6.463,5.167,10.244,5.734c3.586,0.538,4.862,1.385,4.817,5.069c-0.102,8.285,0.071,8.297-7.676,10.877
	c-1.686,0.562-3.402,1.029-4.892,1.477c-0.508,5.613-1.136,11.008-1.364,16.42c-0.043,1.027,1.283,2.445,2.338,3.123
	c3.058,1.965,7.752,2.943,9.05,5.636c1.248,2.591-0.938,6.84-1.637,10.356c-0.058,0.286-0.276,0.54-0.419,0.807
	c-0.329,0.099-0.637,0.254-0.955,0.277c-4.244,0.313-10.154-0.999-12.354,1.277c-3.457,3.581-4.469,9.555-6.361,14.573
	c-0.229,0.608,0.324,1.699,0.804,2.354c2.257,3.077,4.616,6.08,6.938,9.11C1486.007,485.611,1486.569,485.382,1487.132,485.153z
	 M1360.017,498.712c0-9.638-0.883-18.706,0.203-27.533c1.697-13.788-3.465-23.271-13.275-32.854
	c-8.916-8.711-17.402-13.318-29.899-11.939c-9.476,1.046-19.16,0.208-29.145,0.208c0,8.713-0.089,16.832,0.093,24.946
	c0.028,1.254,1.06,2.713,2.023,3.684c13.709,13.816,27.465,27.588,41.291,41.286c1.064,1.054,2.734,2.069,4.147,2.104
	C1343.412,498.815,1351.376,498.712,1360.017,498.712z M1370.897,498.715c7.807,0,14.945,0.184,22.064-0.115
	c2.045-0.085,4.523-1.059,5.969-2.476c13.658-13.396,27.143-26.968,40.65-40.517c0.907-0.911,2.252-2.03,2.274-3.077
	c0.185-8.567,0.104-17.142,0.104-25.933c-15.006,0-29.301-0.048-43.596,0.082c-1.27,0.012-2.789,0.909-3.749,1.849
	c-7.367,7.215-14.661,14.506-21.87,21.878c-0.932,0.952-1.758,2.502-1.77,3.782C1370.853,468.804,1370.897,483.421,1370.897,498.715
	z M1360.011,344.595c-8.574,0-16.385-0.121-24.187,0.102c-1.571,0.045-3.446,1.052-4.606,2.196
	c-13.729,13.562-27.36,27.222-40.967,40.907c-0.986,0.993-2.205,2.373-2.236,3.601c-0.201,7.934-0.103,15.875-0.103,24.299
	c15.407,0,30.333,0.04,45.258-0.085c1.092-0.009,2.354-1.037,3.231-1.902c7.228-7.121,14.414-14.284,21.521-21.524
	c0.956-0.975,1.986-2.443,1.998-3.692C1360.062,374.058,1360.011,359.618,1360.011,344.595z M1370.896,344.599
	c0,15.302-0.068,29.78,0.102,44.257c0.018,1.557,1.104,3.41,2.246,4.591c6.48,6.698,13.027,13.342,19.802,19.739
	c1.478,1.396,3.956,2.373,5.999,2.419c10.483,0.239,20.977,0.11,31.465,0.111c3.753,0,7.506-0.001,11.503-0.001
	c0-8.718,0.106-16.696-0.101-24.667c-0.036-1.407-1.109-3.054-2.171-4.126c-13.235-13.368-26.538-26.67-39.896-39.916
	c-1.085-1.077-2.685-2.264-4.074-2.301C1387.661,344.488,1379.544,344.599,1370.896,344.599z M1381.017,421.652
	c0.525-10.459-7.675-16.742-15.97-16.796c-8.196-0.052-16.007,7.08-16.255,16.282c-0.244,9.087,8.281,16.541,15.984,16.579
	C1373.944,437.764,1381.017,430.778,1381.017,421.652z M1442.008,470.902c-9.323,9.313-18.622,18.603-27.834,27.805
	c7.218,0,14.993,0.316,22.708-0.234c1.815-0.129,4.764-3.088,4.893-4.908C1442.324,485.854,1442.008,478.08,1442.008,470.902z
	 M1315.433,498.708c-9.229-9.23-18.51-18.515-27.533-27.54c0,6.82-0.35,14.453,0.239,22.012c0.153,1.961,3.134,5.13,5.009,5.276
	C1300.833,499.059,1308.593,498.708,1315.433,498.708z M1287.901,371.866c9.188-9.168,18.154-18.115,27.304-27.245
	c-7.753,0-15.662-0.202-23.541,0.198c-1.322,0.067-3.519,2.697-3.593,4.228C1287.698,356.652,1287.901,364.285,1287.901,371.866z
	 M1441.991,372.01c0-7.825,0.178-15.725-0.174-23.6c-0.059-1.318-2.361-3.567-3.706-3.627c-7.858-0.347-15.741-0.171-23.497-0.171
	C1423.835,353.84,1432.788,362.8,1441.991,372.01z M1470.157,440.828c-6.012,6.034-11.162,11.186-16.277,16.37
	c-0.435,0.439-0.9,1.106-0.905,1.671c-0.061,7.331-0.04,14.662-0.04,22.989C1461.788,469.071,1467.075,456.132,1470.157,440.828z
	 M1424.329,333.694c-11.643-8.565-24.101-14.321-38.123-16.695c4.885,5.469,10.037,10.603,15.247,15.677
	c0.537,0.522,1.419,0.968,2.146,0.975C1410.509,333.724,1417.419,333.694,1424.329,333.694z M1470.048,401.497
	c-2.895-15.17-8.537-27.713-16.668-39.302c-0.479,6.845-0.518,13.594-0.435,20.341c0.011,0.893,0.407,1.999,1.016,2.63
	C1459.001,390.387,1464.133,395.519,1470.048,401.497z M1344.91,316.454c-15.146,3.225-27.929,8.225-40.29,17.259
	c7.717,0,14.194,0.045,20.67-0.045c1.062-0.015,2.41-0.315,3.13-1.003C1333.681,327.64,1338.815,322.481,1344.91,316.454z
	 M1277.015,480.815c0-7.388,0.022-13.863-0.025-20.34c-0.008-0.943-0.031-2.198-0.594-2.777c-4.888-5.024-9.9-9.928-15.277-15.266
	C1260.831,451.064,1269.705,472.438,1277.015,480.815z M1423.336,509.612c-6.888,0-13.776-0.028-20.663,0.041
	c-0.73,0.008-1.628,0.413-2.156,0.931c-4.832,4.732-9.6,9.531-14.387,14.311C1399.952,523.15,1412.267,518.195,1423.336,509.612z
	 M1305.683,509.595c9.671,7.879,31.305,16.522,38.551,15.325c-5.066-4.926-9.755-9.594-14.602-14.092
	c-0.84-0.779-2.344-1.159-3.551-1.18C1319.615,509.535,1313.146,509.595,1305.683,509.595z M1277.015,361.87
	c-7.91,9.117-16.785,31.138-15.16,37.956c4.74-4.904,9.301-9.488,13.664-14.253c0.881-0.961,1.4-2.597,1.432-3.937
	C1277.097,375.327,1277.015,369.012,1277.015,361.87z M1453.119,415.426c5.141,0,9.7,0,13.515,0
	c-4.502-4.386-9.223-8.985-13.515-13.167C1453.119,405.986,1453.119,410.576,1453.119,415.426z M1359.775,509.998
	c-5.049,0-9.702,0-13.646,0c4.453,4.5,9.049,9.146,13.646,13.79C1359.775,519.457,1359.775,514.891,1359.775,509.998z
	 M1359.684,333.628c0-5.101,0-9.766,0-12.854c-4.071,4.028-8.757,8.666-12.989,12.854
	C1350.216,333.628,1354.694,333.628,1359.684,333.628z M1384.759,333.618c-4.646-4.562-9.35-9.18-13.459-13.214
	c0,3.715,0,8.429,0,13.214C1376.182,333.618,1380.659,333.618,1384.759,333.618z M1263.317,426.82
	c4.458,4.567,9.018,9.238,13.346,13.673c0-4.222,0-8.915,0-13.673C1271.739,426.82,1267.169,426.82,1263.317,426.82z
	 M1468.079,427.02c-5.329,0-10.098,0-14.743,0c0,4.912,0,9.554,0,14.47C1458.333,436.586,1462.954,432.05,1468.079,427.02z
	 M1262.82,415.355c5.188,0,9.555,0,13.727,0c0-4.658,0-8.941,0-13.605C1271.858,406.396,1267.611,410.606,1262.82,415.355z
	 M1371.11,523.05c4.502-4.507,8.78-8.792,13.148-13.166c-4.238,0-8.585,0-13.148,0C1371.11,514.416,1371.11,518.674,1371.11,523.05z
	"/>
<path fill-rule="evenodd" clip-rule="evenodd" d="M1482.918,255.023c-4.014,2.763-7.792,5.645-11.849,8.058
	c-2.658,1.582-3.92,2.861-2.456,6.199c1.206,2.75,1.324,5.977,1.975,9.242c-3.53,1.784-7.154,3.617-10.962,5.542
	c-2.447-2.748-4.667-5.619-7.31-8.026c-1.099-1-3.223-1.634-4.667-1.35c-3.98,0.784-7.945,1.897-11.71,3.399
	c-1.354,0.54-2.719,2.437-3.029,3.932c-0.719,3.469-0.799,7.071-1.133,10.568c-4.417,0.548-8.289,1.027-12.193,1.512
	c-1.771-4.358-3.41-8.39-5.034-12.387c-5.93,0-11.817,0-18.209,0c-1.605,3.724-3.336,7.74-5.301,12.299
	c-3.188-0.355-7.193,0.103-10.12-1.459c-1.837-0.979-3.062-5.099-2.798-7.625c0.611-5.854-2.434-7.197-7.164-8.062
	c-3.638-0.665-7.117-2.194-10.864-3.403c-2.795,3.4-5.788,7.041-8.807,10.713c-3.734-1.891-7.081-3.585-10.821-5.479
	c0.47-2.427,0.579-5.079,1.517-7.395c1.873-4.626,0.174-7.184-3.897-9.39c-3.562-1.931-6.745-4.564-10.265-7.004
	c-1.703,1.203-3.403,2.454-5.154,3.629c-6.461,4.338-6.295,4.142-12.144-1.269c-2.82-2.608-2.866-4.7-0.888-7.616
	c1.637-2.412,2.933-5.056,4.27-7.404c-3.065-4.02-6.072-7.7-8.776-11.589c-2.203-3.167-4.769-2.615-7.761-1.574
	c-8.042,2.8-10.328,1.765-12.859-6.198c-0.388-1.22,0.63-3.373,1.658-4.479c6.938-7.469,6.976-7.406,2.977-16.862
	c-1.008-2.383-1.839-4.841-2.873-7.587c-2.37,0-4.889-0.27-7.327,0.058c-4.584,0.617-7.227-0.732-7.429-5.752
	c-0.084-2.067-0.762-4.11-1.202-6.326c2.164-1.086,4.205-2.093,6.229-3.132c1.896-0.973,3.776-1.979,5.791-3.037
	c-0.532-5.984-1.068-12.023-1.615-18.172c-4.134-1.317-8.274-2.636-12.814-4.083c0.427-3.863,0.854-7.73,1.348-12.208
	c4.14-0.834,8.555-1.724,13.25-2.669c0.801-4.076,1.046-8.617,2.657-12.607c1.641-4.065-0.09-5.989-2.808-8.116
	c-6.628-5.188-6.607-5.211-3.889-12.917c0.317-0.898,0.586-1.814,0.925-2.871c2.108,0,4.13-0.247,6.071,0.043
	c7.824,1.17,7.788,1.217,11.578-5.529c1.752-3.119,3.631-6.167,5.407-9.169c-2.739-3.564-5.539-7.206-8.352-10.866
	c2.507-3.131,4.96-6.194,7.476-9.336c1.164,0.299,2.712,0.245,3.576,0.987c7.725,6.643,12.993,2.659,17.934-3.799
	c1.262-1.649,3.098-2.86,4.696-4.294c-1.626-4.135-3.275-8.329-4.887-12.427c9.939-7.594,9.939-7.594,20.168,1.883
	c3.59-1.825,7.074-3.906,10.791-5.422c6.271-2.558,7.478-4.188,5.809-10.522c-0.72-2.728-1.824-5.564,1.821-6.286
	c3.894-0.77,8.401-5.614,11.881,0.814c0.231,0.429,0.396,0.894,0.602,1.338c2.141,4.635,4.717,7.983,10.781,5.647
	c2.663-1.026,5.899-0.479,8.711-1.249c1.341-0.367,2.865-1.952,3.314-3.312c1.069-3.238,1.547-6.671,2.317-10.276
	c3.982,0,7.928,0,12.372,0c1.165,4.278,2.391,8.777,3.541,13.003c5.3,0.89,10.428,1.866,15.596,2.523
	c1.06,0.135,2.439-0.72,3.361-1.49c0.833-0.697,1.271-1.884,1.834-2.884c4.07-7.24,7.809-8.391,14.408-3.387
	c1.474,1.118,1.854,5.212,1.121,7.395c-1.61,4.799,0.152,6.934,4.337,8.544c4.067,1.566,7.979,3.541,12.579,5.617
	c1.636-1.77,3.738-3.909,5.683-6.183c2.369-2.77,4.616-3.355,7.51-0.56c1.732,1.673,3.982,2.811,6.345,4.426
	c-0.639,1.906-1.286,3.848-1.94,5.787c-2.454,7.274-1.743,9.273,4.521,13.832c2.219,1.614,4.21,3.539,6.474,5.466
	c3.772-1.654,8.054-3.531,12.202-5.35c0.505,0.378,0.844,0.525,1.022,0.783c2.085,3.015,5.757,6.051,5.748,9.073
	c-0.008,2.877-4.165,5.578-5.888,8.693c-0.718,1.299-0.25,3.63,0.386,5.208c0.839,2.084,2.426,3.858,3.593,5.824
	c1.172,1.973,2.223,4.018,3.581,6.493c4.275-0.4,8.827-0.827,13.407-1.256c0.379,0.58,0.712,0.921,0.851,1.329
	c1.125,3.303,3.688,7.043,2.89,9.806c-0.765,2.646-5.186,4.113-7.685,6.437c-1.032,0.96-1.921,2.912-1.708,4.224
	c0.806,4.969,2.09,9.859,3.245,15.005c4.132,0.797,8.568,1.653,13.031,2.514c0.534,4.216,1.024,8.089,1.45,11.448
	c-4.063,3.952-11.526,1.132-13.009,7.636c-1.049,4.601-2.376,10.209-0.653,14.059c1.619,3.617,7.076,5.518,11.273,8.476
	c-0.095-0.332,0.15,0.038,0.06,0.28c-1.356,3.606-1.793,8.709-4.41,10.379c-2.834,1.808-7.714,0.41-11.877,0.41
	c-1.025,3.114-1.888,6.058-2.968,8.918c-1.033,2.736-2.295,5.387-3.842,8.97c2.257,2.086,4.988,4.262,7.238,6.854
	c0.952,1.098,1.645,3.355,1.174,4.604c-3.073,8.161-4.216,8.715-12.555,5.805c-3.856-1.346-6.164-0.838-8.356,2.961
	c-2.025,3.511-5.202,6.358-8.219,9.905c1.234,2.234,2.398,4.913,4.067,7.228c2.562,3.554,1.381,5.778-1.304,8.838
	c-3.619,4.125-6.613,4.545-10.647,1.024C1487.099,257.43,1484.878,256.306,1482.918,255.023z M1475.495,238.127
	c-15.674-15.687-30.851-30.859-46.003-46.055c-2.76-2.768-5.594-4.992-9.888-3.461c-5.097,1.817-6.838,5.62-6.83,10.692
	c0.032,20.149,0.01,40.299,0.022,60.448c0.001,1.297,0.136,2.594,0.239,4.433C1436.676,262.217,1457.069,253.513,1475.495,238.127z
	 M1397.902,264.278c0-23.237,0.097-45.693-0.162-68.145c-0.023-2.046-1.875-4.662-3.646-5.98c-4.511-3.358-8.318-2.599-12.969,2.031
	c-14.398,14.337-28.751,28.72-43.104,43.104c-0.887,0.889-1.613,1.938-2.457,2.963
	C1353.57,253.634,1374.039,262.015,1397.902,264.278z M1485.975,87.368c-16.045,16.03-31.6,31.495-47.01,47.104
	c-1.237,1.254-1.941,3.457-2.092,5.285c-0.538,6.565,3.832,10.286,11.949,10.307c17.797,0.046,35.594,0.015,53.391,0.015
	c3.113,0,6.228,0,9.988,0C1509.965,126.174,1501.383,105.742,1485.975,87.368z M1299.189,149.822
	c1.107,0.084,2.237,0.245,3.367,0.246c20.127,0.015,40.254-0.005,60.382,0.023c4.853,0.007,8.699-1.627,10.63-6.342
	c1.898-4.638-0.368-8.002-3.539-11.156c-13.915-13.843-27.771-27.746-41.66-41.615c-1.13-1.128-2.352-2.165-3.527-3.241
	C1306.971,107.38,1299.033,134.295,1299.189,149.822z M1512.157,164.961c-23.186,0-45.45-0.176-67.704,0.245
	c-2.515,0.047-6.238,3.014-7.097,5.441c-0.896,2.533-0.035,7.044,1.832,8.983c15.438,16.031,31.286,31.665,47.198,47.606
	C1501.276,209.047,1510.105,188.827,1512.157,164.961z M1324.365,227.062c15.645-15.641,30.988-31.107,46.511-46.394
	c3.177-3.129,4.214-6.392,2.66-10.416c-1.572-4.071-4.764-5.372-9.032-5.347c-19.796,0.116-39.592,0.051-59.388,0.051
	c-1.96,0-3.921,0-6.377,0C1300.627,188.637,1309.273,208.9,1324.365,227.062z M1474.988,76.431
	c-18.199-14.977-38.467-23.677-62.178-25.572c0,22.543-0.097,44.504,0.088,66.463c0.034,4.009,2.445,7.726,6.457,8.284
	c2.811,0.391,6.806-0.682,8.805-2.617C1443.838,107.808,1459.161,92.26,1474.988,76.431z M1335.628,76.467
	c15.602,15.572,30.812,30.695,45.938,45.9c3.023,3.039,6.193,4.958,10.496,3.019c4.205-1.895,5.938-5.148,5.906-9.846
	c-0.139-19.956-0.054-39.912-0.069-59.869c-0.002-1.455-0.154-2.91-0.263-4.837C1374.158,52.822,1353.911,61.543,1335.628,76.467z
	 M1420.902,157.304c-0.209-7.508-8.473-15.546-15.728-15.299c-7.355,0.251-15.603,8.697-15.338,15.708
	c0.278,7.376,8.727,15.603,15.727,15.315C1412.934,172.726,1421.099,164.356,1420.902,157.304z"/>
<path fill-rule="evenodd" clip-rule="evenodd" d="M137.676-606.576c11.68-19.301,23.059-38.105,34.871-57.617
	c18.812,5.465,37.215,10.812,55.168,16.023c9.262,24.793-12.336,56.055,12.152,74.344c20.41,15.238,46.793,22.496,76.922,36.191
	c4.195-5.895,9.48-14.438,15.852-22.07c16.172-19.355,30.574-25.074,55.75-7.301c22.727,16.043,24.078,28.445,12.23,49.234
	c-10.715,18.809-10.664,32.082,7.68,51.352c29.656,31.164,55.551,51.348,96.254,21.543c3.148-2.305,7.387-3.125,13.32-5.527
	c10.164,12.199,21.613,24.082,30.551,37.629c3.234,4.902,3.457,17.156-0.074,20.309c-30.957,27.637-33.539,52.801-7.383,88.371
	c26.238,35.676,22.383,40.172,71.516,27.262c14.363-3.773,17.762,1.27,21.625,10.621c18.496,44.766,18.34,44.762-22.227,71.969
	c-6,4.023-11.457,8.855-16.871,13.078c7.184,30.574,14.195,60.445,21.074,89.754c17.152,2.387,32.492,5.16,47.949,6.488
	c15.09,1.297,22.078,7.652,20.836,23.555c-1.098,14.02-0.23,28.188-0.23,42.598c-21.68,6.875-42.418,13.445-62.434,19.793
	c-2.539,26.805-5.836,52.941-6.891,79.168c-0.25,6.074,5.719,14.812,11.316,18.23c14.641,8.918,30.656,15.566,49.297,24.672
	c-4.102,19.441-8.379,39.755-12.523,59.423c-3.148,0.902-4.699,1.645-6.289,1.762c-21.207,1.586-50.742-4.926-61.715,6.461
	c-17.266,17.922-22.422,47.742-31.656,72.91c-1.242,3.391,2.5,10.125,5.816,13.418c13.57,13.461,27.867,26.191,42.074,39.355
	c-9.156,16.133-15.5,30.547-24.965,42.484c-4.102,5.176-14.516,5.902-22.305,7.367c-3.68,0.695-8.008-1.387-11.91-2.633
	c-39.539-12.602-34.82-7.609-63.93,19.707c-39.297,36.883-23.367,65.496,2.633,97.07c-15.711,15.285-29.984,29.168-45.289,44.051
	c-2.867-1.359-6.539-2.77-9.883-4.746c-16.699-9.875-36.41-31.055-49.289-27.477c-24.582,6.82-45.703,27.125-67.137,43.32
	c-4.223,3.191-4.539,13.109-4.516,19.918c0.023,6.316,3.504,12.539,4.402,18.953c1.559,11.105,7.344,27.777,2.359,32.395
	c-11.473,10.617-27.883,16.902-43.305,21.738c-5.508,1.723-15.625-4.168-20.648-9.434c-11.211-11.758-20.539-25.32-31.27-38.957
	c-27.957,9-56.379,18.148-87.16,28.062c-2.113,19.762-4.375,40.887-6.992,65.375c-17.66,3.332-37.242,7.027-59.68,11.262
	c-7.266-16.379-13.68-33.836-22.73-49.797c-3.844-6.773-13.195-10.438-20.113-15.418c-0.547-0.398-1.641,0.047-2.461-0.074
	c-51.742-7.465-93.418,0.965-96.695,65.516c-24.066-4.09-43.867-7.449-63.188-10.734c-2.539-23.688-4.887-45.578-7.086-66.105
	c-30.125-9.746-57.898-18.727-85.965-27.801c-6.191,6.844-13.48,13.418-18.996,21.242c-28.598,40.598-28.367,29.676-61.059,15.281
	c-15.832-6.969-23.691-13.805-15.117-32.852c5.781-12.848,5.559-28.406,8.184-43.719c-21.281-14.98-42.832-31.082-65.516-45.371
	c-4.898-3.078-15.094-1.836-20.789,1.238c-15.707,8.469-30.328,18.969-44.305,27.973c-14.875-14.883-28.824-28.844-43.926-43.957
	c1.254-2.539,3.707-7.512,6.172-12.48c24.141-48.527,22.031-46.859-12.93-91.184c-17.457-22.137-34.367-25.406-55.613-14.57
	c-24.859,12.68-37.75,4.863-46.277-19.344c-2.902-8.23-9.125-15.285-14.77-24.383c17.062-15.527,34.207-31.117,50.562-46
	c-7.176-17.262-15.035-30.156-17.848-44.078c-7.605-37.594-29.121-51.379-66.012-43.82c-5.531,1.133-11.5,0.156-18.578,0.156
	c-0.93-3.723-1.727-6.625-2.379-9.559c-11.316-50.798-11.129-50.454,34.805-75.29c6.48-3.5,14.488-12.348,14.332-18.539
	c-0.641-26.234-4.098-52.398-6.664-80.043c-19.465-6.203-40.184-12.793-60.895-19.367c-0.387-0.711-1.098-1.453-1.098-2.191
	c0.422-73.434-14.492-58.008,67.191-70.559c7.156-27.355,15-55.332,21.258-83.656c0.836-3.773-5.543-10.32-9.957-13.871
	c-14.578-11.719-29.793-22.652-44.973-34.043c8.262-20.41,15.789-39.008,23.254-57.457c18.898,3.551,35.535,8.176,52.371,9.113
	c6.809,0.375,16.012-5.742,20.699-11.633c8.035-10.102,13.402-22.34,19.859-33.695c20.633-36.289,21.469-37.086-7.074-67.551
	c-12.488-13.332-18.32-22.738-1.418-36.059c5.555-4.379,8.922-11.59,13.125-17.621c9.348-13.418,19.66-13.227,33.805-5.871
	c41.055,21.363,41.316,20.711,73.215-11.02c10.445-10.387,21.254-20.406,33.461-32.09c-5.074-14.352-9.23-31.152-16.844-46.207
	c-7.086-14.004-1.797-20.246,9.035-27.777c37.5-26.055,37.289-26.336,70.742,6.793c4.699,4.652,9.547,9.16,14.281,13.688
	c24.391-10.945,48.52-20.871,71.617-32.789c5.391-2.785,9.801-12.145,10.312-18.812c1.406-18.164,0.484-36.512,0.484-56.051
	c19.121-5.562,37.539-10.918,56.945-16.562c11.699,19.137,23.555,38.531,35.762,58.5c14.812-2.977,29.75-6.559,44.871-8.906
	c45.797-7.105,47.266-6.617,56.305-50.301c3.34-16.172,8.902-20.188,23.953-20.246c41.57-0.164,42.484-0.918,51.578,40.656
	c4.879,22.309,17.016,29.652,38.688,30.105C97.723-613.908,117.012-609.435,137.676-606.576z M-409.98-342.396
	c-189.234,231.422-140.266,526.071-1.016,676.442c40.57-40.664,80.512-81.938,121.852-121.762
	c37-35.641,61.766-78.044,76.648-126.743c27.383-89.621,15.922-176.652-37.625-250.812
	C-296.281-229.212-355.906-283.435-409.98-342.396z M-336.488,411.019c174.797,149.965,462.719,177.238,674.781-0.953
	c-33.066-32.977-66.383-65.617-99.023-98.914c-36.605-37.336-76.469-70.312-125.5-89.664
	c-100.387-39.625-198.512-31.766-284.156,33.129C-230.214,299.956-280.656,357.683-336.488,411.019z M-337.765-414.556
	c39.121,39.004,77.355,75.977,114.273,114.219c50.559,52.371,109.488,85.957,182.949,96.645
	c80.277,11.684,153.195-5.727,214.781-54.68c53.711-42.688,100.027-94.695,149.484-142.707c4.527-4.391,8.164-9.695,12.211-14.57
	C144.504-573.068-136.621-577.591-337.765-414.556z M414.583-337.912c-44.859,44.945-88.328,88.383-131.668,131.953
	c-84.676,85.113-108.309,221.246-54.918,332.343c41.84,87.067,123.516,138.181,183.379,209.47
	C541.911,189.8,603.821-96.466,414.583-337.912z M-0.406-85.396c-41.789-1.148-82.711,37.969-84.586,85.312
	c-1.664,41.883,43.605,85.667,85.301,85.199c42.41-0.472,86.852-44.14,84.578-85.914C82.231-49.615,40.227-87.064-0.406-85.396z"/>
</svg>