<?xml version="1.0" encoding="utf-8"?>
<!-- Generator: Adobe Illustrator 16.0.0, SVG Export Plug-In . SVG Version: 6.00 Build 0)  -->
<!DOCTYPE svg PUBLIC "-//W3C//DTD SVG 1.1//EN" "http://www.w3.org/Graphics/SVG/1.1/DTD/svg11.dtd">
<svg version="1.1" id="Layer_1" xmlns="http://www.w3.org/2000/svg" xmlns:xlink="http://www.w3.org/1999/xlink" x="0px" y="0px"
	 width="1600px" height="600px" viewBox="0 0 1600 600" enable-background="new 0 0 1600 600" xml:space="preserve">
<path d="M1527.967-35.917c-3.049-11.494-3.008-11.422,6.404-16.906c1.27-0.739,2.613-2.617,2.637-3.988
	c0.066-4.084-0.221-8.232-0.973-12.242c-0.299-1.594-1.9-3.652-3.387-4.199c-10.25-3.777-10.291-3.667-9.129-15.21
	c0.096-0.132,0.199-0.384,0.285-0.378c12.02,0.761,15.605-6.413,16.621-16.823c0.25-2.557,0.143-3.962-1.748-5.336
	c-9.234-6.709-9.236-6.709-4.09-16.915c1.881,0,3.924-0.326,5.824,0.057c7.502,1.508,7.57,1.514,11.17-5.053
	c1.721-3.141,3.619-6.182,5.562-9.475c-2.156-2.896-4.562-5.797-6.539-8.967c-0.654-1.051-0.787-3.176-0.148-4.141
	c1.801-2.713,4.125-5.078,6.324-7.677c3.945,1.951,7.75,3.831,11.699,5.783c4.008-3.515,8.201-6.935,12.021-10.729
	c0.904-0.896,0.762-3.052,0.723-4.62c-0.025-1.084-0.779-2.131-1.064-3.231c-0.594-2.3-2.299-5.528-1.381-6.752
	c1.971-2.629,5.254-4.321,8.15-6.163c0.5-0.319,1.861,0.326,2.594,0.852c1.068,0.768,1.959,1.8,2.867,2.773
	c3.326,3.566,6.934,5.329,11.422,1.92c0.133-0.1,0.268-0.227,0.42-0.268c7.873-2.082,11.559-6.57,10.094-15.217
	c-0.926-5.467,4.74-4.239,7.635-5.405c1.32-0.532,4.531,0.384,4.977,1.442c3.537,8.428,9.232,10.243,17.396,6.893
	c1.707-0.701,3.949-0.102,6.277-0.102c0.859-3.539,2.084-6.93,2.412-10.406c0.307-3.259,1.896-3.66,4.58-3.701
	c8.523-0.135,8.52-0.209,10.521,7.967c0.459,1.879,0.938,3.755,1.361,5.465c5.059,0.868,10.018,2.008,15.035,2.414
	c1.59,0.128,3.381-1.633,4.982-2.678c0.471-0.307,0.6-1.132,0.898-1.713c3.619-7.092,7.758-8.188,14.25-3.436
	c0.971,0.711,1.496,2.836,1.311,4.18c-0.932,6.806,0.992,10.969,8.109,13.613c8.754,3.254,8.539,4.027,15.438-2.705
	c1.939-1.895,3.457-2.932,5.775-0.539c1.096,1.129,2.766,1.689,4.143,2.56c2.666,1.685,3.459,3.792,1.699,6.697
	c-0.746,1.232-0.9,2.812-1.586,4.095c-2.023,3.791-0.822,6.008,2.711,8.313c3.42,2.231,6.119,5.569,9.258,8.537
	c1.873-0.907,3.76-1.806,5.635-2.731c1.906-0.941,3.799-1.91,6.355-3.197c2.15,2.775,4.525,5.605,6.57,8.656
	c0.473,0.705,0.166,2.389-0.379,3.236c-1.947,3.025-4.15,5.886-6.387,8.988c2.535,4.357,4.754,9.197,7.992,13.21
	c1.271,1.575,4.814,1.532,7.367,1.792c2.361,0.238,6.035-1.107,6.928,0.009c2.158,2.696,3.148,6.381,4.303,9.771
	c0.182,0.534-1.115,1.778-1.943,2.41c-2.854,2.172-5.803,4.217-8.627,6.247c0.965,4.809,1.855,9.416,2.826,14.006
	c0.643,3.039,2.602,4.584,5.699,4.878c2.92,0.276,5.822,0.724,8.836,1.108c0.141,0.838,0.326,1.473,0.344,2.111
	c0.285,10.658,0.252,10.568-10.105,13.783c-1.219,0.379-2.541,2.313-2.75,3.689c-0.645,4.209-0.971,8.496-0.969,12.753
	c0.002,1.243,1.262,2.846,2.395,3.655c3,2.146,7.65,3.283,8.979,6.084c1.221,2.568-1.041,6.787-1.854,10.689
	c-1.846,0-3.703,0.277-5.445-0.051c-6.072-1.146-8.811,1.455-11.051,7.151c-2.744,6.976-4.758,12.794,3.461,17.186
	c0.959,0.513,1.592,1.641,2.504,2.622c-1.068,1.925-2.074,3.779-3.127,5.605c-0.969,1.68-1.99,3.33-3.072,5.133
	c-4.295-1.229-8.475-2.426-12.941-3.705c-3.27,4.132-6.715,8.237-9.809,12.594c-0.703,0.995-0.676,3.074-0.141,4.28
	c1.385,3.116,3.24,6.022,5.172,9.481c-2.785,2.434-5.449,5.093-8.502,7.187c-0.734,0.505-2.912-0.616-4.162-1.407
	c-8.211-5.188-8.146-5.176-15.98,0.818c-2.186,1.67-4.666,2.949-7.287,4.578c0.875,3.459,1.979,6.86,2.488,10.348
	c0.188,1.276-0.65,3.351-1.693,4.03c-2.705,1.764-5.783,2.956-8.914,4.474c-2.389-2.988-4.418-5.965-6.93-8.455
	c-0.963-0.954-3.104-1.278-4.572-1.049c-3.041,0.475-5.953,1.808-8.996,2.256c-5.373,0.791-6.895,4.103-6.686,8.934
	c0.094,2.135,0.016,4.277,0.016,6.4c-3.066,0.566-5.754,1.187-8.475,1.531c-2.756,0.349-5.34,0.357-5.775-3.539
	c-0.193-1.719-0.883-3.668-2.006-4.922c-1.338-1.491-3.297-2.537-5.16-3.402c-0.959-0.445-2.318,0.07-3.459-0.103
	c-7.93-1.197-13.766,0.603-15.338,9.708c-0.174,1.002-2.988,2.175-4.574,2.17c-2.881-0.01-5.758-0.848-8.656-1.342
	c-1.934-4.719,2.48-11.645-4.721-14.457c-4.232-1.654-9.1-4.414-12.951-3.524c-3.715,0.858-6.494,5.769-9.875,9.085
	c-10.951-3.131-10.951-3.131-8.434-18.252c-4.131-2.764-8.396-5.468-12.486-8.416c-1.959-1.411-3.363-1.558-5.488-0.115
	c-9.371,6.362-9.426,6.281-17.484-2.566c0.793-1.631,1.49-3.454,2.502-5.082c4.338-6.976,3.459-6.404-0.557-13.057
	c-5.432-8.999-11.939-8.201-19.732-4.128c-2.25-3.879-4.277-7.372-6.859-11.821c2.123-1.767,4.061-4.012,6.504-5.262
	c3.564-1.824,4.289-3.924,2.188-7.208c-0.25-0.39-0.195-0.963-0.383-1.408c-1.689-4.018-2.365-9.55-5.396-11.602
	C1537.484-37.481,1532.119-35.917,1527.967-35.917z M1652.225-178.824c-36.902,0.369-78.107,29.48-90.432,65.764
	c19.877,0,39.689,0.004,59.504-0.002c6.123-0.002,10.195-2.828,12.145-8.71C1639.695-140.623,1645.869-159.498,1652.225-178.824z
	 M1668.062-178.913c6.414,19.704,12.662,39.062,19.043,58.374c1.441,4.363,6.35,7.465,11.139,7.473
	c11.324,0.02,22.648,0.006,33.975,0.006c8.76,0,17.518,0,26.434,0C1744.359-151.656,1703.734-178.097,1668.062-178.913z
	 M1763.848-97.375c-1.014,0.463-1.488,0.592-1.863,0.862c-15.629,11.273-31.291,22.504-46.842,33.888
	c-3.264,2.39-6.016,5.545-5.029,10.062c1.07,4.904,2.416,9.766,3.926,14.556c4.785,15.183,9.703,30.323,15.105,47.149
	c15.385-14.209,26.529-29.777,32.566-48.535C1767.793-58.295,1769.539-77.615,1763.848-97.375z M1557.113-97.311
	c-14.525,23.958,6.627,88.991,33.805,104.821c0.248-0.223,0.637-0.399,0.727-0.674c6.18-18.715,12.453-37.4,18.41-56.186
	c1.463-4.608,0.229-9.049-3.824-12.215c-2.318-1.811-4.771-3.447-7.148-5.18C1585.098-76.923,1571.117-87.11,1557.113-97.311z
	 M1715.385,17.772c-14.857-10.858-29.432-21.375-43.854-32.098c-8.439-6.277-14.279-6.419-22.637-0.162
	c-6.936,5.19-13.982,10.225-20.969,15.344c-7.701,5.642-15.391,11.301-23.24,17.068
	C1637.643,40.247,1686.506,38.537,1715.385,17.772z M1660.119-58.06c8.908,0,15.084-6.209,15.061-15.143
	c-0.021-7.637-7.701-15.154-15.305-14.977c-7.504,0.176-14.795,7.538-14.816,14.964C1645.027-64.354,1651.285-58.06,1660.119-58.06z
	"/>
<path d="M1567.225,319.281c-3.855-1.941-7.35-3.699-11.047-5.561c0.863-4.471,1.717-8.885,2.525-13.068
	c-4.318-3.054-8.346-6.127-12.633-8.782c-1.193-0.739-3.447-0.816-4.713-0.187c-3.037,1.515-5.877,5.225-8.607,5.052
	c-2.746-0.175-5.256-3.98-7.891-6.167c-0.482-0.4-1.072-0.671-1.875-1.161c1.426-2.458,2.664-4.938,4.221-7.198
	c2.449-3.557,1.615-6.143-0.936-9.571c-4.98-6.693-9.797-11.918-18.82-6.556c-0.664,0.395-2.814-0.587-3.461-1.503
	c-1.859-2.646-3.303-5.583-5.068-8.688c3.33-3.109,6.57-6.135,9.959-9.298c-1.855-4.876-3.662-10.076-5.883-15.093
	c-0.482-1.095-2.398-2.059-3.734-2.176c-3.457-0.305-6.959-0.103-10.58-0.103c-0.844-3.34-2.045-6.425-2.211-9.564
	c-0.07-1.326,1.764-3.444,3.209-4.036c5.66-2.318,9.311-4.445,7.812-12.339c-1.912-10.078-0.854-10.281-10.697-13.742
	c-0.758-0.267-1.541-0.456-2.289-0.675c-0.109-0.369-0.275-0.684-0.287-1.001c-0.328-10.297-0.35-10.396,9.715-12.845
	c3.438-0.836,5.756-2.135,5.23-6.135c-0.062-0.488-0.021-1.006,0.061-1.495c0.645-3.853,2.857-8.379,1.551-11.369
	c-1.422-3.245-6.111-5.059-9.783-7.801c1.377-3.395,2.834-6.985,4.359-10.74c2.379,0,4.992-0.707,6.934,0.137
	c5.08,2.209,7.705-0.117,9.834-4.188c0.15-0.29,0.252-0.605,0.391-0.901c1.646-3.518,4.879-7.215,4.506-10.502
	c-0.383-3.365-4.297-6.328-7.01-9.928c2.385-3.142,4.92-6.483,7.336-9.667c0.732,0.083,1.074,0.054,1.363,0.166
	c3.91,1.52,8.576,5.173,11.545,4.104c4.607-1.657,8.33-6.285,11.82-10.196c0.973-1.091,0.266-4.271-0.467-6.188
	c-2.91-7.626-1.811-10.944,5.889-13.429c1.611-0.52,4.857,1.199,6.088,2.835c4.232,5.625,8.232,3.428,13.498,1.466
	c6.951-2.591,9.654-6.405,8.076-13.476c-0.922-4.133,1.674-5.522,4.982-6.298c3.635-0.852,7.379-2.458,9.375,2.786
	c2.018,5.302,5.102,8.664,11.672,6.245c3.156-1.162,6.77-1.074,10.525-1.601c0.746-2.777,1.963-5.838,2.316-8.997
	c0.4-3.566,1.924-5.133,5.389-4.477c3.326,0.63,7.805-2.409,9.035,4.38c1.74,9.603,2.451,8.911,13.023,10.811
	c6.016,1.081,8.73-0.388,11.076-5.769c2.266-5.196,9.252-5.949,13.389-1.736c1.105,1.125,1.297,3.754,0.996,5.539
	c-1.078,6.409,1.238,10.356,7.584,11.912c0.459,0.112,0.83,0.546,1.271,0.767c7.762,3.869,8.111,4.182,14.09-2.435
	c4.123-4.562,6.695-1.013,9.627,0.739c2.879,1.722,4.676,4.029,2.576,7.81c-1.396,2.516-2.072,5.432-1.85,7.184
	c3.635,4.757,7.27,9.514,10.865,14.222c4.262-2.132,7.4-3.442,10.26-5.21c2.58-1.595,4.207-0.767,5.75,1.31
	c0.199,0.266,0.445,0.496,0.639,0.763c4.738,6.524,4.746,6.533-0.73,13.112c-2.104,2.528-3.332,4.779-0.428,7.873
	c1.955,2.083,3.432,4.892,4.318,7.635c1.281,3.955,3.918,4.448,7.33,4.05c9.104-1.062,9.1-1.056,12.035,7.531
	c0.258,0.752,0.588,1.48,0.992,2.493c-0.795,0.49-1.496,0.823-2.082,1.298c-3.031,2.46-8.27,4.729-8.551,7.491
	c-0.494,4.852,1.582,10.21,3.574,14.938c0.721,1.707,4.227,2.442,6.596,3.191c2.258,0.713,4.691,0.866,7.094,1.273
	c0,4.291,0,8.101,0,11.8c-0.289,0.304-0.455,0.641-0.705,0.719c-11.766,3.703-11.539,3.715-12.293,15.887
	c-0.244,3.952-0.551,6.528,3.979,8.515c10.414,4.566,7.012,2.109,5.688,12.667c-0.117,0.933-0.633,1.814-1.1,3.087
	c-1.523,0-3.168-0.002-4.812,0c-8.631,0.016-8.082,0.271-11.748,8.118c-3.232,6.918-2.648,11.965,3.797,16.189
	c0.932,0.609,1.576,1.653,2.303,2.439c-5.027,10.817-5.084,11.022-15.924,8.032c-2.629-0.726-3.691-0.482-5.086,1.659
	c-1.512,2.327-3.432,4.415-5.336,6.456c-3.406,3.652-4.514,7.202-0.674,11.384c1.383,1.505,1.988,3.725,3.189,6.094
	c-2.602,2.271-5.143,4.825-8.062,6.827c-0.822,0.563-3.107-0.056-4.117-0.877c-5.492-4.468-10.014-5.564-16.229,0.004
	c-6.928,6.207-7.939,5.55-5.314,14.289c1.16,3.859-0.307,5.174-3.197,6.297c-7.422,2.887-7.42,2.859-12.666-3.891
	c-2-2.574-4.154-3.801-7.65-2.17c-3.213,1.498-7.117,1.629-10.15,3.355c-1.801,1.025-2.904,3.852-3.6,6.09
	c-0.801,2.588,0.078,7.053-1.334,7.816c-3.107,1.68-7.197,1.545-11.203,2.203c-1.828-4.34-3.518-8.354-5.186-12.318
	c-2.908,0-5.812,0-8.717,0c-2.965,0-5.928,0-9.629,0c-1.148,2.562-2.371,5.906-4.131,8.939c-0.779,1.342-2.578,2.738-4.039,2.889
	c-2.365,0.244-4.918-0.262-7.227-0.979c-1.057-0.326-2.207-1.809-2.449-2.949c-0.406-1.914-0.018-3.982-0.146-5.975
	c-0.199-3.113-0.74-6.016-4.9-6.025c-0.76-0.002-1.504-0.607-2.279-0.855C1574.898,308.414,1574.896,308.416,1567.225,319.281z
	 M1620.68,208.342c9.127,1.326,17.018-7.962,16.596-15.769c-0.498-9.226-6.945-16.295-16.014-16.354
	c-9.297-0.059-16.229,7.006-16.23,16.545C1605.027,201.195,1612.18,208.313,1620.68,208.342z M1579.783,191.118
	c0.104-0.665,0.207-1.33,0.312-1.996c-21.557-3.172-43.109-6.344-64.809-9.537c-0.482,3.922-0.934,7.579-1.418,11.533
	C1536.283,191.118,1558.033,191.118,1579.783,191.118z M1728.152,191.096c0-2.02,0.016-3.515-0.004-5.01
	c-0.07-5.338-1.418-6.548-6.479-5.842c-2.596,0.361-5.197,0.694-7.793,1.074c-13.43,1.963-26.863,3.894-40.283,5.934
	c-3.873,0.589-7.697,1.503-11.545,2.268c0.111,0.525,0.225,1.052,0.336,1.576C1684.123,191.096,1705.859,191.096,1728.152,191.096z
	 M1623.48,151.083c0.561,0.058,1.119,0.116,1.68,0.174c3.1-21.537,6.197-43.074,9.305-64.659c-4.303-0.56-7.625-0.992-10.984-1.429
	C1623.48,107.526,1623.48,129.304,1623.48,151.083z M1623.424,299.288c2.59,0,5.184,0.471,7.457-0.178
	c1.346-0.385,2.977-2.476,3.088-3.906c0.207-2.711-0.561-5.504-0.973-8.255c-1.938-12.926-3.877-25.852-5.855-38.771
	c-0.758-4.958-1.625-9.899-2.441-14.85c-0.426,0.057-0.852,0.115-1.275,0.172C1623.424,255.299,1623.424,277.1,1623.424,299.288z
	 M1592.963,89.375c6.367,21.654,12.453,42.343,18.537,63.033c0.619-0.147,1.238-0.294,1.857-0.441
	c-3.131-21.539-6.264-43.078-9.465-65.09C1599.949,87.778,1596.521,88.562,1592.963,89.375z M1629.154,151.927
	c0.566,0.167,1.133,0.333,1.699,0.5c6.131-20.743,12.262-41.487,18.633-63.039c-3.861-0.864-7.441-1.665-11.051-2.473
	C1635.24,109.3,1632.197,130.613,1629.154,151.927z M1607.961,86.608c3.139,21.714,6.236,43.162,9.338,64.609
	c0.467-0.047,0.934-0.095,1.398-0.142c0-21.887,0-43.774,0-66.007C1615.154,85.577,1611.934,86.039,1607.961,86.608z
	 M1724.654,165.299c-9.768,0.97-60.781,16.916-62.258,19.501c9.502-1.252,18.896-2.408,28.264-3.748
	c10.35-1.48,20.643-3.442,31.029-4.553c3.994-0.427,4.904-2.011,4.416-5.315C1725.822,169.273,1725.189,167.416,1724.654,165.299z
	 M1660.879,200.747c0.969,1.576,1.082,2.035,1.314,2.103c19.451,5.774,38.914,11.512,58.369,17.27c4.83,1.43,4.303-2.644,5.227-5.11
	c1-2.671,0.574-5.043-2.615-5.653c-3.205-0.612-6.51-0.681-9.746-1.152c-10.162-1.481-20.307-3.091-30.473-4.552
	C1675.877,202.632,1668.773,201.779,1660.879,200.747z M1604.121,298.059c3.045-21.49,6.09-42.974,9.133-64.456
	c-0.604-0.096-1.207-0.191-1.812-0.287c-6.049,20.66-12.096,41.321-18.271,62.417C1596.99,296.543,1600.311,297.25,1604.121,298.059
	z M1618.705,233.484c-0.438-0.029-0.875-0.059-1.312-0.088c-3.074,21.438-6.15,42.877-9.318,64.963
	c3.641,0.408,7.098,0.796,10.631,1.192C1618.705,277.029,1618.705,255.255,1618.705,233.484z M1653.373,90.402
	c-5.846,21.229-12.871,41.992-18.137,63.226c0.461,0.124,0.922,0.248,1.385,0.372c9.049-19.797,18.1-39.594,27.213-59.53
	C1660.283,93.09,1656.945,91.792,1653.373,90.402z M1580.43,184.803c0.133-0.461,0.264-0.923,0.396-1.384
	c-3.148-1.037-6.271-2.167-9.453-3.095c-16.23-4.736-32.469-9.455-48.734-14.064c-1.537-0.436-4.576-0.513-4.746-0.013
	c-0.926,2.698-1.277,5.621-1.527,8.493c-0.039,0.454,1.393,1.362,2.238,1.508c2.9,0.498,5.852,0.688,8.768,1.105
	c10.668,1.525,21.324,3.124,31.994,4.635C1566.377,182.98,1573.408,183.869,1580.43,184.803z M1578.572,94.486
	c9.203,20.103,18.123,39.586,27.041,59.07c0.561-0.228,1.121-0.455,1.682-0.682c-6.1-20.793-12.197-41.586-18.357-62.592
	C1585.23,91.787,1582.244,92.998,1578.572,94.486z M1581.273,202.037c-0.125-0.384-0.25-0.769-0.375-1.151
	c-6.73,0.838-13.477,1.586-20.191,2.534c-13.283,1.875-26.557,3.818-39.814,5.859c-1.645,0.253-4.551,1.355-4.518,1.923
	c0.174,2.868,0.934,5.765,1.996,8.449c0.178,0.443,2.957,0.154,4.408-0.25c15.537-4.331,31.064-8.702,46.561-13.188
	C1573.379,205.044,1577.299,203.441,1581.273,202.037z M1518.916,160.712c21.291,6.234,42.064,12.316,62.838,18.398
	c0.211-0.549,0.422-1.097,0.633-1.646c-19.678-9.001-39.357-18.002-59.359-27.151
	C1521.619,153.873,1520.322,157.157,1518.916,160.712z M1723.35,160.716c-1.488-3.737-2.826-7.095-4.15-10.417
	c-20.291,9.348-39.879,18.373-59.467,27.397c0.213,0.514,0.426,1.026,0.637,1.541
	C1681.191,173.115,1702.012,166.992,1723.35,160.716z M1638.311,297.913c2.166-0.464,4.211-1.248,6.264-1.273
	c4.959-0.062,4.432-2.54,3.355-6.046c-3.1-10.111-5.859-20.326-8.875-30.464c-2.729-9.178-5.617-18.308-8.436-27.459
	c-0.506,0.088-1.012,0.177-1.518,0.265C1632.17,254.572,1635.236,276.21,1638.311,297.913z M1600.553,156.676
	c0.469-0.27,0.938-0.539,1.406-0.809c-9.029-19.821-18.061-39.643-27.137-59.562c-3.496,1.8-6.529,3.361-9.916,5.106
	C1576.932,120.052,1588.742,138.364,1600.553,156.676z M1582.879,208.06c-0.178-0.529-0.355-1.061-0.533-1.591
	c-20.764,6.072-41.525,12.146-62.908,18.399c1.35,3.705,2.553,7.008,3.787,10.396
	C1543.355,226.085,1563.117,217.073,1582.879,208.06z M1723.203,224.917c-21.385-6.247-42.09-12.294-62.795-18.341
	c-0.199,0.517-0.4,1.034-0.6,1.551c19.678,9.006,39.355,18.013,59.352,27.164C1720.514,231.82,1721.727,228.707,1723.203,224.917z
	 M1640.395,155.869c0.48,0.291,0.965,0.582,1.443,0.873c11.799-18.346,23.596-36.691,35.514-55.228
	c-3.689-2.023-6.66-3.652-9.695-5.316C1658.518,116.201,1649.455,136.035,1640.395,155.869z M1636.4,231.243
	c-0.531,0.155-1.062,0.311-1.59,0.466c6.111,20.899,12.225,41.799,18.416,62.964c3.84-1.549,6.924-2.793,10.297-4.154
	C1654.355,270.485,1645.377,250.864,1636.4,231.243z M1584.295,173.699c0.271-0.488,0.541-0.977,0.812-1.463
	c-18.344-11.792-36.689-23.583-55.312-35.553c-1.807,3.722-3.328,6.864-4.809,9.91
	C1545.051,155.761,1564.674,164.73,1584.295,173.699z M1712.406,136.773c-18.428,11.874-36.541,23.544-54.654,35.216
	c0.271,0.488,0.541,0.978,0.811,1.467c19.564-8.92,39.131-17.841,59.254-27.016C1715.924,143.061,1714.283,140.128,1712.406,136.773
	z M1703.426,124.404c-16.559,14.376-33.021,28.673-49.488,42.97c0.316,0.432,0.635,0.863,0.951,1.295
	c18.369-11.803,36.74-23.606,55.25-35.498C1707.789,130.104,1705.664,127.327,1703.426,124.404z M1689.809,110.431
	c-3.492-2.528-6.107-4.421-8.959-6.486c-11.791,18.373-23.408,36.481-35.027,54.589c0.449,0.346,0.898,0.691,1.35,1.037
	C1661.297,143.29,1675.424,127.008,1689.809,110.431z M1607.369,231.886c-0.48-0.172-0.963-0.345-1.443-0.518
	c-8.92,19.554-17.842,39.108-26.918,59.008c2.662,1.116,4.967,1.899,7.092,3.02c2.373,1.252,3.336,0.843,4.111-1.874
	c4.689-16.401,9.592-32.742,14.381-49.116C1605.607,238.925,1606.447,235.394,1607.369,231.886z M1587.613,168.314
	c0.236-0.348,0.475-0.695,0.713-1.044c-16.346-14.166-32.691-28.332-48.957-42.427c-8.104,7.011-8.154,7.729-0.668,12.601
	c14.219,9.256,28.48,18.449,42.758,27.613C1583.406,166.306,1585.557,167.237,1587.613,168.314z M1552.82,110.629
	c14.479,16.691,28.688,33.074,42.898,49.456c0.422-0.298,0.846-0.597,1.268-0.895c-11.791-18.375-23.582-36.75-35.607-55.487
	C1558.301,106.193,1555.656,108.334,1552.82,110.629z M1590.865,163.701c0.393-0.375,0.785-0.751,1.18-1.126
	c-14.105-16.324-28.211-32.647-41.969-48.568c-2.709,2.379-5.486,4.82-8.244,7.243
	C1558.428,135.618,1574.646,149.66,1590.865,163.701z M1641.627,228.516c-0.48,0.239-0.963,0.479-1.443,0.718
	c8.984,19.732,17.969,39.465,27.039,59.383c2.143-0.963,3.756-1.704,5.383-2.417c3.328-1.459,4.633-2.965,1.781-6.582
	c-3.512-4.451-6.172-9.569-9.24-14.373C1657.32,252.994,1649.469,240.757,1641.627,228.516z M1585.205,213.341
	c-0.258-0.464-0.518-0.928-0.775-1.391c-19.76,9.036-39.52,18.073-59.596,27.254c2.156,3.477,3.979,6.416,5.807,9.359
	C1549.174,236.601,1567.189,224.971,1585.205,213.341z M1717.129,238.974c-19.988-9.122-39.592-18.064-59.189-27.009
	c-0.301,0.471-0.602,0.942-0.9,1.414c0.809,0.572,1.598,1.175,2.43,1.711c15.053,9.712,30.061,19.495,45.188,29.089
	C1712.545,249.184,1712.643,249.033,1717.129,238.974z M1532.797,252.184c1.74,2.296,3.23,4.666,5.162,6.595
	c0.701,0.699,2.949,0.948,3.65,0.375c5.469-4.484,10.711-9.243,16.064-13.869c9.453-8.167,18.951-16.281,28.381-24.476
	c0.889-0.771,1.424-1.949,2.125-2.938c-0.301-0.239-0.6-0.479-0.9-0.716C1569.225,228.763,1551.17,240.373,1532.797,252.184z
	 M1574.971,288.97c9.145-20.019,18.098-39.613,27.049-59.209c-0.484-0.279-0.969-0.561-1.453-0.841
	c-11.621,18.063-23.242,36.127-35.104,54.559C1568.727,285.364,1571.492,286.96,1574.971,288.97z M1692.586,113.739
	c-14.32,16.539-28.355,32.746-42.391,48.953c0.359,0.395,0.721,0.79,1.082,1.185c16.338-14.119,32.674-28.239,49.084-42.419
	C1697.771,118.886,1695.467,116.599,1692.586,113.739z M1650.736,221.292c-0.354,0.381-0.711,0.763-1.064,1.144
	c14.26,16.44,28.521,32.882,42.334,48.806c3.223-2.613,5.852-4.743,8.473-6.868C1683.561,249.72,1667.148,235.506,1650.736,221.292z
	 M1709.543,252.092c-18.658-11.957-36.725-23.533-54.789-35.108c-0.305,0.436-0.609,0.871-0.914,1.307
	c16.379,14.182,32.758,28.365,49.408,42.783C1705.602,257.716,1707.451,255.077,1709.543,252.092z M1553.014,274.861
	c3.031,2.195,5.869,4.251,8.85,6.41c11.953-18.652,23.711-37.002,35.469-55.352c-0.406-0.289-0.812-0.577-1.221-0.865
	C1581.787,241.61,1567.461,258.166,1553.014,274.861z M1515.369,206.119c21.762-3.195,43.084-6.326,64.406-9.457
	c-0.059-0.391-0.115-0.779-0.172-1.169c-21.746,0-43.492,0-65.689,0C1514.418,199.174,1514.877,202.531,1515.369,206.119z
	 M1689.348,274.782c-14.326-16.534-28.5-32.893-42.674-49.25c-0.434,0.298-0.863,0.596-1.299,0.894
	c11.693,18.229,23.389,36.459,35.117,54.745C1683.295,279.148,1685.939,277.241,1689.348,274.782z M1550.379,271.367
	c14.178-16.408,28.227-32.667,42.273-48.926c-0.381-0.347-0.762-0.691-1.143-1.037c-16.277,14.125-32.557,28.25-48.633,42.198
	C1545.613,266.433,1547.871,268.77,1550.379,271.367z M1727.035,205.982c0.467-3.577,0.898-6.891,1.371-10.52
	c-22.428,0-44.107,0-65.787,0c-0.057,0.422-0.109,0.844-0.166,1.266C1683.785,199.785,1705.119,202.841,1727.035,205.982z"/>
<path d="M1642.643,346.557c3.271-2.773,6.67-5.65,10.416-8.826c3.119,2.072,6.459,4.289,10.232,6.797
	c-1.574,4.166-3.166,8.381-4.859,12.861c4.295,3.926,8.793,8.037,13.408,12.256c3.062-1.295,6.346-2.35,9.275-4.021
	c2.77-1.578,4.289-0.496,5.801,1.588c4.676,6.445,4.717,6.471-0.588,13.717c-2.004,2.734-3.041,5.279-0.219,8.146
	c1.016,1.031,1.775,2.367,2.461,3.666c4.631,8.777,4.594,8.682,14.373,6.768c1.293-0.254,3.588,0.809,4.258,1.943
	c1.549,2.621,2.387,5.666,3.6,8.762c-2.84,2.102-5.898,4.018-8.488,6.436c-1.135,1.059-1.98,3.227-1.793,4.744
	c0.52,4.189,1.471,8.354,2.656,12.406c0.342,1.174,1.93,2.518,3.166,2.791c3.334,0.736,6.783,0.941,10.25,1.363
	c0.164,0.566,0.381,1.014,0.416,1.477c0.275,3.584,1.91,8.041,0.369,10.502c-1.461,2.34-6.348,2.395-9.543,3.855
	c-1.195,0.547-2.355,2.109-2.682,3.42c-0.668,2.682-0.807,5.504-1.082,8.275c-0.471,4.77-0.535,9.217,5.672,10.615
	c2.152,0.486,4.068,2.014,6.447,3.244c-1.25,4.041-1.334,9.555-4.025,11.543c-2.68,1.984-7.975,0.438-12.166,0.438
	c-2.18,5.225-4.293,10.105-6.209,15.064c-0.311,0.805,0.014,2.08,0.477,2.893c0.561,0.979,1.58,1.689,2.402,2.518
	c6.826,6.834,6.928,7.357,1.215,15.092c-0.631,0.852-2.521,1.4-3.623,1.158c-3.623-0.797-7.152-2.023-10.76-3.098
	c-3.615,4.678-7.213,9.324-11.125,14.383c1.369,2.645,2.619,5.857,4.561,8.578c1.988,2.785,1.086,4.578-1.057,6.352
	c-2.146,1.779-4.373,3.459-7.145,5.641c-7.033-9.4-14.348-6.955-21.65,0.084c-1.012,0.973-2.537,1.412-4.014,2.195
	c0.846,4.461,1.686,8.891,2.693,14.221c-3.908,1.209-8.346,4.154-11.521,3.145c-3.516-1.119-5.877-5.861-8.475-8.73
	c-5.963,1.846-11.549,3.574-17.229,5.332c-0.508,3.928,0.229,9.1-1.984,12.072c-1.869,2.506-7.164,2.457-11.443,3.682
	c-1.447-3.738-2.473-7.184-4.129-10.291c-0.727-1.361-2.689-2.777-4.184-2.887c-4.965-0.359-9.971-0.135-15.002-0.135
	c-1.854,4.305-3.643,8.455-5.385,12.5c-12.295-1.266-12.295-1.266-13.574-15.066c-5.057-1.551-10.127-3.299-15.316-4.559
	c-1.258-0.305-3.365,0.592-4.307,1.637c-7.438,8.252-7.379,8.305-16.846,2.881c-2.234-5.238,5.479-10.461-0.725-15.232
	c-7.48-5.752-15.057-12.387-23.037-0.785c-3.055-2.5-5.768-4.389-8.006-6.729c-0.775-0.812-0.906-2.973-0.414-4.125
	c1.396-3.283,3.264-6.365,5.025-9.674c-1.982-2.406-4.014-4.768-5.92-7.223c-1.797-2.316-3.465-4.74-5.312-7.283
	c-4.178,1.195-8.352,2.393-13.217,3.785c-1.619-2.896-3.906-5.805-4.793-9.088c-0.438-1.623,1.297-4.33,2.76-5.877
	c5.539-5.863,4.744-5.52,2.676-13.266c-2.105-7.877-6.207-10.248-13.613-8.92c-3.162,0.564-4.326-1.188-4.672-4.137
	c-0.318-2.713-1.086-5.373-1.701-8.264c1.451-0.766,3.018-1.631,4.617-2.428c7.311-3.646,8.604-6.213,7.047-14.137
	c-0.062-0.318-0.371-0.635-0.338-0.926c0.885-7.729-4.857-8.973-10.25-9.953c-2.988-0.545-3.592-1.947-3.285-4.375
	c0.387-3.061,0.938-6.102,1.416-9.15c2.385-0.447,4.863-1.539,7.141-1.217c5.648,0.805,6.533-2.75,7.193-6.834
	c0.158-0.977,0.182-1.98,0.432-2.932c2.354-9.004,2.34-8.965-5.051-14.053c-2.096-1.443-3.885-2.529-2.459-6.201
	c3.496-9.01,3.297-9.449,12.713-6.854c3.139,0.865,4.383,0.352,5.645-2.436c1.547-3.416,3.18-6.934,5.514-9.809
	c2.207-2.719,1.041-4.537-0.449-6.52c-1.867-2.482-3.951-4.805-5.92-7.172c7.125-9.883,7.125-9.883,19.959-4.623
	c3.76-3.277,7.639-6.383,11.131-9.873c1.092-1.09,1.801-3.338,1.535-4.855c-0.621-3.555-3.531-7.562-2.537-10.309
	c1.066-2.941,5.543-4.65,8.564-6.928c3.701,3.121,7.215,6.082,10.715,9.033c3.553-1.676,6.998-3.494,10.592-4.951
	c5.439-2.207,6.883-4.826,5.561-10.643c-0.428-1.875-0.631-3.801-0.947-5.789c4.354-1.285,8.221-2.424,12.322-3.633
	c2.215,3.838,4.396,7.619,6.637,11.496c4.221-0.475,8.414-0.846,12.574-1.445c3.658-0.527,6.873-1.438,6.951-6.354
	c0.041-2.469,1.383-4.918,2.201-7.592c1.453,0,2.771,0.004,4.09-0.002c8.061-0.039,8.623-0.131,9.82,7.352
	c0.83,5.197,3.789,6.162,7.855,6.641c3.871,0.453,7.744,0.885,11.766,1.344c0.205-0.227,0.635-0.541,0.854-0.965
	c5.729-11.168,5.727-11.17,17.938-6.717c0,2.062,0.318,4.268-0.059,6.346c-1.324,7.314-1.244,7.436,5.49,10.027
	C1635.723,343.016,1638.869,344.762,1642.643,346.557z M1559.125,369.816c5.053,15.766,9.977,31.25,15.055,46.686
	c0.309,0.936,1.758,1.93,2.814,2.117c7.668,1.359,9.182,0.391,11.691-6.965c0.367-1.078,0.779-2.143,1.127-3.229
	c4.105-12.795,8.205-25.592,12.377-38.609C1587.578,369.816,1573.492,369.816,1559.125,369.816z M1654.398,500.891
	c4.492-14.027,8.768-27.369,13.166-41.104c-17.641,0-34.396,0-51.09,0c-1.229,3.744-2.393,7.289-3.613,11.018
	C1626.564,480.73,1640.148,490.57,1654.398,500.891z M1507.047,500.893c11.865-8.646,23.348-16.895,34.693-25.328
	c6.975-5.184,6.975-5.344,4.238-13.086c-0.426-1.199-2.152-2.75-3.291-2.762c-16.113-0.18-32.229-0.123-49.029-0.123
	C1498.186,473.561,1502.523,486.939,1507.047,500.893z M1602.139,538.438c-5.061-15.641-10.018-30.945-14.957-46.256
	c-1.482-4.594-5.291-1.924-8.021-2.559c-2.596-0.605-4.252,0.4-5.115,3.145c-3.271,10.41-6.736,20.76-10.08,31.146
	c-1.549,4.811-2.984,9.658-4.482,14.521C1574.018,538.438,1587.928,538.438,1602.139,538.438z M1612.822,535.266
	c11.623-8.447,22.932-16.668,34.656-25.189c-1.867-1.406-3.404-2.605-4.98-3.748c-10.986-7.955-22.119-15.725-32.881-23.975
	c-2.621-2.01-4.324-1.709-6.496-0.244c-2.014,1.357-3.918,2.875-6.145,4.525C1602.143,502.494,1607.371,518.535,1612.822,535.266z
	 M1555.258,479.824c-13.568,9.861-27.406,19.92-41.566,30.213c12.01,8.674,23.303,16.83,34.91,25.211
	c5.426-16.812,10.604-32.857,15.654-48.5C1561.074,484.301,1558.367,482.217,1555.258,479.824z M1555.037,428.779
	c2.117-1.518,3.582-2.953,5.338-3.744c3.887-1.754,3.91-4.311,2.674-7.898c-4.932-14.316-9.637-28.717-14.604-43.615
	c-11.469,8.354-22.936,16.703-34.652,25.236C1527.898,409.025,1541.459,418.896,1555.037,428.779z M1548.203,437.74
	c-12.959-9.426-26.549-19.312-41.092-29.893c-4.504,13.805-8.834,27.076-13.332,40.859c13.443,0,26.102-0.346,38.73,0.123
	C1540.828,449.141,1548.24,449.279,1548.203,437.74z M1667.566,448.703c-4.496-13.875-8.734-26.955-13.035-40.227
	c-0.949,0.262-1.85,0.277-2.451,0.711c-10.984,7.918-21.941,15.875-32.889,23.846c-6.525,4.752-6.82,5.502-3.863,13.049
	c0.453,1.152,2.283,2.498,3.488,2.51C1634.758,448.76,1650.701,448.703,1667.566,448.703z M1647.574,398.719
	c-11.719-8.508-23.01-16.705-34.766-25.24c-5.453,16.834-10.633,32.834-15.781,48.729c3.293,2.344,6.197,4.41,9.242,6.578
	C1619.961,418.818,1633.617,408.877,1647.574,398.719z M1597.168,454.844c1.141-9.551-8.467-17.562-16.658-17.314
	c-8.867,0.268-16.354,7.703-16.49,16.605c-0.148,9.535,6.814,16.484,17.006,17.34
	C1588.83,472.129,1597.156,463.111,1597.168,454.844z M1605.67,549.734c-16.693,0-33.293,0-50.117,0
	c-0.818,2.428-1.635,4.844-2.613,7.746c18.584,4.926,36.846,5.447,55.328-0.15C1607.264,554.395,1606.484,552.117,1605.67,549.734z
	 M1474.414,460.072c-0.104,0.416-0.303,0.873-0.326,1.338c-0.055,1.162-0.16,2.346-0.02,3.49
	c1.934,15.566,6.676,30.223,14.637,43.754c0.752,1.275,3.869,2.74,4.109,2.48c1.725-1.875,5.441-2.297,3.893-6.717
	c-4.52-12.896-8.438-26.002-12.629-39.014C1482.035,459.061,1481.896,459.012,1474.414,460.072z M1679.41,459.701
	c-5.23,16.104-10.406,32.033-15.582,47.961c1.254,0.982,2.35,1.691,3.26,2.584c2.285,2.236,3.949,2.016,5.234-1.008
	c3.812-8.967,8.285-17.713,11.32-26.934c2.344-7.113,2.906-14.814,4.324-22.604C1684.295,459.701,1682.146,459.701,1679.41,459.701z
	 M1473.928,448.131c6.338,1.908,8.801-0.377,10.324-5.643c3.479-12.029,7.393-23.943,11.492-35.779
	c1.93-5.57,2.381-6.771-5.09-9.922C1480.541,412.439,1475.217,429.598,1473.928,448.131z M1670.328,396.672
	c-3.854,1.943-7.418,3.506-5.289,9.391c4.369,12.078,8.082,24.395,12.066,36.613c2.205,6.754,2.555,6.943,9.762,5.363
	C1688.074,435.666,1679.838,409.486,1670.328,396.672z M1555.572,358.709c14.695,0,29.311,0,43.926-0.002c7.16,0,7.16,0,8.547-7.639
	c-18.266-4.832-36.508-4.789-54.996-0.006C1553.889,353.607,1554.689,356.035,1555.572,358.709z M1498.096,521.945
	c11.992,14.562,26.527,25.439,44.291,31.988c2.572-6.947,2.637-7.033-1.672-10.244c-10.217-7.615-20.625-14.979-30.695-22.781
	C1505.588,517.475,1501.916,516.322,1498.096,521.945z M1616.391,362.1c13.822,10.059,27.283,19.855,40.676,29.6
	c1.287-0.777,2.402-1.441,3.506-2.123c1.121-0.691,2.232-1.4,3.469-2.178c-13.135-14.793-27.088-26.27-44.688-32.447
	c-0.469,0.424-0.658,0.512-0.707,0.648C1617.893,357.736,1617.158,359.879,1616.391,362.1z M1663.299,521.641
	c-6.594-4.889-6.484-4.734-12.9,0.082c-9.65,7.24-19.441,14.297-29.254,21.318c-5.01,3.586-5.312,5.076-1.445,10.529
	C1637.209,546.814,1649.861,537.582,1663.299,521.641z M1542.252,354.559c-17.791,7.477-32.627,17.771-44.311,32.609
	c2.564,1.902,4.377,3.246,6.238,4.627c13.668-9.961,27.203-19.824,40.664-29.633
	C1543.973,359.605,1543.195,357.328,1542.252,354.559z"/>
<path d="M1494.281,353.488c-1.594,2.826-3.191,5.648-4.775,8.48c-1.805,3.229-4.561,1.199-6.539,0.75
	c-8.285-1.887-7.256-0.949-13.406,4.521c-7.27,6.465-4.562,11.27-0.471,17.051c0.369,0.521,0.633,1.123,0.783,1.395
	c-3.051,3.055-5.955,5.965-9.041,9.057c-3.555-2.371-7.443-4.967-11.014-7.348c-3.707,2.611-7.037,5.328-10.713,7.441
	c-3.697,2.129-5.189,4.455-3.371,8.715c0.994,2.328,1.049,5.059,1.502,7.477c-14.371,7.723-10.043,6.023-19.533-4.986
	c-5.549,1.697-11.258,3.441-17.479,5.346c-0.5,4.025-1.041,8.387-1.645,13.248c-3.6,0.703-7.531,1.469-11.938,2.328
	c-3.043-6-3.041-13.588-14.172-13.674c-11.049-0.088-11.547,6.984-14.658,13.432c-4.225-0.695-8.312-1.371-12.398-2.045
	c1.914-11.092-3.422-15.83-13.451-16.887c-1.715-0.18-3.34-1.209-5.078-1.875c-2.057,2.635-4.078,5.182-6.053,7.768
	c-1.639,2.148-3.389,2.824-5.941,1.248c-2.334-1.438-4.93-2.449-7.975-3.924c1.68-6.725,4.592-12.568-4.617-18.75
	c-9.205-6.174-13.318-0.391-19.156,2.957c-2.928-3.117-5.541-5.895-8.551-9.1c1.896-3.592,4.061-7.688,6.121-11.586
	c-3.77-4.717-7.453-9.324-11.301-14.139c-1.777,0.471-3.818,0.92-5.801,1.551c-7.74,2.457-7.74,2.482-11.381-4.691
	c-0.592-1.166-1.1-2.375-2.232-4.846c1.414-1.061,3.32-2.385,5.1-3.859c1.664-1.379,3.193-2.922,4.926-4.525
	c-2-4.859-3.719-9.58-5.922-14.061c-0.664-1.35-2.59-2.705-4.082-2.893c-3.416-0.428-6.922-0.135-10.029-0.135
	c-0.455-0.549-0.592-0.65-0.646-0.787c-3.414-8.484-1.463-14.338,7.953-16.912c0.904-0.246,1.824-2.545,1.764-3.846
	c-0.234-4.921-0.869-9.825-1.387-15.056c-1.666-0.576-3.637-1.263-5.609-1.938c-6.791-2.32-8.65-5.448-6.711-12.263
	c0.359-1.266,2.215-2.524,3.637-2.973c2.307-0.728,5.029-0.32,7.191-1.271c1.627-0.715,3.021-2.623,3.844-4.327
	c0.82-1.698,0.732-3.819,1.158-5.729c1.941-8.714,2.145-9.034-5.537-13.524c-3.578-2.091-3.311-4.139-2.117-7.072
	c0.613-1.509,0.816-3.361,1.84-4.477c1.074-1.168,2.914-2.291,4.406-2.271c2.707,0.033,5.387,1.082,8.113,1.381
	c0.947,0.104,2.018-0.723,2.988-1.21c0.213-0.106,0.193-0.609,0.354-0.89c2.674-4.661,5.359-9.315,7.92-13.759
	c-1.314-1.88-2.428-3.501-3.572-5.101c-1.42-1.982-4.463-4.576-3.98-5.794c1.201-3.051,3.77-5.719,6.273-8.01
	c0.842-0.769,3.357-0.397,4.744,0.239c8.684,3.996,8.648,4.069,15.447-2.729c6.537-6.539,6.68-6.604,2.953-14.928
	c-1.184-2.643-1.012-4.11,1.477-5.594c2.639-1.572,5.08-3.472,8.199-5.639c2.939,3.466,5.734,6.762,8.424,9.937
	c6.324-2.972,11.914-5.598,17.297-8.126c0-4.703,0-9.135,0-13.884c3.596-1.082,7.277-2.191,11.283-3.397
	c1.521,2.543,3.43,4.888,4.414,7.57c1.525,4.157,4.514,3.989,7.818,3.438c4.182-0.698,8.344-1.502,12.887-2.328
	c0.449-2.137,1.043-4.485,1.42-6.868c0.693-4.395,2.719-6.719,7.578-5.809c2.082,0.39,4.299,0.065,6.777,0.065
	c0.938,4.223,1.844,8.309,2.805,12.646c5.963,0.994,12.033,2.007,18.215,3.038c2.289-3.765,4.646-7.646,7.219-11.879
	c3.697,1.213,7.34,2.409,11.145,3.656c0,4.58,0,9.063,0,13.606c5.377,2.634,10.617,5.199,17.223,8.435
	c1.758-2.055,3.721-4.725,6.076-6.986c1.906-1.831,3.896-2.411,6.668-0.363c6.949,5.138,7.477,5.099,3.709,13.193
	c-1.648,3.544-0.857,5.266,1.631,7.395c3.342,2.86,6.535,5.897,10.312,9.335c2.521-1.191,5.646-2.542,8.648-4.127
	c2.336-1.232,3.752-1.226,5.676,1.177c5.645,7.045,6.131,7.175,0.299,13.854c-2.943,3.371-2.857,5.67-0.105,8.575
	c0.338,0.356,0.619,0.775,0.879,1.194c2.102,3.392,3.475,8.394,6.484,9.743c3.109,1.393,7.809-0.767,11.797-1.368
	c6.615,13.851,7.395,9.527-5.9,19.188c0.912,4.548,2.076,9.1,2.691,13.724c0.881,6.607,6.463,5.167,10.244,5.733
	c3.586,0.538,4.861,1.386,4.816,5.069c-0.102,8.285,0.072,8.297-7.676,10.877c-1.686,0.562-3.402,1.029-4.893,1.478
	c-0.508,5.612-1.135,11.008-1.363,16.42c-0.043,1.025,1.283,2.443,2.338,3.123c3.059,1.965,7.752,2.941,9.051,5.635
	c1.248,2.592-0.938,6.84-1.637,10.355c-0.059,0.287-0.277,0.541-0.42,0.809c-0.328,0.098-0.637,0.254-0.955,0.275
	c-4.244,0.314-10.154-0.998-12.354,1.277c-3.457,3.582-4.469,9.555-6.361,14.574c-0.229,0.607,0.324,1.699,0.805,2.354
	c2.256,3.076,4.615,6.08,6.938,9.109C1493.156,353.947,1493.719,353.717,1494.281,353.488z M1367.166,367.047
	c0-9.637-0.883-18.705,0.203-27.533c1.697-13.787-3.465-23.27-13.275-32.854c-8.916-8.71-17.402-13.318-29.898-11.939
	c-9.477,1.046-19.16,0.208-29.146,0.208c0,8.713-0.088,16.833,0.094,24.946c0.027,1.254,1.061,2.713,2.023,3.684
	c13.709,13.816,27.465,27.59,41.291,41.287c1.064,1.055,2.734,2.068,4.146,2.104C1350.561,367.15,1358.525,367.047,1367.166,367.047
	z M1378.045,367.051c7.809,0,14.945,0.184,22.064-0.115c2.045-0.086,4.523-1.059,5.969-2.477
	c13.658-13.396,27.145-26.967,40.65-40.516c0.908-0.912,2.252-2.031,2.273-3.078c0.186-8.566,0.105-17.143,0.105-25.933
	c-15.006,0-29.301-0.048-43.596,0.082c-1.271,0.013-2.789,0.909-3.75,1.85c-7.367,7.214-14.66,14.505-21.869,21.878
	c-0.934,0.951-1.758,2.502-1.771,3.781C1378.002,337.139,1378.045,351.756,1378.045,367.051z M1367.16,212.93
	c-8.574,0-16.385-0.121-24.188,0.103c-1.57,0.045-3.445,1.052-4.605,2.195c-13.729,13.562-27.359,27.223-40.967,40.907
	c-0.986,0.993-2.205,2.373-2.236,3.602c-0.201,7.934-0.104,15.875-0.104,24.299c15.408,0,30.334,0.04,45.258-0.085
	c1.092-0.009,2.355-1.037,3.232-1.902c7.227-7.121,14.412-14.284,21.52-21.523c0.957-0.976,1.986-2.443,1.998-3.692
	C1367.211,242.393,1367.16,227.954,1367.16,212.93z M1378.045,212.934c0,15.303-0.068,29.78,0.102,44.258
	c0.018,1.557,1.104,3.409,2.246,4.591c6.48,6.697,13.027,13.342,19.803,19.738c1.479,1.396,3.955,2.373,5.998,2.42
	c10.484,0.238,20.979,0.109,31.465,0.11c3.754,0,7.506-0.001,11.504-0.001c0-8.718,0.105-16.696-0.102-24.667
	c-0.035-1.407-1.109-3.054-2.17-4.126c-13.236-13.368-26.539-26.67-39.896-39.916c-1.086-1.077-2.686-2.264-4.074-2.301
	C1394.811,212.824,1386.693,212.934,1378.045,212.934z M1388.166,289.988c0.525-10.459-7.676-16.742-15.971-16.796
	c-8.195-0.053-16.006,7.079-16.254,16.281c-0.244,9.087,8.281,16.541,15.984,16.58
	C1381.094,306.1,1388.166,299.114,1388.166,289.988z M1449.156,339.238c-9.322,9.312-18.621,18.602-27.834,27.805
	c7.219,0,14.994,0.316,22.709-0.234c1.814-0.129,4.764-3.088,4.893-4.908C1449.473,354.189,1449.156,346.416,1449.156,339.238z
	 M1322.582,367.043c-9.229-9.23-18.51-18.514-27.533-27.539c0,6.82-0.35,14.453,0.238,22.012c0.154,1.961,3.135,5.129,5.01,5.275
	C1307.982,367.395,1315.742,367.043,1322.582,367.043z M1295.051,240.202c9.188-9.168,18.152-18.115,27.303-27.245
	c-7.752,0-15.662-0.202-23.541,0.198c-1.322,0.066-3.52,2.696-3.592,4.228C1294.848,224.988,1295.051,232.621,1295.051,240.202z
	 M1449.141,240.345c0-7.825,0.178-15.725-0.174-23.6c-0.061-1.318-2.361-3.567-3.707-3.627c-7.857-0.348-15.74-0.171-23.496-0.171
	C1430.984,222.175,1439.938,231.135,1449.141,240.345z M1477.307,309.164c-6.014,6.033-11.162,11.186-16.277,16.369
	c-0.436,0.439-0.9,1.105-0.906,1.672c-0.061,7.33-0.039,14.662-0.039,22.988C1468.938,337.406,1474.225,324.467,1477.307,309.164z
	 M1431.479,202.03c-11.645-8.565-24.102-14.321-38.123-16.695c4.885,5.469,10.037,10.603,15.246,15.677
	c0.537,0.522,1.42,0.968,2.146,0.976C1417.658,202.059,1424.568,202.03,1431.479,202.03z M1477.197,269.833
	c-2.895-15.17-8.537-27.713-16.668-39.302c-0.479,6.845-0.518,13.594-0.436,20.341c0.012,0.893,0.406,1.999,1.016,2.63
	C1466.15,258.722,1471.281,263.854,1477.197,269.833z M1352.059,184.79c-15.146,3.225-27.928,8.225-40.289,17.259
	c7.717,0,14.193,0.045,20.67-0.045c1.061-0.015,2.41-0.315,3.129-1.003C1340.83,195.975,1345.963,190.817,1352.059,184.79z
	 M1284.164,349.15c0-7.389,0.021-13.863-0.025-20.34c-0.008-0.943-0.031-2.197-0.594-2.777c-4.889-5.023-9.9-9.928-15.277-15.266
	C1267.98,319.4,1276.854,340.773,1284.164,349.15z M1430.484,377.947c-6.887,0-13.775-0.027-20.662,0.041
	c-0.73,0.008-1.629,0.414-2.156,0.932c-4.832,4.732-9.6,9.531-14.387,14.311C1407.102,391.486,1419.416,386.531,1430.484,377.947z
	 M1312.832,377.93c9.67,7.879,31.305,16.523,38.551,15.326c-5.066-4.926-9.756-9.594-14.602-14.092
	c-0.84-0.779-2.344-1.16-3.551-1.18C1326.764,377.871,1320.295,377.93,1312.832,377.93z M1284.164,230.206
	c-7.91,9.117-16.785,31.138-15.16,37.956c4.74-4.904,9.301-9.488,13.664-14.253c0.881-0.961,1.4-2.598,1.432-3.938
	C1284.246,243.663,1284.164,237.347,1284.164,230.206z M1460.268,283.761c5.141,0,9.701,0,13.516,0
	c-4.502-4.386-9.223-8.984-13.516-13.167C1460.268,274.322,1460.268,278.912,1460.268,283.761z M1366.924,378.334
	c-5.049,0-9.701,0-13.646,0c4.453,4.5,9.049,9.145,13.646,13.789C1366.924,387.793,1366.924,383.227,1366.924,378.334z
	 M1366.832,201.963c0-5.101,0-9.766,0-12.854c-4.07,4.027-8.756,8.666-12.988,12.854
	C1357.365,201.963,1361.844,201.963,1366.832,201.963z M1391.908,201.954c-4.646-4.562-9.35-9.18-13.459-13.214
	c0,3.715,0,8.429,0,13.214C1383.33,201.954,1387.809,201.954,1391.908,201.954z M1270.467,295.156
	c4.457,4.566,9.018,9.237,13.346,13.672c0-4.221,0-8.915,0-13.672C1278.889,295.156,1274.318,295.156,1270.467,295.156z
	 M1475.229,295.355c-5.33,0-10.1,0-14.744,0c0,4.912,0,9.555,0,14.471C1465.482,304.922,1470.104,300.385,1475.229,295.355z
	 M1269.969,283.691c5.188,0,9.555,0,13.727,0c0-4.658,0-8.941,0-13.605C1279.008,274.732,1274.76,278.942,1269.969,283.691z
	 M1378.26,391.385c4.502-4.506,8.779-8.791,13.146-13.166c-4.238,0-8.584,0-13.146,0
	C1378.26,382.752,1378.26,387.01,1378.26,391.385z"/>
<path d="M1490.066,123.358c-4.014,2.763-7.791,5.645-11.848,8.058c-2.658,1.582-3.922,2.861-2.457,6.199
	c1.207,2.75,1.324,5.977,1.975,9.242c-3.529,1.784-7.154,3.617-10.961,5.542c-2.447-2.748-4.668-5.619-7.311-8.026
	c-1.1-1-3.223-1.634-4.668-1.35c-3.979,0.784-7.943,1.897-11.709,3.399c-1.354,0.54-2.719,2.437-3.029,3.932
	c-0.719,3.469-0.799,7.071-1.133,10.568c-4.418,0.548-8.289,1.027-12.193,1.512c-1.771-4.358-3.41-8.39-5.033-12.387
	c-5.932,0-11.818,0-18.209,0c-1.605,3.724-3.336,7.74-5.301,12.299c-3.189-0.355-7.193,0.103-10.121-1.459
	c-1.836-0.979-3.062-5.099-2.797-7.625c0.609-5.854-2.436-7.197-7.164-8.062c-3.639-0.665-7.117-2.194-10.865-3.403
	c-2.795,3.4-5.787,7.041-8.807,10.713c-3.734-1.891-7.08-3.585-10.82-5.479c0.469-2.427,0.578-5.079,1.516-7.395
	c1.873-4.626,0.174-7.184-3.896-9.39c-3.562-1.931-6.744-4.564-10.266-7.004c-1.703,1.203-3.402,2.454-5.152,3.629
	c-6.463,4.338-6.297,4.142-12.145-1.269c-2.82-2.608-2.867-4.7-0.889-7.616c1.637-2.412,2.934-5.056,4.27-7.404
	c-3.064-4.02-6.07-7.7-8.775-11.589c-2.203-3.167-4.77-2.615-7.762-1.574c-8.041,2.8-10.326,1.765-12.857-6.198
	c-0.389-1.22,0.629-3.373,1.658-4.479c6.938-7.469,6.975-7.406,2.977-16.862c-1.008-2.383-1.84-4.841-2.873-7.587
	c-2.371,0-4.889-0.27-7.328,0.058c-4.584,0.617-7.227-0.732-7.428-5.752c-0.084-2.067-0.762-4.11-1.203-6.326
	c2.164-1.086,4.205-2.093,6.23-3.132c1.895-0.973,3.775-1.979,5.791-3.037c-0.533-5.984-1.068-12.023-1.615-18.172
	c-4.135-1.317-8.275-2.636-12.814-4.083c0.428-3.863,0.854-7.729,1.348-12.208c4.141-0.834,8.555-1.724,13.25-2.669
	c0.801-4.076,1.047-8.617,2.656-12.607c1.643-4.065-0.09-5.989-2.807-8.116c-6.629-5.188-6.607-5.211-3.889-12.917
	c0.316-0.898,0.586-1.814,0.924-2.871c2.109,0,4.131-0.247,6.072,0.043c7.822,1.17,7.787,1.217,11.578-5.529
	c1.752-3.119,3.631-6.167,5.406-9.169c-2.738-3.564-5.539-7.206-8.352-10.866c2.506-3.131,4.959-6.194,7.475-9.336
	c1.164,0.299,2.713,0.245,3.576,0.987c7.725,6.643,12.994,2.659,17.934-3.799c1.264-1.649,3.1-2.86,4.697-4.294
	c-1.627-4.135-3.275-8.329-4.887-12.427c9.938-7.594,9.938-7.594,20.168,1.883c3.59-1.825,7.074-3.906,10.791-5.422
	c6.27-2.558,7.477-4.188,5.809-10.522c-0.721-2.728-1.824-5.564,1.82-6.286c3.895-0.77,8.402-5.614,11.881,0.814
	c0.232,0.429,0.396,0.894,0.604,1.338c2.141,4.635,4.717,7.983,10.779,5.647c2.664-1.026,5.9-0.479,8.713-1.249
	c1.34-0.367,2.863-1.952,3.312-3.312c1.07-3.238,1.547-6.671,2.318-10.276c3.98,0,7.928,0,12.371,0
	c1.166,4.278,2.391,8.777,3.541,13.003c5.301,0.89,10.428,1.866,15.596,2.523c1.061,0.135,2.439-0.72,3.361-1.49
	c0.832-0.697,1.271-1.884,1.834-2.884c4.07-7.24,7.809-8.391,14.408-3.387c1.475,1.118,1.854,5.212,1.121,7.395
	c-1.611,4.799,0.152,6.934,4.336,8.544c4.068,1.566,7.98,3.541,12.58,5.617c1.635-1.77,3.738-3.909,5.682-6.183
	c2.369-2.77,4.617-3.355,7.512-0.56c1.73,1.673,3.98,2.811,6.344,4.426c-0.639,1.906-1.285,3.848-1.939,5.787
	c-2.453,7.274-1.742,9.273,4.521,13.832c2.219,1.614,4.209,3.539,6.473,5.466c3.773-1.654,8.055-3.531,12.203-5.35
	c0.504,0.378,0.844,0.525,1.021,0.783c2.086,3.015,5.758,6.051,5.748,9.073c-0.008,2.877-4.164,5.578-5.889,8.693
	c-0.717,1.299-0.25,3.63,0.387,5.208c0.84,2.084,2.426,3.858,3.594,5.824c1.172,1.973,2.223,4.018,3.58,6.493
	c4.275-0.4,8.828-0.827,13.408-1.256c0.379,0.58,0.711,0.921,0.85,1.329c1.125,3.303,3.689,7.043,2.891,9.806
	c-0.766,2.646-5.186,4.113-7.686,6.437c-1.031,0.96-1.92,2.912-1.707,4.224c0.805,4.969,2.09,9.859,3.244,15.005
	c4.133,0.797,8.568,1.653,13.031,2.514c0.533,4.216,1.023,8.089,1.449,11.448c-4.062,3.952-11.525,1.132-13.008,7.636
	c-1.049,4.601-2.377,10.209-0.654,14.059c1.619,3.617,7.076,5.518,11.273,8.476c-0.094-0.332,0.15,0.038,0.061,0.28
	c-1.355,3.606-1.793,8.709-4.41,10.379c-2.834,1.808-7.715,0.41-11.877,0.41c-1.025,3.114-1.889,6.058-2.969,8.918
	c-1.031,2.736-2.295,5.387-3.842,8.97c2.258,2.086,4.988,4.262,7.238,6.854c0.953,1.098,1.645,3.355,1.174,4.604
	c-3.072,8.161-4.215,8.715-12.555,5.805c-3.855-1.346-6.164-0.838-8.355,2.961c-2.025,3.511-5.203,6.358-8.219,9.905
	c1.232,2.234,2.396,4.913,4.066,7.228c2.562,3.554,1.381,5.778-1.305,8.838c-3.619,4.125-6.613,4.545-10.646,1.024
	C1494.248,125.766,1492.027,124.642,1490.066,123.358z M1482.645,106.462c-15.674-15.687-30.852-30.859-46.004-46.055
	c-2.76-2.768-5.594-4.992-9.889-3.461c-5.096,1.817-6.838,5.62-6.828,10.692c0.031,20.149,0.01,40.299,0.021,60.448
	c0,1.297,0.135,2.594,0.238,4.433C1443.824,130.552,1464.219,121.849,1482.645,106.462z M1405.051,132.613
	c0-23.237,0.098-45.693-0.162-68.145c-0.023-2.046-1.875-4.662-3.646-5.98c-4.51-3.358-8.316-2.599-12.969,2.031
	c-14.398,14.337-28.75,28.72-43.104,43.104c-0.887,0.889-1.613,1.938-2.457,2.963
	C1360.719,121.969,1381.188,130.351,1405.051,132.613z M1493.123-44.296c-16.045,16.03-31.6,31.495-47.01,47.104
	c-1.236,1.254-1.941,3.457-2.092,5.285c-0.537,6.565,3.832,10.286,11.949,10.307c17.797,0.046,35.594,0.015,53.391,0.015
	c3.113,0,6.229,0,9.988,0C1517.113-5.491,1508.531-25.922,1493.123-44.296z M1306.338,18.158c1.107,0.084,2.236,0.245,3.367,0.246
	c20.127,0.015,40.254-0.005,60.381,0.023c4.854,0.007,8.699-1.627,10.631-6.342c1.898-4.638-0.367-8.002-3.539-11.156
	c-13.914-13.843-27.771-27.746-41.66-41.615c-1.129-1.128-2.352-2.165-3.527-3.241C1314.119-24.285,1306.182,2.63,1306.338,18.158z
	 M1519.307,33.296c-23.188,0-45.451-0.176-67.705,0.245c-2.516,0.047-6.238,3.014-7.098,5.441c-0.895,2.533-0.033,7.044,1.832,8.983
	c15.439,16.031,31.287,31.665,47.199,47.606C1508.426,77.382,1517.254,57.163,1519.307,33.296z M1331.514,95.397
	c15.645-15.641,30.988-31.107,46.512-46.394c3.176-3.129,4.213-6.392,2.66-10.416c-1.572-4.071-4.766-5.372-9.033-5.347
	c-19.795,0.116-39.592,0.051-59.387,0.051c-1.961,0-3.922,0-6.377,0C1307.775,56.973,1316.422,77.235,1331.514,95.397z
	 M1482.137-55.233c-18.199-14.977-38.467-23.677-62.178-25.572c0,22.543-0.098,44.504,0.088,66.463
	c0.033,4.009,2.445,7.726,6.457,8.284c2.811,0.391,6.807-0.682,8.805-2.617C1450.986-23.856,1466.311-39.405,1482.137-55.233z
	 M1342.777-55.198c15.602,15.572,30.812,30.695,45.938,45.9c3.023,3.039,6.193,4.958,10.496,3.019
	c4.205-1.895,5.938-5.148,5.906-9.846c-0.139-19.956-0.055-39.912-0.068-59.869c-0.002-1.455-0.154-2.91-0.264-4.837
	C1381.307-78.842,1361.061-70.122,1342.777-55.198z M1428.051,25.64c-0.209-7.508-8.473-15.546-15.729-15.299
	c-7.354,0.251-15.602,8.697-15.338,15.708c0.279,7.376,8.727,15.603,15.727,15.315C1420.082,41.062,1428.248,32.691,1428.051,25.64z
	"/>
<path d="M137.676-700.144c11.68-19.301,23.059-38.104,34.871-57.617c18.812,5.465,37.215,10.812,55.168,16.023
	c9.262,24.793-12.336,56.055,12.152,74.344c20.41,15.238,46.793,22.496,76.922,36.191c4.195-5.896,9.48-14.438,15.852-22.07
	c16.172-19.355,30.574-25.074,55.75-7.301c22.727,16.043,24.078,28.445,12.23,49.234c-10.715,18.809-10.664,32.082,7.68,51.352
	c29.656,31.164,55.551,51.348,96.254,21.543c3.148-2.305,7.388-3.125,13.32-5.527c10.164,12.199,21.613,24.082,30.551,37.629
	c3.234,4.902,3.457,17.156-0.074,20.309c-30.957,27.637-33.538,52.801-7.383,88.371c26.238,35.676,22.383,40.172,71.517,27.262
	c14.362-3.773,17.762,1.27,21.625,10.621c18.496,44.766,18.34,44.762-22.228,71.969c-6,4.023-11.457,8.855-16.871,13.078
	c7.185,30.574,14.195,60.445,21.074,89.754c17.152,2.387,32.492,5.16,47.949,6.488c15.09,1.297,22.078,7.652,20.836,23.555
	c-1.098,14.02-0.23,28.188-0.23,42.598c-21.68,6.875-42.418,13.445-62.434,19.793c-2.539,26.805-5.836,52.941-6.891,79.168
	c-0.25,6.074,5.719,14.812,11.315,18.23c14.642,8.918,30.656,15.566,49.297,24.672c-4.102,19.441-8.379,39.755-12.522,59.423
	c-3.148,0.902-4.699,1.645-6.289,1.762c-21.207,1.586-50.742-4.926-61.715,6.461c-17.267,17.922-22.422,47.742-31.656,72.91
	c-1.242,3.391,2.5,10.125,5.815,13.418c13.57,13.461,27.867,26.191,42.074,39.355c-9.156,16.133-15.5,30.547-24.965,42.484
	c-4.102,5.176-14.516,5.901-22.305,7.367c-3.681,0.694-8.009-1.388-11.91-2.634c-39.539-12.602-34.82-7.608-63.93,19.707
	c-39.298,36.883-23.367,65.496,2.633,97.07c-15.711,15.285-29.984,29.168-45.289,44.051c-2.867-1.358-6.539-2.77-9.883-4.746
	c-16.699-9.875-36.41-31.055-49.29-27.477c-24.582,6.82-45.703,27.125-67.137,43.32c-4.223,3.19-4.539,13.108-4.516,19.918
	c0.023,6.315,3.504,12.539,4.402,18.952c1.559,11.105,7.344,27.777,2.359,32.396c-11.473,10.617-27.883,16.902-43.305,21.738
	c-5.508,1.723-15.625-4.168-20.648-9.435c-11.211-11.758-20.539-25.319-31.27-38.957c-27.957,9-56.379,18.148-87.16,28.062
	c-2.113,19.762-4.375,40.887-6.992,65.375c-17.66,3.332-37.242,7.026-59.68,11.262c-7.266-16.379-13.68-33.836-22.73-49.797
	c-3.844-6.773-13.195-10.438-20.113-15.418c-0.547-0.398-1.641,0.047-2.461-0.074c-51.742-7.465-93.418,0.965-96.695,65.516
	c-24.066-4.09-43.867-7.448-63.188-10.733c-2.539-23.688-4.887-45.578-7.086-66.105c-30.125-9.745-57.898-18.727-85.965-27.801
	c-6.191,6.844-13.48,13.418-18.996,21.242c-28.598,40.598-28.367,29.676-61.059,15.281c-15.832-6.97-23.691-13.806-15.117-32.853
	c5.781-12.848,5.559-28.406,8.184-43.719c-21.281-14.98-42.832-31.082-65.516-45.371c-4.898-3.078-15.094-1.836-20.789,1.238
	c-15.707,8.469-30.328,18.969-44.305,27.973c-14.875-14.883-28.824-28.844-43.926-43.957c1.254-2.539,3.707-7.512,6.172-12.479
	c24.141-48.527,22.031-46.859-12.93-91.185c-17.457-22.137-34.367-25.405-55.613-14.569c-24.859,12.68-37.75,4.862-46.277-19.345
	c-2.902-8.229-9.125-15.285-14.77-24.383c17.062-15.527,34.207-31.117,50.562-46c-7.176-17.262-15.035-30.156-17.848-44.078
	c-7.605-37.594-29.121-51.379-66.012-43.82c-5.531,1.133-11.5,0.156-18.578,0.156c-0.93-3.723-1.727-6.625-2.379-9.559
	C-676,30.672-675.812,31.016-629.878,6.18c6.48-3.5,14.488-12.348,14.332-18.539c-0.641-26.234-4.098-52.398-6.664-80.043
	c-19.465-6.203-40.184-12.793-60.895-19.367c-0.387-0.711-1.098-1.453-1.098-2.191c0.422-73.434-14.492-58.008,67.191-70.559
	c7.156-27.355,15-55.332,21.258-83.656c0.836-3.773-5.543-10.32-9.957-13.871c-14.578-11.719-29.793-22.652-44.973-34.043
	c8.262-20.41,15.789-39.008,23.254-57.457c18.898,3.551,35.535,8.176,52.371,9.113c6.809,0.375,16.012-5.742,20.699-11.633
	c8.035-10.102,13.402-22.34,19.859-33.695c20.633-36.289,21.469-37.086-7.074-67.551c-12.488-13.332-18.32-22.738-1.418-36.059
	c5.555-4.379,8.922-11.59,13.125-17.621c9.348-13.418,19.66-13.227,33.805-5.871c41.055,21.363,41.316,20.711,73.215-11.02
	c10.445-10.387,21.254-20.406,33.461-32.09c-5.074-14.352-9.23-31.151-16.844-46.207c-7.086-14.004-1.797-20.246,9.035-27.777
	c37.5-26.055,37.289-26.336,70.742,6.793c4.699,4.652,9.547,9.16,14.281,13.688c24.391-10.945,48.52-20.871,71.617-32.789
	c5.391-2.785,9.801-12.145,10.312-18.812c1.406-18.164,0.484-36.512,0.484-56.051c19.121-5.562,37.539-10.918,56.945-16.562
	c11.699,19.137,23.555,38.531,35.762,58.5c14.812-2.977,29.75-6.559,44.871-8.906c45.797-7.105,47.266-6.617,56.305-50.301
	c3.34-16.172,8.902-20.188,23.953-20.246c41.57-0.164,42.484-0.918,51.578,40.656c4.879,22.309,17.016,29.652,38.688,30.105
	C97.724-707.476,117.013-703.002,137.676-700.144z M-409.979-435.963c-189.234,231.422-140.266,526.071-1.016,676.442
	c40.57-40.664,80.512-81.938,121.852-121.762c37-35.641,61.766-78.044,76.648-126.743c27.383-89.621,15.922-176.652-37.625-250.812
	C-296.281-322.779-355.906-377.002-409.979-435.963z M-336.487,317.451c174.797,149.966,462.719,177.238,674.781-0.952
	c-33.066-32.978-66.383-65.617-99.023-98.914c-36.605-37.336-76.469-70.312-125.5-89.665
	C13.383,88.295-84.742,96.155-170.386,161.05C-230.213,206.389-280.656,264.115-336.487,317.451z M-337.765-508.124
	c39.121,39.004,77.355,75.977,114.273,114.219c50.559,52.371,109.488,85.957,182.949,96.645
	c80.277,11.684,153.195-5.727,214.781-54.68c53.711-42.688,100.027-94.695,149.484-142.707c4.527-4.391,8.164-9.695,12.211-14.57
	C144.504-666.635-136.621-671.158-337.765-508.124z M414.583-431.479c-44.859,44.945-88.328,88.383-131.668,131.953
	C198.24-214.414,174.606-78.28,227.998,32.816c41.84,87.067,123.516,138.181,183.379,209.47
	C541.912,96.232,603.822-190.033,414.583-431.479z M-0.405-178.963c-41.789-1.148-82.711,37.969-84.586,85.312
	C-86.655-51.769-41.387-7.984,0.31-8.452c42.41-0.472,86.852-44.14,84.578-85.914C82.231-143.183,40.228-180.631-0.405-178.963z"/>
</svg>
