<?xml version="1.0" encoding="utf-8"?>
<!-- Generator: Adobe Illustrator 16.0.0, SVG Export Plug-In . SVG Version: 6.00 Build 0)  -->
<!DOCTYPE svg PUBLIC "-//W3C//DTD SVG 1.1//EN" "http://www.w3.org/Graphics/SVG/1.1/DTD/svg11.dtd">
<svg version="1.1" id="Layer_1" xmlns="http://www.w3.org/2000/svg" xmlns:xlink="http://www.w3.org/1999/xlink" x="0px" y="0px"
	 width="3676.9px" height="1216.542px" viewBox="0 0 3676.9 1216.542" enable-background="new 0 0 3676.9 1216.542"
	 xml:space="preserve">
<g>
	<path d="M2480.221,1195.125c-66.346-1.008-131.51-1.998-197.21-2.996c-1.237-1.789-2.607-3.998-4.198-6.037
		c-7.541-9.656-7.604-20.27,0.545-29.688c2.928-3.385,3.918-6.266,2.832-10.719c-4.514-18.52-5.668-37.398-4.477-56.375
		c0.852-13.555,2.389-27.066,3.468-40.611c0.37-4.639,0.132-9.322,0.431-13.971c0.383-5.947,1.08-11.877,1.534-17.82
		c0.202-2.645,0.838-5.523,0.086-7.922c-3.774-12.041-0.864-23.801,1.363-35.486c0.886-4.654,0.257-8.18-1.992-12.225
		c-4.183-7.523-7.278-15.654-11.538-23.127c-4.796-8.418-4.383-17.469-3.572-26.285c1.111-12.117-3.121-21.35-12.061-28.959
		c-5.812-4.947-11.168-10.57-17.48-14.752c-13.282-8.803-26.713-3.551-30.383,12.074c-2.257,9.611-2.947,19.615-3.971,29.48
		c-0.479,4.615,0.146,9.336-0.134,13.986c-0.477,7.912,0.368,14.986,7.071,20.689c2.064,1.758,2.896,6.002,2.801,9.062
		c-0.276,8.932-1.047,17.873-2.221,26.73c-0.293,2.215-2.453,4.656-4.418,6.078c-3.941,2.854-5.188,6.354-5.254,11.088
		c-0.526,37.252-1.718,74.502-1.736,111.752c-0.01,17.73-4.708,33.896-11.286,49.959c-3.499,8.541-6.451,17.369-8.82,26.287
		c-1.356,5.111-3.691,7.553-8.86,7.324c-12.272-0.541-24.541-1.33-36.819-1.576c-16.319-0.326-32.647-0.283-48.972-0.281
		c-4.195,0-7.162,2.113-7.324,6.535c-0.237,6.49-4.317,7.371-9.503,7.365c-37.993-0.045-75.987,0.09-113.979-0.117
		c-7.935-0.045-16.038-0.49-23.736-2.215c-5.625-1.258-11.056-4.404-15.935-7.662c-4.14-2.766-3.697-8.244,0.254-12.156
		c6.124-6.062,14.03-6.895,22.116-7.555c5.181-0.422,10.297-1.719,15.423-2.725c14.254-2.797,22.166-14.57,31.188-23.85
		c6.854-7.047,10.373-17.363,15.193-26.322c0.719-1.334,0.854-3.287,0.549-4.812c-1.74-8.73-3.533-17.457-5.629-26.107
		c-1.468-6.062-3.443-12.004-5.197-17.998c-0.275-0.945-0.277-2.311-0.916-2.76c-7.733-5.449-5.707-13.566-5.774-21.02
		c-0.131-14.662-0.179-29.33,0.022-43.99c0.072-5.262-0.738-9.807-4.923-13.467c-7.544-6.6-6.338-15.061-3.501-22.988
		c1.545-4.316,2.316-7.902,1.141-12.396c-0.989-3.775-0.771-7.922-0.758-11.9c0.051-12.682-2.912-23.684-15.272-30.117
		c-6.545-3.408-9.107-8.895-8.904-16.441c0.24-8.934-0.814-17.895-0.98-26.85c-0.146-7.82-4.768-12.809-10.149-17.447
		c-3.238-2.791-6.152-5.33-7.604-9.986c-2.189-7.027-8.643-9.607-15.36-9.557c-5.32-10.488-3.823-20.91-3.933-31.145
		c-0.048-4.23,2.976-5.906,6.202-6.75c6.927-1.812,8.279-6.383,8.04-12.834c-0.443-11.982-0.135-23.99-0.38-35.984
		c-0.087-4.275-1.456-8.574-1.216-12.803c0.506-8.867,1.475-17.725,2.663-26.529c0.943-6.98,1.455-13.143-3.03-19.836
		c-3.839-5.725-4.734-13.426-6.909-20.178c-1.128-0.498-2-0.988-2.934-1.277c-5.004-1.549-10.022-3.049-15.039-4.564
		c-1.822-8.533-9.513-15.137-7.599-25.025c1.252-6.463,1.762-13.166,1.732-19.756c-0.031-7.584-1.259-15.157-1.539-22.75
		c-0.316-8.618,0.688-17.326-3.233-25.525c-0.812-1.698-0.781-3.918-0.732-5.889c0.146-6.194,2.117-8.307,8.439-8.565
		c5.964-0.244,11.943-0.053,18.688-0.053c0.647-15.618,6.486-29.288,12.261-42.607c-3.373-7.275-8.146-10.512-16.077-9.295
		c-5.21,0.801-10.652,0.375-15.971,0.107c-7.159-0.361-8.981-2.09-9.365-8.921c-0.802-14.246-1.266-28.513-2.119-42.755
		c-0.496-8.266-1.116-16.556-2.324-24.738c-2.492-16.893-2.339-33.684-0.174-50.608c0.492-3.836-1.129-8.553-3.231-11.968
		c-3.101-5.034-7.07-9.748-11.474-13.707c-4.81-4.325-5.729-8.994-2.985-14.224c3.184-6.066,2.473-11.212-1.164-16.821
		c-1.678-2.586-2.301-6.239-2.356-9.426c-0.221-12.66-0.116-25.328,0.039-37.991c0.102-8.245,1.472-9.889,9.58-12.957
		c7.559-2.861,14.9-5.816,17.021-15.062c0.464-2.023,2.595-3.828,4.286-5.373c4.044-3.693,7.412-7.44,7.08-13.578
		c-0.221-4.1,2.922-5.984,6.647-5.78c10.605,0.581,18.104-4.86,25.42-11.642c4.812-4.46,10.981-7.425,16.021-11.678
		c7.329-6.187,14.187-12.93,20.549-18.793c-2.655-7.007-4.637-12.925-7.131-18.619c-2.284-5.213-6.118-8.538-12.353-8.366
		c-6.591,0.182-13.189,0.041-19.961,0.041c-2.535-10.65-3.522-20.078-2.215-30.308c1.235-9.651-0.292-19.849-1.815-29.617
		c-2.63-16.855-3.115-33.477,1.263-50.101c1.81-6.874,6.261-11.557,11.73-15.608c9.577-7.093,19.182-14.153,28.616-21.433
		c3.093-2.385,5.65-4.467,9.647-1.533c1.354,0.992,3.723,0.627,5.633,0.827c3.263,0.343,6.611,0.299,9.773,1.049
		c3.828,0.908,7.43,3.158,11.26,3.553c3.477,0.359,7.13-0.989,9.172-1.33c8.861,10.348,16.982,19.811,25.078,29.295
		c1.469,1.722,3.582,3.328,4.117,5.331c1.713,6.396,3.819,12.932,3.959,19.454c0.299,13.926-0.613,27.875-0.89,41.818
		c-0.182,9.18-3.057,18.265-0.826,27.543c0.456,1.898,0.481,4.046,0.119,5.969c-1.438,7.647,0.772,13.737,7.679,16.966
		c5.102,1.804,10.151,3.769,15.316,5.364c4.688,1.446,9.444,2.827,14.271,3.627c6.53,1.083,13.159,1.584,19.746,2.344
		c0.325,0.037,0.733,0.048,0.955,0.241c7.7,6.712,17.239,5.645,25.992,5.487c4.012,6.485,4.235,14.197,10.671,18.259
		c0.492,9.591,10.244,15.241,10.431,25.186c0.108,5.748,2.636,10.933,8.11,14.141c1.302,0.762,2.515,2.343,2.956,3.794
		c2.901,9.562,9.801,11.765,18.715,10.621c8.065-1.036,15.252-3.19,20.698-10.2c3.363-4.33,8.477-7.293,12.768-10.911
		c1.468-1.237,2.83-2.6,5.124-4.722c-7.66-8.338-14.83-16.52-22.49-24.216c-1.896-1.905-5.296-2.735-8.145-3.199
		c-10.312-1.681-10.336-1.543-11.291-12.827c-5.513-1.752-7.814-5.587-7.888-12.273c-0.11-10.201-2.239-20.368-3.18-30.581
		c-0.295-3.212-0.353-6.889,0.903-9.725c4.865-10.994,11.025-21.377,19.396-30.03c3.319-3.432,8.288-5.562,12.855-7.428
		c6.76-2.76,13.702-5.386,20.817-6.846c4.315-0.885,9.283-0.111,13.641,1.08c6.052,1.654,11.929,4.136,17.624,6.812
		c2.176,1.022,4.441,3.258,5.273,5.466c2.1,5.567,3.736,11.366,4.945,17.199c1.407,6.789,2.222,13.232,7.546,18.919
		c5.098,5.445,3.405,13.379,1.102,19.864c-1.412,3.975-1.897,7.18-1.125,11.343c2.283,12.304-0.027,24.6-2.498,36.563
		c-1.059,5.126-5.76,9.5-9.555,15.375c10.835,6.083,14.852,19.774,29.069,23.605c7.717,2.079,13.965,9.521,20.947,14.443
		c5.409,3.814,10.623,8.066,16.466,11.066c10.579,5.431,18.913,13.517,27.195,21.639c4.873,4.779,7.166,10.973,7.033,18.114
		c-0.254,13.66-0.136,27.327-0.074,40.99c0.015,3.218-0.635,6.885,3.783,8.196c4.683,1.389,9.805-0.12,12.26-4.158
		c1.895-3.118,3.624-6.42,4.849-9.848c5.667-15.851,15.104-29.613,23.868-43.753c3.443-5.556,7.382-9.798,14.877-10.095
		c6.866-0.272,9.676-7.112,12.475-11.87c3.271-5.562,7.611-9.027,12.711-12.182c8.45-5.229,8.584-5.777,3.445-14.713
		c-3.454-6.007-7.011-11.958-10.354-18.025c-0.754-1.368-1.285-3.174-1.111-4.685c1.021-8.834,2.199-17.651,3.488-26.45
		c1.009-6.877,5.3-11.44,11.363-14.187c4.834-2.19,9.927-3.833,14.959-5.558c7.396-2.536,8.531-3.895,6.248-11.706
		c-3.545-12.122-2.871-24.338-2.242-36.664c0.205-3.99,1.504-6.955,4.288-9.655c7.895-7.654,15.575-15.532,23.564-23.086
		c2.097-1.982,4.938-3.239,7.56-4.589c5.27-2.716,10.793-4.975,15.898-7.956c6.411-3.745,8.184-3.907,12.491,1.883
		c3.774,5.074,7.473,8.652,14.256,10.881c8.847,2.907,17.148,9.096,21.654,18.198c1.856,3.755,3.139,8.1,3.427,12.263
		c0.521,7.537,2.207,14.424,7.01,20.384c0.83,1.03,2.117,2.163,2.157,3.286c0.501,14.006,4.963,28.524-5.68,41.126
		c-2.126,2.517-2.841,6.226-4.565,10.22c8.291,2.823,12.914,7.468,14.109,15.21c0.389,2.507,1.954,4.993,3.477,7.138
		c9.091,12.805,19.927,23.397,33.926,31.279c16.178,9.109,31.121,20.383,47.006,30.052c9.006,5.48,11.43,14.401,14.226,23.163
		c2.007,6.294,3.475,12.953,3.864,19.527c0.673,11.307-0.877,22.467-4.673,33.285c-1.401,3.997-2.525,8.287-2.689,12.485
		c-0.486,12.54-0.076,12.817,11.903,16.246c15.395,4.407,17.926,7.77,17.973,24.051c0.031,11.665-0.238,23.335,0.072,34.991
		c0.404,15.126,1.285,30.239,1.896,45.36c0.299,7.389,0.66,14.688-6.793,19.651c-1.803,1.2-3.2,4.393-3.197,6.667
		c0.009,6.51-2.521,12.174-6.907,16.081c-7.254,6.465-8.17,13.908-6.254,22.941c5.341,2.124,10.176,1.322,14.282-2.965
		c2.989-3.12,6.537-4.455,10.793-4.066c0.33,0.03,0.677,0.059,0.998-0.004c9.354-1.807,18.686-3.249,27.994,3.022
		c1.887-6.803,3.09-12.29,4.979-17.531c1.193-3.312,2.933-6.727,5.352-9.187c1.477-1.501,5.423-2.533,7.028-1.618
		c7.65,4.361,13.305,0.62,19.104-3.561c1.026-0.739,2.202-1.272,3.666-2.104c2.084,2.818,3.961,5.357,6.972,9.431
		c1.742-3.176,3.5-5.09,3.84-7.229c1.127-7.104,4.072-13.097,8.322-18.92c3.681-5.043,6.338-10.962,8.725-16.787
		c2.707-6.611,1.352-10.394-4.62-14.619c-2.956-2.094-6.479-3.372-9.539-5.341c-1.96-1.262-3.54-3.109-6.284-5.595
		c3.799-1.419,5.84-2.182,8.404-3.141c-3.316-5.425-9.403-5.4-14.492-7.785c-1.037-7.521,6.439-3.349,9.024-6.813
		c-3.302-2.893-6.673-5.849-9.863-8.646c1.118-1.816,1.354-2.474,1.81-2.898c9.299-8.701,18.48-6.477,27.666,0.267
		c2.08,1.526,4.363,2.774,7.082,4.483c1.613-2.237,3.17-3.896,4.158-5.845c6.969-13.731,11.243-28.324,13.219-43.562
		c0.276-2.147-0.697-4.481-1.218-6.698c-0.676-2.885-2.475-5.901-2.046-8.58c1.655-10.343-0.463-21.047,3.268-31.197
		c0.876-2.385,0.531-5.263,0.54-7.915c0.042-13.663,0.05-27.328-0.007-40.992c-0.02-4.4-0.431-8.789,5.18-10.485
		c1.096-0.331,2.011-1.726,2.713-2.821c4.454-6.936,8.824-13.925,12.47-19.705c10.208-3.761,19.231-6.902,28.074-10.487
		c1.977-0.802,3.589-2.976,4.9-4.847c2.929-4.172,7.365-4.769,11.718-6.492c10.278-4.072,18.926-3.168,27.069,4.256
		c1.138,1.037,3.044,1.707,4.604,1.727c10.113,0.13,18.165,5.664,26.535,10.143c4.603,2.461,8.455,2.568,13.102,0.17
		c7.655-3.953,15.548-7.484,23.52-10.761c2.647-1.088,5.841-0.862,8.787-1.21c7.541-0.892,14.824-2.387,20.557-7.825
		c-10.871-19.191-11.678-28.931-5.129-38.329c-11.297-13.935-9.036-31.521-11.081-48.076c-0.316-2.563,2.171-6.416,4.493-8.191
		c8.137-6.219,12.803-14.797,18.601-22.866c5.745-7.996,15.524-13.119,23.614-19.398c10.216-7.929,21.663-4.626,32.598-2.762
		c9.096,1.55,18.119,4.144,26.805,7.294c8.364,3.033,14.812,8.672,17.158,17.943c0.559,2.209,1.656,4.349,2.842,6.318
		c7.355,12.217,9.251,12.639,22.276,6.908c3.525-1.552,7.56-2.599,11.392-2.7c13.291-0.348,26.317,0.046,39.353,4.613
		c9.313,3.264,15.778,8.569,20.198,16.503c6.896,12.38,11.199,25.533,9.18,40.176c-0.407,2.947,0.734,6.612,2.343,9.218
		c2.591,4.199,6.096,7.851,9.342,11.624c2.589,3.008,5.722,5.702,4.29,10.9c-2.673,0.586-5.515,1.209-8.896,1.952
		c0,5.139-0.104,10.301,0.024,15.458c0.17,6.75,7.807,14.072,15.79,15.125c2.296,0.303,4.66,0.072,6.992,0.132
		c10.089,0.261,14.426,4.586,14.514,14.768c0.023,2.627-0.444,5.291-0.952,7.887c-1.361,6.967-2.221,13.708,2.481,20.053
		c1.487,2.005,1.661,4.98,2.444,7.511c1.752,5.669,3.665,11.295,5.213,17.02c1.205,4.45,2.082,9.002,2.877,13.547
		c1,5.728,2.951,7.25,8.783,6.309c1.639-0.265,3.268-1.102,4.864-1.013c6.653,0.371,10.14-2.999,12.886-8.814
		c5.895-12.484,15.996-20.308,29.502-23.151c4.336-0.913,8.434-2.407,8.81-6.615c0.25-2.795-2.786-5.884-4.351-8.842
		c-0.707,0.103-1.412,0.206-2.117,0.309c1.652-6.642,3.44-13.253,4.867-19.943c0.388-1.811,0.185-4.091-0.601-5.755
		c-6.021-12.78-1.586-24.578,3.378-36.213c1.672-3.914,4.616-7.034,3.066-12.03c-0.646-2.087,0.984-5.11,2.088-7.471
		c3.09-6.593,6.988-12.861,9.493-19.654c1.545-4.19,1.544-9.11,1.492-13.694c-0.082-7.413,0.825-14.466,8.29-17.815
		c8.311-3.728,17.393-4.337,24.477,2.109c5.58,5.078,11.457,6.137,18.269,5.787c7.549-0.387,15.021,0.71,22.524-2.693
		c6.302-2.855,12.113,2.054,17.5,5.056c8.849,4.932,12.143,14.561,17.532,22.38c0.789,1.144,0.959,3.583,0.271,4.737
		c-4.094,6.835-1.115,13.544-0.178,20.33c0.496,3.597,1.719,7.619,0.666,10.807c-3.246,9.829,0.132,19,1.135,28.896
		c7.521-0.904,13.836-3.26,18.781-8.604c6.81-7.352,13.346-15.072,24.5-15.606c0.611-0.029,1.551-0.384,1.75-0.841
		c4.486-10.332,15.455-7.344,23.064-11.22c1.088-0.554,2.609-0.676,3.838-0.464c6.54,1.125,13.066,2.343,19.568,3.674
		c12.588,2.578,16.956,13.488,22.806,22.813c3.761,5.996,4.585,12.224,3.354,19.514c-1.015,6.012,0.877,12.371,6.107,17.142
		c3.15,2.874,5.521,6.489,4.451,11.546c-0.403,1.907,1.183,4.248,1.899,6.377c1.479,4.383,3.15,8.712,4.374,13.164
		c0.392,1.417-0.041,4.38-0.674,4.557c-8.249,2.291-8.061,12.201-15.113,16.02c-5.795,3.137-5.246,7.62-0.266,12.968
		c5.896,6.332,12.463,12.161,17.601,19.054c11.25,15.096,24.722,28.808,31.406,46.9c1.573,4.258,1.43,9.121,2.415,13.632
		c2.038,9.336,4.465,18.589,6.393,27.946c0.728,3.524,0.905,7.268,0.673,10.868c-1.097,16.869-2.607,33.715-3.523,50.593
		c-0.205,3.792,1.347,7.689,2.162,11.522c0.479,2.251,1.562,4.463,1.595,6.705c0.264,17.946,0.532,35.858-3.117,53.645
		c-1.314,6.413-0.854,13.269-0.625,19.902c0.354,10.273,1.225,20.527,1.836,30.791c0.749,12.592-0.646,25.779,2.714,37.625
		c4.147,14.633,2.384,29.018,3.337,43.498c0.334,5.102-1.064,8.99-5.543,11.889c-3.049,1.971-5.768,4.5-8.447,6.98
		c-9.373,8.688-8.057,18.896,2.768,25.34c4.499,2.68,8.574,6.193,12.421,9.777c1.504,1.402,2.314,3.969,2.655,6.129
		c2.58,16.361,4.978,32.75,7.39,49.139c0.237,1.615,0.885,3.756,0.146,4.832c-2.788,4.061-6.283,7.633-9.107,11.67
		c-2.812,4.018-5.713,6.887-11.221,6.896c-3.504,0.006-7.113,1.604-10.463,2.998c-1.654,0.688-4.019,2.518-4.031,3.85
		c-0.101,9.588-5.669,18.859,1.168,28.928c7.115,10.48,8.529,23.564,10.271,35.998c0.9,6.43,2.38,12.225,5.837,17.771
		c1.808,2.898,2.945,6.717,2.978,10.133c0.154,16.654,1.068,33.443-0.689,49.93c-1.561,14.639-0.594,29.189-1.647,43.715
		c-0.603,8.279-0.89,16.348-0.087,24.664c0.689,7.152-0.403,14.594-1.521,21.779c-1.604,10.34-2.218,20.705,0.901,30.65
		c2.561,8.16-2.947,13.992-4.234,20.979c-0.168,0.912-1.942,1.66-3.1,2.23c-2.087,1.025-4.201,2.1-6.425,2.732
		c-10.896,3.107-17.379,9.562-16.271,22.51c-2.468-0.812-4.672-0.873-5.758-2.006c-5.83-6.086-13.325-7.334-21.055-7.246
		c-5.819,0.064-10.479-0.99-13.152-6.709c-1.907-4.082-5.243-5.504-9.739-5.463c-16.663,0.148-33.328-0.031-49.989,0.152
		c-1.992,0.021-4.378,1.057-5.873,2.406c-4.724,4.256-7.772,4.652-12.64,1.107c-3.392-2.475-6.896-4.785-11.358-7.865
		c-1.291-8.152,2.235-16.025,8.203-23.963c7.539,0,15.517-0.199,23.476,0.072c5.057,0.174,8.89-1.52,12.444-5.062
		c3.916-3.9,8.356-7.273,13.644-11.797c-0.399-1.062-1.237-3.41-2.168-5.721c-2.272-5.645-2.888-11.598,1.981-15.752
		c9.364-7.988,6.965-17.607,3.264-26.256c-3.404-7.951-4.428-15.693-4.945-24.09c-0.814-13.207-3.028-26.324-4.465-39.502
		c-0.646-5.926-0.853-11.898-1.245-17.854c-0.546-8.27-0.948-16.551-1.661-24.807c-0.508-5.875,1.646-9.162,7.627-10.961
		c2.913-0.875,5.763-1.963,9.493-3.25c-1.743-2.984-2.356-5.023-3.72-6.184c-4.617-3.936-6.193-8.812-7.134-14.744
		c-0.727-4.578-3.721-9.098-6.627-12.949c-3.179-4.213-7.069-8.088-11.282-11.271c-4.564-3.451-7.565-7.191-7.18-13.127
		c0.062-0.963-0.027-2.268-0.608-2.885c-6.151-6.562-6.905-15.258-9.806-23.18c-3.483-9.52-5.59-19.031-5.985-29.1
		c-0.393-9.939-0.944-19.896-2.054-29.775c-0.377-3.354-2.144-6.871-4.168-9.664c-6.207-8.553-12.761-16.855-19.354-25.117
		c-3.305-4.141-6.604-8.416-12.745-8.695c-1.893-0.086-3.893-0.965-5.575-1.943c-5.217-3.039-10.222-2.123-15.211,0.402
		c-2.662,1.348-5.649,2.395-7.78,4.35c-1.996,1.832-3.898,4.533-4.36,7.117c-1.164,6.502-1.984,13.152-1.998,19.746
		c-0.011,5.162,1.371,10.332,2.175,15.494c0.505,3.246,1.441,6.469,1.555,9.725c0.242,6.99,0.119,13.996,0.067,20.994
		c-0.052,6.992,2.664,12.57,9.298,15.018c5.375,1.982,7.176,5.291,6.744,10.615c-0.498,6.146,1.435,11.625,4.029,17.221
		c2.174,4.684,3.754,10.152,3.711,15.26c-0.145,16.928-1.203,33.848-1.77,50.775c-0.167,5.021-2.604,7.254-7.45,7.248
		c-4.573-0.008-9.148-0.002-15.081-0.002c0.93,4.268,1.186,7.172,2.195,9.783c4.408,11.398,2.5,21.48-6.08,30.121
		c-4.288,4.32-8.057,8.326-7.791,15.324c0.232,6.07,1.154,11.289,6.207,14.93c9.055,6.527,8.992,15.598,7.312,25.141
		c-2.265,12.863-6.83,24.936-12.697,36.564c-1.494,2.959-2.672,6.1-3.737,9.246c-1.935,5.701-1.333,11.561,1.849,16.357
		c7.104,10.707,5.572,20.678-0.934,30.787c-1.041,1.617-1.627,3.598-2.107,5.488c-1.104,4.328-2.823,7.898-7.07,10.295
		c-4.159,2.346-6.28,6.084-7.038,11.303c-1.431,9.85-2.841,10.57-13.314,10.59c-25.327,0.043-50.684-0.697-75.974,0.291
		c-11.864,0.465-17.4-5.621-22.24-14.363c-0.615-1.113-1.14-2.279-2.189-4.4c-10.836,0.611-21.805,0.637-32.596,2.029
		c-8.293,1.068-8.732,2.287-9.2,10.248c-0.903,15.379-0.329,18.521-19.643,18.211c-10.995-0.178-21.997,0.057-32.993-0.066
		c-4.476-0.049-8.231,0.826-11.974,3.773c-2.881,2.271-6.971,3.559-10.69,4.078c-4.905,0.688-10.005-0.139-14.965,0.309
		c-4.52,0.408-8.959,1.664-13.44,2.504c-2.595,0.486-5.194,1.158-7.812,1.268c-4.99,0.207-9.998-0.049-14.994,0.1
		c-20.93,0.611-41.857,1.842-62.787,1.818c-23.267-0.025-46.529-1.199-69.796-1.807c-9.528-0.248-11.177-1.357-12.607-9.129
		c-1.178-6.396,2.132-12.676,8.45-15.209c2.727-1.094,5.854-1.154,8.654-2.113c3.035-1.039,6.236-2.123,8.769-3.996
		c5.312-3.928,8.218-8.396,6.106-16.088c-4.939-17.984-4.393-36.783-6.49-55.205c-0.525-4.607-1.121-9.25-2.258-13.729
		c-0.516-2.031-2.045-4.303-3.785-5.424c-4.243-2.734-15.883-0.883-19.697,2.648c-7.677,7.111-8.941,16.756-2.904,25.525
		c2.303,3.344,2.666,6.312,1.758,10.238c-1.469,6.346-3.405,12.752-1.115,19.496c0.676,1.992,0.007,4.658-0.637,6.844
		c-2.249,7.637-5.055,15.119-7.065,22.811c-1.338,5.117-4.33,7.197-9.241,7.262c-3.332,0.043-6.67,0.133-9.996-0.018
		c-12.935-0.586-25.864-1.256-38.795-1.9c-1.993-0.1-4.047,0.033-5.967-0.404c-6.849-1.561-9.511-8.295-5.106-13.771
		c2.224-2.766,5.521-4.73,8.504-6.812c7.623-5.322,13.583-11.613,14.756-21.463c0.411-3.451,1.926-6.771,2.981-10.297
		c-1.146-0.406-2.187-1.193-2.941-0.98c-13.072,3.705-26.562,6.779-36.898,16.334c-4.593,4.246-9.409,5.744-15.362,5.48
		c-5.653-0.248-11.33,0.062-16.993-0.057c-5.059-0.105-8.156,2.066-9.441,7.021c-1.752,6.746-3.83,13.41-5.459,20.184
		c-1.684,6.99-3.186,8.871-9.828,8.648c-12.937-0.434-25.876-1.1-38.767-2.223c-2.433-0.213-6.104-2.635-6.607-4.68
		c-0.771-3.119,0.416-6.887,1.4-10.189c0.392-1.305,2.475-2.1,3.783-3.131c5.807-4.57,9.754-9.801,7.914-17.928
		c-1.137-5.018,0.996-8.924,5.486-11.756c3.603-2.271,4.374-5.787,4.84-10.176c1.049-9.887,1.625-18.32-9.197-24.135
		c-4.813-2.588-3.532-9.451-2.284-14.854c0.791-3.422,0.827-7.014,1.592-10.443c0.357-1.609,1.684-2.99,2.479-4.521
		c1.804-3.459,4.999-6.914,5.081-10.432c0.481-20.941,0.237-41.9,0.237-63.434c-3.969-0.648-7.42-1.215-10.324-1.689
		c-3.687-15.779-7.532-30.844-10.631-46.059c-1.646-8.084-2.854-16.441-2.769-24.66c0.225-21.604-0.431-43.426,2.438-64.732
		c3.129-23.258,2.97-46.408,3.479-69.658c0.134-6.031-1.084-11.281-5.151-15.611c-3.938-4.193-4.638-9.09-5.134-14.602
		c-1.484-16.506-3.631-32.953-5.601-49.414c-0.949-7.945,0.929-11.719,8.729-12.941c10.814-1.693,16.041-7.527,18.17-18.07
		c2.826-14.01,6.83-27.781,10.277-41.668c0.871-3.502,1.555-7.055,2.542-11.582c-10.971-4.906-21.246-10.361-32.104-14.139
		c-13.785-4.795-27.979-8.489-42.123-12.163c-9.918-2.573-18.873-8.253-29.47-8.752c-1.844-0.087-3.744-2.513-5.319-4.146
		c-6.35-6.583-14.017-9.342-23.632-8.901c-0.658,7.362-4.199,12.312-10.11,16.272c-6.617,4.434-5.859,12.504-6.56,19.164
		c-1.424,13.528-1.465,27.196-2.43,40.782c-0.323,4.557-1.37,9.145-2.695,13.533c-3.945,13.064-8.384,25.982-12.197,39.084
		c-1.09,3.736-0.957,7.9-0.959,11.871c-0.011,14.801-1.274,29.018-10.317,41.859c-2.32,3.295-1.57,9.789-0.374,14.326
		c3.253,12.33,5.423,24.721,4.638,37.445c-0.553,8.934-1.935,17.812-2.717,26.734c-0.312,3.553-0.647,7.303,0.118,10.717
		c3.72,16.58,7.077,33.166,6.691,50.295c-0.059,2.602,0.695,5.254,1.293,7.832c3.521,15.189,7.11,30.359,10.672,45.539
		c0.301,1.285,0.234,2.791,0.898,3.84c9.009,14.197,9.55,31.027,14,46.568c7.764,27.111,13.591,54.801,15.113,83.158
		c0.069,1.305,0.243,2.689,0.768,3.861c0.668,1.494,1.739,2.809,2.939,4.668c-5.834,2.541-6.414,7.486-6.403,13.104
		c0.016,8.523,0.759,16.928-3.227,25.371c-2.35,4.977-0.916,11.74-1.11,16.088c2.818,4.322,4.938,7.475,6.943,10.695
		c0.696,1.119,0.784,2.863,1.719,3.551c8.402,6.184,8.72,16.475,12.693,24.859c3.788,7.994,0.394,13.947-8.308,16.014
		c-1.296,0.309-2.578,0.963-3.866,0.961c-7.96-0.008-17.562,4.582-22.792-4.596c-3.771-6.615-10.884-11.547-10.111-21.016
		c0.582-7.109-1.524-14.441-2.544-22.531c-6.648-1.139-7.654-6.334-7.652-12.916c0.002-4.773-2.002-9.521-2.776-14.334
		c-1.054-6.525-1.509-13.156-2.733-19.645c-1.277-6.781-3.15-13.447-4.795-20.156c-1.105-4.516-2.391-8.994-3.373-13.535
		c-1.804-8.348-4.108-10.412-12.82-10.561c-7.664-0.129-15.332-0.107-22.996-0.023c-4.235,0.045-7.494-1.465-10.678-4.387
		c-12.475-11.461-25.217-22.629-37.858-33.904c-0.498-0.443-0.929-1.115-1.507-1.293c-12.493-3.832-19.946-15.014-30.922-21.141
		c-8.26-4.609-11.379-4.02-13.186,5.115c-3.997,20.207-7.534,40.502-11.273,60.76c-1.024,5.561-1.97,11.139-3.18,16.66
		c-3.143,14.336-5.025,28.701-5.035,43.496c-0.007,9.773-2.902,19.541-4.461,29.318c-0.52,3.266-1.069,6.537-1.312,9.828
		c-0.634,8.598-1.324,17.203-1.542,25.814C2478.479,1184.976,2479.448,1188.898,2480.221,1195.125z M2355.182,1162.974
		c1.842,1.068,2.387,1.645,2.973,1.688c10.584,0.771,21.17,1.518,31.764,2.152c1.273,0.076,2.645-0.375,3.874-0.836
		c11.632-4.357,16.815-17.273,11.823-28.758c-1.146-2.637-1.639-5.635-2-8.52c-1.147-9.195-2.223-18.402-3.086-27.631
		c-0.892-9.533-3.229-19.365-1.793-28.576c1.759-11.275,4.271-22.666,9.72-33.277c8.146-15.873,9.772-33.732,13.257-50.988
		c1.322-6.545,2.463-12.838,0.418-19.635c-1.538-5.115-0.895-10.375,4.081-14.455c1.961-1.607,2.947-5.008,3.397-7.75
		c2.74-16.682,5.308-33.395,7.668-50.133c0.551-3.906,0.555-8.025-0.01-11.928c-1.658-11.49-3.662-22.932-5.652-34.371
		c-1.99-11.43-3.707-22.926-6.313-34.217c-3.135-13.578-7.479-26.879-10.588-40.463c-4.963-21.676-10.18-43.354-11.056-65.723
		c-0.178-4.518-2.6-6.648-6.667-7.293c-2.289-0.361-4.651-0.234-6.966-0.479c-8.662-0.916-13.953-6.35-14.304-14.924
		c-0.217-5.322-0.264-10.666-0.053-15.984c0.303-7.613-0.226-15.521,1.713-22.734c1.923-7.168,2.505-12.814-3.714-17.816
		c-1.248-1.002-1.82-2.801-2.949-4.004c-5.127-5.463-10.466-10.121-11.242-18.908c-0.621-7.032-6.098-9.232-12.679-8.116
		c-0.179,0.619-0.588,1.272-0.5,1.853c3.722,24.609,7.492,49.208,11.246,73.814c0.633,4.143,0.954,8.795-4.329,9.557
		c-6.928,1-7.328,5.242-7.312,10.688c0.018,5.945,0.649,12.307-1.182,17.748c-3.234,9.621-4.44,19.268-4.848,29.277
		c-0.389,9.596-1.938,19.141-2.434,28.736c-0.354,6.869-1.209,14.172,0.58,20.609c6.183,22.271,8.191,45.131,9.58,67.916
		c0.936,15.355,1.067,30.486,7.241,44.898c1.009,2.355,0.703,5.244,1.211,7.848c1.146,5.859,1.274,12.279,3.892,17.416
		c4.731,9.293,7.554,18.379,4.633,28.703c-0.342,1.217-0.012,2.615-0.02,3.932c-0.039,6.229-0.097,12.461-0.129,18.691
		c-0.017,2.982-0.15,5.975,0.047,8.943c0.418,6.285,1.431,12.555,1.47,18.836c0.165,26.646-0.001,53.297,0.115,79.943
		c0.021,4.959,1.175,9.918,1.121,14.869c-0.104,9.566,0.278,19.305-1.405,28.637c-1.264,7.004-5.663,13.396-8.234,20.227
		C2356.23,1155.919,2355.873,1159.757,2355.182,1162.974z M3361.994,992.876c0.449-0.004,0.899-0.008,1.351-0.014
		c-1.444-16.484-3.091-32.955-4.213-49.461c-0.343-5.053-1.793-9.168-5.706-12.137c-8.963-6.797-12.011-16.18-12.635-26.893
		c-0.365-6.271-1.513-12.496-1.821-18.768c-0.239-4.9-2.155-8.779-6.7-10.004c-4.795-1.291-6.734,3.129-8.906,6.428
		c-0.364,0.555-0.633,1.18-1.032,1.705c-2.548,3.336-5.722,6.354-7.555,10.039c-3.472,6.98-8.445,14.246-8.748,21.561
		c-0.707,17.082,6.022,33.42,8.024,50.441c1.055,8.951,5.517,18.096,8.476,27.066c3.669,11.119,4.575,21.916,4.702,33.199
		c0.056,4.893-0.942,9.033-4.471,12.727c-1.667,1.746-3.498,4.889-3.027,6.869c2.812,11.826,2.425,23.047-4.08,33.66
		c-0.321,0.523-0.438,1.316-0.34,1.936c0.953,5.951-2.767,9.105-6.966,12.121c-1.601,1.148-2.991,2.66-4.259,4.189
		c-3.967,4.787-3.877,10.16,0.882,14.025c2.715,2.209,6.42,3.166,9.577,4.875c3.092,1.674,7.012,2.914,8.861,5.545
		c3.263,4.643,6.746,5.551,11.918,4.295c10.803-2.627,13.724-5.742,13.573-17.326c-0.118-9.174,2.101-17.619,5.252-26.139
		c2.904-7.852,6.091-16.066,6.535-24.266C3361.875,1036.705,3361.656,1014.777,3361.994,992.876z M2931.684,979.228
		c-5.985,1.053-5.682,4.834-6.479,8.453c-2.14,9.699-0.572,20.346-8.873,28.523c-4.422,4.354-3.71,9.975,1.061,15.105
		c2.727,2.932,3.834,7.367,5.799,11.389c5.044,0,10.228,0,14.854,0c1.97-5.324,3.956-9.848,5.271-14.559
		c0.847-3.035,1.217-6.398,0.878-9.518c-0.419-3.852-1.387-7.77-2.862-11.35c-1.861-4.512-5.029-8.521-6.614-13.1
		C2933.074,989.425,2932.648,984.253,2931.684,979.228z"/>
	<path d="M1108.818,1020.158c1.261-0.305,2.548-0.943,3.785-0.857c5.527,0.389,8.479-2.291,10.443-7.289
		c1.409-3.584,1.95-8.75,8.112-7.893c0.584,0.082,1.474-1.248,2.053-2.045c4.667-6.438,9.292-12.9,13.431-18.662
		c4.384,0.248,8.448,1.264,12.158,0.514c6.267-1.266,9.895,2.797,14.408,5.402c2.377,1.371,5.147,2.062,7.739,3.061
		c0.947-3.025,2.592-6.037,2.649-9.078c0.061-3.197-0.515-7.09-2.347-9.523c-7.477-9.939-6.241-22.133-9.33-33.17
		c-1.239-4.436-1.699-9.152-1.969-13.773c-0.228-3.902-1.603-6.646-4.364-9.547c-4.904-5.152-9.36-10.527-6.249-19.076
		c1.732-4.758,1.351-10.496-2.81-15.043c-1.473-1.607-1.94-4.146-2.824-6.275c-3.244-7.826-6.47-9.562-16.082-8.174
		c-7.213-7.773-14.318-16.205-22.271-23.74c-5.745-5.443-6.501-11.082-4.179-18.031c6.325-18.916,12.627-37.84,18.73-56.828
		c2.578-8.018,0.581-11.371-7.568-13.658c0-4.17-0.488-8.51,0.144-12.678c0.583-3.852,2.368-7.521,3.545-11.033
		c-5.869-5.236-8.212-11.23-6.78-18.352c1.052-5.23,0.938-9.955-3.431-13.713c-11.312-9.732-16.581-23.305-21.77-36.498
		c-5.442-13.838-10.021-28.162-8.335-43.645c1.736-15.945,2.695-31.979,15.312-44.134c1.333-1.284,2.239-3.363,2.625-5.222
		c4.011-19.348,11.519-37.593,20.321-54.96c4.413-8.705,13.147-16.01,21.448-21.749c9.846-6.811,13.979-15.041,14.731-26.565
		c0.396-6.057,3.202-12.071,5.53-17.856c2.708-6.73,5.745-13.381,9.278-19.707c2.798-5.012,3.923-10.06,1.988-15.279
		c-1.46-3.94-0.642-6.715,1.401-10.178c2.475-4.196,3.43-9.267,5.713-13.604c3.209-6.103,6.262-12.572,10.783-17.632
		c6.377-7.135,14.129-13.026,21.098-19.657c2.254-2.146,5.202-4.761,5.572-7.471c1.306-9.516,1.798-19.158,2.282-28.769
		c0.92-18.227,2.244-36.366,7.392-54.024c1.199-4.119,1.936-8.456,2.246-12.738c1.341-18.432,12.612-29.328,27.834-37.312
		c2.65-1.389,5.355-2.718,8.146-3.79c13.068-5.022,25.752-10.576,37.365-18.727c8.344-5.858,18.149-9.6,26.701-15.206
		c5.079-3.33,10.26-7.392,12.483-14.722c-2.817-0.685-5.356-0.937-7.582-1.91c-6.402-2.802-10.98-7.566-12.997-14.297
		c-1.428-4.762-2.712-9.682-3.087-14.604c-0.235-3.091,0.28-7.538,2.281-9.256c5.659-4.86,4.604-10.087,3.527-16.218
		c-0.908-5.174-0.881-10.738-0.025-15.926c0.667-4.057,2.459-8.459,5.094-11.573c11.979-14.155,27.994-21.349,45.984-23.694
		c5.688-0.741,11.936,0.964,17.646,2.557c18.499,5.155,35.163,14.084,50.072,26.156c5.906,4.783,9.746,19.719,5.643,26.719
		c-4.93,8.407-3.653,17.562-4.295,26.082c-1.113,14.798,0.762,29.822,1.377,44.75c0.028,0.666-0.021,1.335,0.017,2
		c0.382,7.134,2.183,9.99,9.032,10.87c9.494,1.218,16.567,5.755,22.992,12.593c3.98,4.236,9.096,7.622,14.191,10.527
		c4.234,2.415,6.079,5.863,7.336,10.111c4.229,14.297,14.48,19.987,29.353,17.697c8.116-1.25,16.539-0.372,24.786-0.967
		c3.048-0.22,7.124-1.013,8.771-3.096c5.197-6.566,12.529-7.378,19.687-8.696c3.443-0.635,7.102-0.109,11.188-0.109
		c0.372-7.038,1.453-13.056,0.731-18.849c-0.488-3.918-2.733-8.331-5.584-11.077c-4.439-4.273-10.325-7.006-15.085-11.001
		c-2.964-2.489-5.188-5.973-7.322-9.281c-0.759-1.176-1.006-3.913-0.245-4.645c6.585-6.331,3.641-14.364,4.246-21.733
		c0.189-2.317-0.026-4.664,0.038-6.996c0.246-8.856,3.422-13.109,12.004-16.158c10.426-3.704,12.542-6.058,14.948-17.211
		c2.287-0.251,4.83-0.795,7.36-0.757c7.263,0.108,13.622-0.922,18.441-7.562c3.322-4.577,11.629-4.199,18.432-0.656
		c6.151,3.205,12.381,6.27,18.668,9.199c6.095,2.838,11.64,6.121,15.347,12.108c3.851,6.219,8.295,12.069,12.3,18.198
		c1.246,1.907,2.386,4.117,2.756,6.325c2.799,16.693,7.569,33.171,6.112,50.36c-0.333,3.931-0.656,8.091-2.168,11.642
		c-2.776,6.521-3.14,12.958-0.819,19.418c1.16,3.229,2.839,6.802,5.369,8.916c10.967,9.157,21.892,18.491,33.727,26.428
		c6.712,4.5,15.056,6.699,22.847,9.409c5.311,1.847,10.88,3.205,16.443,3.999c4.643,0.661,7.606,2.229,10.264,6.485
		c3.924,6.294,8.146,12.462,15.404,16.234c3.103,1.612,5.162,6.808,6.019,10.739c0.962,4.421,0.943,9.511-0.271,13.856
		c-2.462,8.794,0.365,16.245,3.779,23.932c1.433,3.226,2.497,6.83,2.729,10.328c0.438,6.624,0.423,13.309,0.101,19.943
		c-0.381,7.836,2.563,14.213,7.373,20.066c6.328,7.704,6.449,11.807,0.898,20.282c1.261,2.981,3.328,5.868,3.556,8.892
		c0.336,4.495,0.934,8.531,4.203,11.87c0.665,0.68,1.327,1.723,1.351,2.614c0.322,12.512,3.015,25.198-1.754,37.397
		c-1.934,4.943-2.905,10.057,0.008,14.312c6.659,9.729,6.938,20.425,6.459,31.461c-0.188,4.325-0.011,8.664-0.044,12.997
		c-0.029,3.86,0.944,8.141-4.614,9.49c-0.874,0.212-1.313,2.135-1.994,3.242c-3.105,5.062-6.983,26.375-6.673,32.336
		c0.308,5.893-0.768,11.848-0.639,17.763c0.518,23.59,1.315,47.176,1.896,70.766c0.13,5.225,0.931,10.617-4.37,14.553
		c-1.373,1.02-1.427,4.246-1.513,6.48c-0.207,5.324-0.205,10.666-0.008,15.992c0.084,2.248,0.125,5.211,1.475,6.57
		c5.168,5.201,4.245,11.559,4.502,17.838c0.217,5.279,0.602,10.584,1.418,15.797c1.291,8.24,0.8,10.514-6.709,14.574
		c-5.14,2.781-7.137,6.43-6.806,12.041c0.275,4.648-0.101,9.334,0.087,13.992c0.341,8.486-0.983,16.254-5.642,23.803
		c-3.589,5.82-6.441,12.68-7.354,19.387c-0.808,5.934,1.521,12.295,2.454,18.469c0.837,5.545,1.804,11.074,2.454,16.641
		c0.73,6.242,1.227,12.516,1.711,18.781c0.231,2.982,1.067,6.291,0.14,8.926c-3.306,9.375,0.352,18.367,0.442,27.367
		c10.243,5.246,14.751,15.303,20.721,23.766c2.26,3.205,1.477,9.129,0.885,13.656c-1.393,10.65,1.89,19.193,10.654,25.098
		c9.283,6.252,7.929,15.324,7.041,24.139c-0.258,2.564-2.521,5.641-4.765,7.139c-4.307,2.877-4.722,6.639-4.89,11.174
		c-0.367,9.932-0.996,19.865-1.949,29.756c-0.504,5.238-2.017,10.371-2.878,15.586c-1.131,6.842-2.603,13.688-2.952,20.582
		c-0.432,8.492-3.314,16.77-0.908,25.666c0.796,2.951-3.098,7.691-5.713,10.91c-3.234,3.98-4.88,7.822-2.68,13.393
		c2.973,1.086,6.341,2.316,8.996,3.285c3.648,5.385,7.178,10.102,10.184,15.133c5.044,8.445,4.289,8.48-2.921,15.48
		c-5.896,5.727-12.249,6.941-19.907,6.811c-18.659-0.322-37.325-0.098-55.99-0.094c-3.297,0-6.595,0-9.796,0
		c-3.614-6.027-4.103-11.6-2.366-17.723c1.467-5.17,1.711-10.42-1.429-15.398c-0.969-1.535-1.722-4.174-1.06-5.609
		c3.119-6.773-0.408-11.432-4.346-16.115c-3.125-3.717-3.875-8.014-4.498-12.822c-3.642-28.221-0.901-56.537-1.881-84.783
		c-0.458-13.26-1.223-26.514-2.076-39.758c-0.142-2.191-1.298-4.379-2.254-6.445c-2.24-4.84-1.947-9.535-0.201-14.498
		c1.282-3.648,2.377-7.57,2.468-11.396c0.299-12.643,0.107-25.295,0.104-37.943c-0.003-7.613,0.838-15.369-4.024-22.115
		c-0.565-0.785-1.093-1.846-1.073-2.766c0.349-17.188-8.162-32.719-9.115-49.74c-0.477-8.523-2.76-16.998-4.735-25.373
		c-2.573-10.916-5.895-21.654-8.389-32.584c-0.944-4.145-0.479-8.607-0.67-12.926c-0.548-12.344-14.6-20.402-25.095-13.967
		c-5.032,3.084-10.699,6.693-13.438,11.555c-3.235,5.742-4.701,13.041-5.021,19.756c-0.708,14.965-0.238,29.986-0.206,44.982
		c0.004,1.654-0.221,3.58,0.508,4.918c5.682,10.447,2.488,21.178,2.137,32.068c-0.466,14.453-1.515,29.08-0.067,43.463
		c1.239,12.334,2.127,24.371-0.196,36.641c-0.781,4.121-0.062,8.594,0.359,12.867c0.943,9.559,2.604,19.072,3.021,28.646
		c0.205,4.736-1.309,9.686-2.746,14.32c-1.77,5.699-1.774,9.309,3.435,11.996c11.837,6.105,13.443,15.053,9.849,26.705
		c-1.509,4.891-1.54,10.238-2.252,15.438c-4.454,0.496-7.679,0.855-11.201,1.244c-2.876,13.758-3.489,26.963-1.654,40.719
		c1.685,12.625,2.457,25.408-4.98,37.736c-5.467,9.062-8.8,19.586-10.687,30.488c-2.198,12.711-12.58,20.264-25.41,20.369
		c-6.664,0.055-13.338,0.215-19.995-0.021c-12.046-0.424-23.497,0.531-34.822,6.023c-6.188,3.002-14.215,2.455-21.451,2.99
		c-7.867,0.584-15.679-0.502-23.412,3.273c-3.524,1.721-9.223,0.574-13.337-0.918c-4.627-1.678-8.8-2.344-13.556-1.248
		c-3.201,0.738-6.587,0.912-9.893,0.924c-22.327,0.074-44.655,0.039-67.019-0.428c3.958-0.281,7.916-0.562,12.563-0.895
		c0-3.842,0-7.246,0-12.004c-10.358-0.377-20.235-1.074-30.105-0.982c-7.37,0.068-8.548,0.053-9.011-6.916
		c-0.355-5.35-2.134-8.639-7.189-10.639c-5.237-2.072-7.143-6.453-7.047-12.035c0.183-10.633,0.497-21.102,2.618-31.715
		c2.301-11.523,3.809-23.26,2.941-35.459c-0.546-7.678-3.502-17.178,3.747-24.432c1.089-1.09,0.604-3.812,0.729-5.787
		c0.146-2.326-0.447-4.895,0.342-6.949c5.978-15.576-1.938-25.57-13.313-34.354c-6.505-5.021-8.104-7.756-11.92-19.459
		c-6.137-1.416-12.154-1.943-17.518,2.975c-1.148,1.053-2.932,1.682-4.515,1.939c-5.208,0.852-6.658,4.66-8.109,8.984
		c-1.669,4.975-4.453,9.592-5.946,14.604c-1.482,4.975-2.707,10.244-2.726,15.391c-0.033,9.186-0.2,17.82-7.839,24.695
		c-3.812,3.43-2.9,7.896,0.629,11.514c1.621,1.662,3.271,3.479,5.269,4.559c5.759,3.107,5.863,8.268,5.812,13.779
		c-0.05,5.512-1.372,9.641-7.491,11.27c-3.688,0.98-4.301,4.416-4.601,8.016c-0.727,8.709-3.196,16.885-9.08,23.656
		c-3.448,3.969-3.423,7.924,0.335,11.451c2.611,2.451,5.448,4.99,8.663,6.41c12.301,5.432,14.644,19.059,4.215,27.615
		c-3.152,2.588-7.091,4.406-5.901,9.236c0.567,2.301,2.457,4.277,3.546,6.07c-24.21,0-49.534,0.047-74.856-0.02
		c-14.38-0.037-21.205-10.895-14.087-23.279c4.023-7,5.653-14.037,5.338-21.895c-0.241-5.988,0.109-12-0.093-17.992
		c-0.237-6.977-1.497-8.656-8.094-8.559c-12.944,0.188-25.88,1.016-38.82,1.525c-4.658,0.186-9.322,0.295-13.984,0.307
		c-19.987,0.045-39.977,0.248-59.958-0.021c-12.911-0.172-17.656-4.805-16.904-17.896c0.777-13.537,2.569-27.074,4.86-40.451
		c2.065-12.062,5.44-23.896,8.142-35.854c0.354-1.561,0.556-3.391,0.088-4.857
		C1104.534,1035.068,1106.355,1027.753,1108.818,1020.158z M1588.555,1153.376c-9.688-7.328-11.524-17.334-11.36-28.539
		c0.067-4.715-1.96-9.824-4.227-14.127c-4.178-7.93-4.235-15.828-2.15-24.176c3.146-12.6,5.719-25.35,4.515-38.393
		c-0.604-6.541-3.31-12.92-3.65-19.443c-1.094-20.898-1.726-41.826-2.037-62.75c-0.062-4.055,1.516-8.457,3.41-12.148
		c4.007-7.805,6.692-15.582,6.608-24.633c-0.091-9.775,2.195-19.619-2.16-29.059c-0.129-0.279-0.021-0.662-0.051-0.992
		c-1.33-15.174-2.787-30.336-3.926-45.521c-0.384-5.123-0.485-10-5.845-12.805c-0.964-0.506-2.043-2.053-1.981-3.051
		c0.388-6.227,0.151-12.723,1.971-18.553c1.472-4.719,1.935-8.814,0.79-13.498c-1.806-7.404-3.685-14.844-4.685-22.379
		c-2.223-16.738-4.25-33.518-5.712-50.334c-0.945-10.879-2.291-21.971,1.635-32.633c2.599-7.059,2.721-13.568-2.28-19.764
		c-1.158-1.434-1.889-3.715-1.809-5.561c0.299-6.834-3.487-10.27-9.225-12.676c-2.057-0.863-4.864-2.334-5.374-4.092
		c-2.904-10.041-10.735-9.529-18.47-9.168c-7.413,0.348-10.725,4.391-9.838,11.701c0.759,6.248,2.183,12.457,2.426,18.717
		c0.282,7.262-0.113,14.586-0.76,21.834c-0.522,5.859-2.354,11.613-2.728,17.471c-0.97,15.236-0.162,30.715-2.604,45.682
		c-1.556,9.529,0.733,16.752,4.819,24.475c4.972,9.398,9.67,18.939,14.423,28.451c5.136,10.277,4.525,12.709-4.593,18.959
		c-5.723,3.922-11.654,7.574-17.105,11.842c-2.165,1.697-3.973,4.531-4.745,7.195c-2.211,7.631-3.545,15.516-5.755,23.145
		c-1.223,4.221-0.885,7.379,1.726,11.115c2.113,3.025,3.566,7.197,3.583,10.871c0.046,10.508,3.676,21.02,0.199,31.539
		c-0.198,0.602-0.158,1.361,0.003,1.986c1.854,7.201,0.521,14.338,0.192,21.596c-1.21,26.895-1.562,53.83-2.229,80.75
		c-0.033,1.332,0.187,2.699-0.041,3.992c-0.731,4.18-1.183,8.482-2.546,12.463c-2.082,6.072-2.394,12.037,1.513,17.104
		c3.254,4.223,5.881,7.945,3.531,13.479c-0.333,0.783,0.586,2.84,1.438,3.252c2.939,1.424,2.765,2.977,1.352,5.518
		c-1.754,3.154-3.243,6.52-4.338,9.953c-0.978,3.066-2.582,6.838-1.622,9.459c3.568,9.744,2.456,19.736,2.917,29.66
		c0.044,0.941,0.504,1.863,0.855,3.092c2.661,0.979,5.381,1.979,6.376,2.344c2.832,4.754,4.067,8.984,6.891,11.094
		c4.971,3.715,10.734,6.562,16.509,8.939c3.791,1.561,5.119,3.838,5.158,7.49c0.022,2-0.073,4.008,0.072,5.996
		c0.494,6.74,2.778,9.9,9.326,10.961c4.149,0.672,8.551,0.158,12.8-0.238c4.506-0.422,7.561-3.146,7.807-7.688
		c0.286-5.258,3.318-8.371,6.874-11.59C1579.808,1166.816,1585.562,1162.132,1588.555,1153.376z"/>
	<path d="M1084.619,586.639c-3.562-8.024-8.633-13.543-15.838-15.372c-7.132-1.811-9.812-5.605-10.197-12.411
		c-0.416-7.323-3.302-13.438-10.661-17.414c-2.3,3.576-0.306,7.092,0.586,10.171c3.7,12.755,8.216,25.319,7.622,38.892
		c-0.184,4.208-0.568,8.417-1.066,12.602c-0.977,8.212-2.555,16.382-3.021,24.617c-0.423,7.5-2.042,14.316-7.326,21.764
		c-2.842-13.018-2.396-25.848-11.164-37.678c9.517,53.914,17.147,106.328,18.113,158.791c-2.021,1.072-2.567,1.58-3.161,1.646
		c-14.496,1.59-15.183,1.527-16.291,15.561c-1.124,14.221-0.688,28.562-0.963,42.854c-0.17,8.768-0.062,9.24-8.665,11.625
		c-5.502,1.523-7.466,4.848-8.284,9.766c-4.742,28.492-9.718,56.949-14.104,85.498c-1.205,7.838-1.319,15.99-0.787,23.92
		c1.687,25.105-0.307,49.891-5.673,74.391c-4.32,19.725-8.839,39.418-13.96,58.943c-2.208,8.418-6.551,16.252-9.228,24.574
		c-4.552,14.166-8.552,28.508-12.97,43.396c6.756,7.389,13.321,14.566,21.348,23.344c-7.309,0.383-12.705,0.668-18.103,0.951
		c6.604-0.857,14.77,5.766,20.108-4.766c11.668,5.461,23.524,11.01,36.153,16.918c-0.935,1.762-1.589,2.992-2.598,4.893
		c3.038-0.357,5.653-0.668,8.571-1.014c-0.338,2.799-0.664,5.494-1.071,8.865c-0.474,0.197-1.636,1.037-2.857,1.133
		c-14.196,1.119-28.388,2.473-42.61,3.059c-12.814,0.525-25.672,0.473-38.494,0.102c-7.433-0.215-14.677-1.834-17.428-9.658
		c-7.256,0-13.969,0-21.986,0c1.962,3.787,3.245,6.262,4.87,9.396c-6.645,0-12.513,0-19.101,0c-0.251-2.664-0.513-5.416-0.886-9.354
		c-7.302-0.744-14.476-1.973-21.669-2.098c-11.928-0.207-23.868,0.285-35.803,0.498c-8.658,0.154-17.34,0.779-25.967,0.338
		c-5.242-0.268-11.662,1.639-15.103-4.834c-6.198,0.275-12.419,0.312-18.587,0.904c-4.216,0.404-8.354,2.283-12.534,2.307
		c-41.322,0.227-82.645,0.193-123.968,0.262c-2.656,0.006-5.411-0.195-7.95,0.408c-10.331,2.467-20.449,1.748-31.083-1.51
		c-0.604-1.471-1.047-3.482-2.154-5.014c-1.518-2.1-4.276-5.779-5.23-5.418c-7.37,2.793-12.674-3.721-19.585-3.529
		c-15.829,0.441-31.692-0.221-47.538-0.572c-16.61-0.371-33.22-0.795-49.823-1.402c-11.585-0.424-14.878-6.266-11.13-17.309
		c1.752-5.166,3.286-11.387,1.965-16.344c-1.325-4.977-0.232-8.572,1.072-12.844c3.933-12.869,5.1-25.918,1.945-39.191
		c-0.524-2.205-0.238-4.607-0.291-6.918c-0.045-1.986,0.376-4.088-0.133-5.939c-1.555-5.662-2.947-11.455-5.318-16.791
		c-7.989-17.975-8.297-37.336-11.023-56.299c-1.043-7.25-0.578-14.842-6.397-21.324c-2.78-3.096-2.5-9.402-2.642-14.285
		c-0.164-5.598,0.96-11.219,1.113-16.842c0.12-4.395,0.292-8.441,3.406-12.131c1.57-1.859,2.15-4.801,2.554-7.354
		c0.879-5.553,1.495-11.156,1.937-16.764c0.204-2.613,0.592-5.729-0.539-7.854c-6.258-11.744-2.099-24.223-3.048-36.312
		c-0.072-0.932,0.176-2.404,0.796-2.797c9.472-5.959,4.341-16.184,7.085-24.1c2.907-8.389,1.396-16.889,0.4-25.584
		c-1.28-11.189-0.467-22.621-0.523-33.947c-0.034-6.666-0.384-13.357,0.094-19.988c0.521-7.242-1.791-13.082-7.001-17.852
		c-3.396-3.109-4.604-6.826-5.282-11.371c-1.117-7.477-3.611-14.738-5.03-22.186c-0.669-3.514-0.302-7.248-0.208-10.877
		c0.248-9.594,0.314-19.203,0.992-28.77c0.763-10.787,0.199-20.59-8.507-28.941c-2.751-2.641-3.209-8.887-2.835-13.322
		c0.829-9.824,2.876-19.543,4.368-29.312c0.339-2.221,1.425-5.083,0.482-6.617c-5.384-8.751-2.822-18.246-2.851-27.366
		c-0.034-10.926,1.305-21.849,1.702-32.784c0.186-5.11,0.037-9.917,5.148-13.155c1.429-0.905,2.508-3.225,2.729-5.021
		c0.937-7.561,1.928-15.161,2.035-22.76c0.08-5.732,1.782-10.033,5.769-14.21c4.542-4.756,8.275-10.317,12.066-15.735
		c1.257-1.8,2.001-4.181,2.305-6.39c1.948-14.152,6.155-27.083,17.383-36.959c5.693-5.007,11.19-10.381,15.938-16.268
		c3.016-3.738,6.584-8.874,6.271-13.115c-1.02-13.834,6.116-25.845,7.129-39.043c0.478-6.201,0.22-12.462,0.165-18.696
		c-0.127-14.968-0.538-29.938-0.35-44.902c0.045-3.592,1.091-6.887-0.632-10.583c-0.925-1.985,0.281-5.014,0.676-7.55
		c0.354-2.269,1.986-5.037,1.184-6.661c-2.781-5.633,0.539-9.191,2.966-13.554c3.026-5.441,4.941-11.488,7.663-17.114
		c1.242-2.567,2.782-5.496,5.033-6.972c6.363-4.173,12.837-8.513,19.861-11.276c14.736-5.796,29.964-8.334,45.805-3.951
		c6.083,1.682,12.556,2.443,18.526-0.861c5.973-3.307,10.804-0.875,15.681,2.496c2.669,1.846,5.48,3.583,8.436,4.905
		c8.466,3.788,16.289,8.075,20.182,17.305c2.55,6.047,6.998,9.541,14.127,8.547c2.616-0.365,5.334-0.212,7.988-0.03
		c4.715,0.322,8.041-1.297,11.006-5.259c6.057-8.093,13.115-13.747,24.271-15.577c8.821-1.446,17.488-3.021,26.458-3.267
		c7.445-0.205,9.022-2.799,5.986-9.411c-2.217-4.831-4.375-9.874-7.59-14.024c-9.412-12.153-7.941-42.618,3.71-54.458
		c5.979-6.076,12.015-12.534,20.771-14.97c0.962-0.268,2.018-0.429,2.837-0.945c16.359-10.301,33.546-7.91,49.566-0.78
		c15.814,7.039,30.106,16.975,34.771,35.771c2.297,9.252,5.523,18.272,8.261,27.172c1.745-0.632,4.88-2.757,7.962-2.683
		c7.306,0.175,13.593-1.035,18.06-7.397c0.542-0.771,1.523-1.527,2.418-1.707c6.239-1.254,7.16-5.914,7.227-10.003
		c3.89-2.99,7.15-5.488,10.402-7.998c1.563-1.207,3.161-3.532,4.659-3.465c6.877,0.306,11.78-5.228,18.501-5.69
		c2.31-0.159,4.352-4.182,7.317-7.277c1.627,0.203,4.476,0.562,7.268,0.91c5.434-7.269,10.587-8.719,20.62-5.211
		c4.037,1.411,8.06,3.289,11.542,5.731c3.169,2.223,5.863,4.08,9.953,2.621c0.909-0.324,2.407,1.264,3.718,1.74
		c1.593,0.579,3.351,1.464,4.904,1.25c4.309-0.593,8.548-1.687,14.229-2.88c0.236-1.627,0.729-4.991,1.341-9.188
		c8.539,6.807,13.607,18.987,27.506,18.206c-2.542,1.336-5.082,2.673-7.877,4.143c2.528,5.703,7.406,6.645,13.018,8.021
		c-0.544-2.417-0.987-4.396-1.509-6.715c3.773,1.165,7.367,2.274,11.247,3.471c-2.217,5.081,2.773,6.74,5.061,10.123
		c-1.313,0.807-2.819,1.731-4.474,2.746c2.577,11.164,11.703-0.207,16.133,5.308c-0.491,0.546-0.927,1.235-1.543,1.662
		c-0.805,0.557-1.755,0.904-2.834,1.437c-0.159,6.071,2.53,10.716,6.849,14.724c3.572,3.316,6.838,6.971,10.49,10.193
		c1.7,1.501,3.065,2.793,6.423,2.765c6.753-0.055,9.593,8.532,5.978,15.867c-0.73,1.486-2.176,2.621-3.292,3.919
		c-7.267-7.912-7.267-7.912-14.959-6.622c5.871,4.897,12.252,8.931,13.244,17.413c-5.897,1.333-9.357-2.976-13.938-5.538
		c6.484,10.339,16.465,19.44,11.666,34.059c6.214-0.242,6.559,3.621,6.2,8.025c-7.234,0.992-6.943,0.915-8.897-6.502
		c-0.5-1.899-3.476-3.147-6.107-4.33c5.108,8.586,0.679,16.564-0.566,24.542c-1.273,8.174-2.724,8.565-10.371,3.405
		c-1.09,3.675-2.104,7.093-3.354,11.31c-3.776-1.104-7.715-2.253-11.835-3.457c-0.339,1.498-0.764,3.374-1.199,5.295
		c-3.41-0.873-6.749-1.728-9.693-2.48c-1.358,4.208-2.465,7.633-4.169,12.911c1.688,1.099,4.698,3.328,7.951,5.121
		c12.186,6.717,24.676,12.912,36.62,20.028c10.839,6.457,14.875,17.745,17.76,29.691c-3.285-4.001-6.569-8.003-9.854-12.004
		c-0.532,0.279-1.066,0.56-1.601,0.838c0,6.457-1.609,13.439,0.294,19.277c6.325,19.391,4.293,39.947,9.483,59.388
		c0.198,0.74,1.406,1.209,3.536,2.93c2.599-23.14,2.949-45.007-2.354-67.648c7.745,3.897,12.059,10.709,10.893,16.747
		c-4.277,22.16-1.176,44.418-1.276,66.635c-0.041,8.918-0.959,17.832-1.381,26.751c-0.658,13.916-0.815,27.87-1.973,41.742
		c-0.991,11.878-2.931,23.689-4.802,35.476C1087.906,580.064,1086.113,582.932,1084.619,586.639z M763.796,986.656
		c-0.478-3.996-2.055-10.271-1.758-16.455c0.386-7.998-2.642-12.941-9.215-17.184c-9.629-6.217-16.805-4.107-19.903,7.301
		c-1.728,6.354-2.27,13.023-3.536,19.514c-4.247,21.775-8.641,43.521-12.798,65.312c-0.472,2.471-0.636,5.607,0.479,7.666
		c4.974,9.182,3.245,18.93,2.208,28.299c-0.564,5.104-0.598,9.818,0.628,14.602c1.629,6.369,3.179,12.812,5.547,18.92
		c2.083,5.375,5.668,9.805,12.2,10.379c6.554,0.576,11.599-1.852,15.396-7.244c2.47-3.506,4.743-7.422,7.996-10.047
		c7.028-5.668,7.426-12.756,6.181-20.691c-0.715-4.561-1.396-9.193-1.357-13.787c0.112-13.174-1.784-26.34-0.064-39.527
		c0.339-2.594,0.021-5.318-0.289-7.947c-1.326-11.248-5.469-22.336-1.754-33.857C764.049,991,763.796,989.921,763.796,986.656z
		 M928.179,921.82c-1.107,1.73-2.486,3.166-3.042,4.871c-3.387,10.402-7.772,20.664-9.606,31.354
		c-4.021,23.439-10.101,46.545-11.595,70.428c-0.782,12.498-2.485,24.938-3.719,36.861c2.15,1.34,3.839,2.391,5.633,3.508
		c-2.44,2.809-5.164,4.654-5.973,7.127c-1.837,5.613-3.321,11.479-3.89,17.344c-1.149,11.855-1.275,23.811-2.432,35.664
		c-0.888,9.121-1.816,17.896,0.836,27.105c2.791,9.686-1.833,16.244-11.717,19.715c-3.509,1.234-7.095,2.25-12.579,3.971
		c11.267,4.311,20.618,6.539,31.472,6.348c-0.714-3.311-1.127-5.5-1.668-7.66c-0.532-2.125-1.194-4.215-1.833-6.438
		c5.573-0.896,9.917-0.561,12.035,4.492c8.604-4.404,9.838-12.127,9.18-20.693c-0.279-3.637-0.562-7.279-0.612-10.924
		c-0.086-6.188-0.129-12.381,0.058-18.564c0.518-17.184,1.324-34.359,1.699-51.545c0.26-11.928-1.226-24.016,0.229-35.764
		c2.564-20.727,6.646-41.271,10.34-61.846C934.308,958.697,935.773,940.371,928.179,921.82z M861.178,347.146
		c10.544-6.519,5.975-12.035,4.781-17.206c-12.981-2.777-16.393-5.808-16.217-14.986c0.061-3.177,2.595-6.811,1.649-9.366
		c-0.974-2.637-5.078-3.958-7.32-6.324c-2.848-3.001-5.198-6.477-8.453-10.626c-0.854-8.479,4.132-18.148,0.417-28.06
		c-0.646-1.723,0.979-4.357,1.699-6.521c1.884-5.669,3.847-11.312,5.777-16.965c-0.829-0.4-1.656-0.8-2.485-1.201
		c-1.597,2.54-3.755,4.894-4.67,7.659c-1.983,5.999-6.453,10.107-11.901,10.425c-5.991,0.35-8.298,3.613-10.304,7.744
		c-2.127,4.382-3.539,9.113-5.626,14.655c3.855,1.986,7.146,4.085,10.719,5.447c10.75,4.095,15.13,12.086,14.921,23.153
		c-0.037,1.991-0.336,4.104,0.2,5.951c1.001,3.453,1.799,7.346,3.967,10.01C845.634,329.911,853.502,338.426,861.178,347.146z
		 M984.298,1208.158c-0.19-0.879-0.381-1.76-0.571-2.641c-18.567,0-37.136,0-55.11,0c2.948,1.465,6.315,3.311,9.836,4.793
		c1.342,0.566,3.286,0.875,4.526,0.328c8.344-3.684,16.832-2.428,25.4-1.354c3.93,0.492,7.938,0.547,11.902,0.475
		C981.629,1209.736,982.959,1208.718,984.298,1208.158z M816.986,581.376c-13.631-4.513-15.983-4.148-21.971,3.134
		c4.438-0.22,8.972-0.445,12.905-0.64c3.491,2.591,3.952,7.915,9.064,7.227C816.986,587.486,816.986,584.368,816.986,581.376z
		 M768.683,585.369c0.499,7.729,10.107,8.15,23.237,0C783.165,585.369,775.936,585.369,768.683,585.369z M817.24,573.158
		c-0.776-4.375-1.319-7.439-1.869-10.541c-10.202,2.418-10.202,2.418-11.225,10.541C807.997,573.158,811.823,573.158,817.24,573.158
		z M846.499,211.575c-0.87,0.2-1.739,0.4-2.609,0.601c0.841,5.836,1.68,11.672,2.52,17.508c0.456-0.05,0.912-0.1,1.368-0.148
		C847.351,223.548,846.925,217.561,846.499,211.575z M820.827,450.599c0.771,0.025,1.544,0.053,2.317,0.077
		c-0.437-1.822-0.87-3.645-1.306-5.467c-0.487,0.079-0.975,0.158-1.462,0.238C820.527,447.164,820.676,448.882,820.827,450.599z
		 M828.061,432.553c0.667-0.104,1.333-0.21,2-0.313c0-1.681,0-3.361,0-5.042c-0.945,0.07-1.893,0.142-2.84,0.212
		C827.5,429.124,827.781,430.838,828.061,432.553z M846.675,1177.542c0.882,0.053,1.765,0.107,2.646,0.16c0-2.037,0-4.074,0-6.111
		c-0.462-0.049-0.923-0.098-1.384-0.146C847.516,1173.478,847.096,1175.509,846.675,1177.542z M887.208,1204.75
		c3.296-1.383,5.341-2.24,9.199-3.861C891.694,1200.458,888.865,1199.435,887.208,1204.75z M997.826,1207.337
		c-0.09-0.188-0.182-0.379-0.271-0.566c-1.346,0-2.69,0-4.037,0c0.002,0.188,0.006,0.379,0.008,0.566
		C994.958,1207.337,996.393,1207.337,997.826,1207.337z"/>
	<path d="M151.407,176.345c2.972,3.859,4.737,6.151,6.443,8.366c1.512-0.332,2.606-0.301,3.38-0.783
		c10.539-6.569,23.646-5.354,32.469,3.309c7.696,7.559,16.137,14.297,22.3,23.496c3.012,4.493,8.234,7.708,12.905,10.833
		c6.179,4.135,8.653,9.968,9.033,16.9c0.309,5.648-0.123,11.333,0.147,16.985c0.292,6.107-0.755,10.495-7.436,13.334
		c-7.041,2.993-7.827,13.216-1.795,17.761c5.396,4.066,2.499,8.726,2.616,13.312c-9.864,0.016-9.864,0.016-15.544,9.642
		c-6.13-0.296-12.068,0.359-12.412,9.144c-8.188,0.889-16.077,1.643-23.932,2.651c-2.563,0.33-5.572,0.65-7.461,2.138
		c-6.517,5.131-12.723,10.673-18.86,16.265c-3.486,3.174-3.782,6.819-0.432,10.498c11.594,12.727,20.283,27.236,24.895,43.807
		c4.002,14.383,7.442,28.962,10.29,43.619c3.543,18.242,6.459,36.617,9.206,55.001c2.647,17.719,4.669,35.531,7.093,53.284
		c1.437,10.521,3.258,20.992,4.657,31.518c2.532,19.07,4.927,38.16,7.288,57.25c2.565,20.736,5.107,41.477,7.464,62.234
		c0.472,4.152,0.068,8.406,0.068,13.273c-3.596,0-5.99,0.525-8.036-0.098c-6.388-1.943-10.829,1.855-15.486,4.867
		c-1.229,0.793-2.542,2.723-2.468,4.055c0.441,7.889,1.205,15.766,2.033,23.627c0.237,2.26,1.537,4.465,1.498,6.68
		c-0.091,5.072,1.911,8.85,5.475,12.316c5.23,5.09,8.031,11.299,7.388,18.848c-0.372,4.367,0.3,8.379,3.059,12.256
		c1.78,2.5,2.508,6.1,2.737,9.273c0.403,5.633,0.118,11.32,0.032,16.982c-0.183,12.021-0.206,12.02-11.537,15.455
		c0.278,2.088,0.415,4.312,0.894,6.465c1.129,5.072,0.247,9.258-2.36,14.121c-2.823,5.27-4.242,12.027-3.941,18.02
		c0.286,5.711-1.308,9.643-4.903,13.34c-4.179,4.303-8.548,8.42-12.661,12.783c-7.271,7.711-12.557,16.242-11.386,27.551
		c0.302,2.92,0.608,6.57-0.799,8.809c-5.633,8.953-2.471,17.553,0.667,25.863c3.06,8.107,1.823,14.986-1.184,22.951
		c-4.763,12.613-7.904,25.895-10.993,39.064c-1.418,6.045-1.502,12.506-1.391,18.764c0.069,3.9,0.754,8.312,2.728,11.539
		c3.212,5.25,3.41,10.652,3.295,16.32c-0.228,11.291-0.54,22.512,4.366,33.227c1.454,3.176,1.622,7.168,1.553,10.771
		c-0.25,12.938-0.808,25.873-1.348,38.805c-0.205,4.924,6.456,12.494,12.602,13.723c5.862,1.17,12.51-1.188,17.014,5.715
		c1.178,1.803,6.939,1.012,10.55,0.754c6.98-0.502,13.183,1.473,18.976,5.051c7.956,4.912,8.233,13.879,0.053,18.209
		c-5.128,2.713-11.174,3.656-16.736,5.604c-2.987,1.045-6.069,2.154-8.68,3.883c-9.136,6.047-16.745,6.145-25.416-1.021
		c-3.567-2.949-7.26-2.852-11.207-2.854c-30.318-0.018-60.637,0.043-90.956-0.055c-3.598-0.012-7.423-0.188-10.742-1.393
		c-6.993-2.541-7.47-5.32-7.272-12.883c0.258-9.893-0.009-19.963-1.679-29.676c-0.973-5.662-0.052-9.768,3.682-13.207
		c6.167-5.684,6.136-12.988,3.68-19.357c-2.898-7.516-2.671-14.914-3.093-22.52c-0.651-11.723,1.44-22.961,3.931-34.367
		c4.315-19.766,7.405-39.797,11.204-59.68c1.117-5.852,2.788-11.604,4.393-17.35c1.716-6.146,2.427-12.049,0.913-18.582
		c-0.863-3.723,1.501-8.221,2.513-12.346c1.414-5.758,4.099-11.484,4.152-17.242c0.123-13.502,5.302-24.332,14.572-33.631
		c0.704-0.705,1.299-1.521,2.023-2.203c6.884-6.488,7.014-13.803,2.667-21.658c-1.287-2.322-2.579-4.648-3.995-6.895
		c-4.199-6.656-6.062-13.963-6.189-21.764c-0.054-3.33-0.347-6.695,0.004-9.988c2.106-19.768-1.949-38.361-10.588-56.045
		c-3.249-6.65-4.225-13.027-1.15-20.109c3.229-7.438-2.061-12.664-6.102-17.771c-3.079-3.891-6.708-7.48-10.595-10.572
		c-9.749-7.754-12.419-18.549-13.514-30.029c-0.944-9.898-0.86-9.713-10.275-10.766C30.289,700.08,14.846,698.037,0,689.783
		c0.767-9.734,1.423-19.912,2.401-30.061c1.78-18.475,3.618-36.947,5.701-55.391c1.004-8.896,2.874-17.693,3.887-26.588
		c0.974-8.561,1.642-17.179,1.91-25.788c0.331-10.652-0.058-21.324,0.158-31.981c0.581-28.593,1.299-57.185,2.03-85.773
		c0.06-2.304,0.584-4.603,0.975-6.888c1.672-9.79,2.815-19.712,5.176-29.334c5.756-23.463,13.663-46.235,31.638-63.375
		c7.532-7.181,17.438-11.822,25.959-18.039c3.362-2.453,6.184-5.827,8.727-9.18c3.613-4.763,6.197-10.43,13.984-9.079
		c1.301,0.227,3.943-2.462,4.567-4.282c0.937-2.735,0.729-5.889,0.848-8.871c0.718-17.921,1.374-35.846,2.103-53.767
		c0.067-1.645,0.116-3.467,0.825-4.88c8.335-16.623,15.642-34.007,30.874-45.92C144.428,178.501,148.129,177.74,151.407,176.345z"/>
	<path fill="#FFFFFF" d="M846.499,211.575c0.426,5.986,0.852,11.973,1.278,17.96c-0.456,0.049-0.912,0.099-1.368,0.148
		c-0.84-5.836-1.679-11.672-2.52-17.508C844.76,211.975,845.629,211.775,846.499,211.575z"/>
	<path fill="#FFFFFF" d="M846.675,1177.542c0.421-2.033,0.841-4.064,1.263-6.098c0.461,0.049,0.922,0.098,1.384,0.146
		c0,2.037,0,4.074,0,6.111C848.438,1177.65,847.557,1177.595,846.675,1177.542z"/>
	<path fill="#FFFFFF" d="M997.826,1207.337c-1.435,0-2.868,0-4.303,0c-0.002-0.188-0.004-0.379-0.007-0.566c1.347,0,2.691,0,4.037,0
		C997.646,1206.958,997.736,1207.15,997.826,1207.337z"/>
</g>
</svg>
