<?xml version="1.0" encoding="utf-8"?>
<!-- Generator: Adobe Illustrator 16.0.0, SVG Export Plug-In . SVG Version: 6.00 Build 0)  -->
<!DOCTYPE svg PUBLIC "-//W3C//DTD SVG 1.1//EN" "http://www.w3.org/Graphics/SVG/1.1/DTD/svg11.dtd">
<svg version="1.1" id="Layer_1" xmlns="http://www.w3.org/2000/svg" xmlns:xlink="http://www.w3.org/1999/xlink" x="0px" y="0px"
	 width="1600px" height="600px" viewBox="0 0 1600 600" enable-background="new 0 0 1600 600" xml:space="preserve">
<g>
	<rect x="161.5" y="189.121" stroke="#000000" stroke-miterlimit="10" width="36" height="27"/>
	<rect x="206.5" y="189.121" stroke="#000000" stroke-miterlimit="10" width="27" height="27"/>
	<rect x="197.5" y="189.121" fill="none" stroke="#000000" stroke-miterlimit="10" width="9" height="27"/>
	<rect x="152.5" y="189.121" fill="none" stroke="#000000" stroke-miterlimit="10" width="9" height="27"/>
	<rect x="125.5" y="189.121" stroke="#000000" stroke-miterlimit="10" width="27" height="27"/>
</g>
<g>
	<rect x="175" y="220.241" stroke="#000000" stroke-miterlimit="10" width="36" height="27"/>
	<rect x="220" y="220.241" stroke="#000000" stroke-miterlimit="10" width="27" height="27"/>
	<rect x="211" y="220.241" fill="none" stroke="#000000" stroke-miterlimit="10" width="9" height="27"/>
	<rect x="166" y="220.241" fill="none" stroke="#000000" stroke-miterlimit="10" width="9" height="27"/>
	<rect x="139" y="220.241" stroke="#000000" stroke-miterlimit="10" width="27" height="27"/>
</g>
<g>
	
		<rect x="251.5" y="309.341" transform="matrix(0.8811 -0.4729 0.4729 0.8811 -123.298 164.2412)" stroke="#000000" stroke-miterlimit="10" width="27" height="35.999"/>
	
		<rect x="270.654" y="349.525" transform="matrix(0.8811 -0.4729 0.4729 0.8811 -137.9025 177.5554)" stroke="#000000" stroke-miterlimit="10" width="27" height="27"/>
	
		<rect x="262.141" y="342.665" transform="matrix(0.8811 -0.4729 0.4729 0.8811 -131.4083 171.6306)" fill="none" stroke="#000000" stroke-miterlimit="10" width="27" height="9.001"/>
	
		<rect x="240.859" y="303.016" transform="matrix(0.8811 -0.4729 0.4729 0.8811 -115.1926 156.8636)" fill="none" stroke="#000000" stroke-miterlimit="10" width="27" height="9"/>
	
		<rect x="232.346" y="278.156" transform="matrix(0.8811 -0.4729 0.4729 0.8811 -108.7039 150.9517)" stroke="#000000" stroke-miterlimit="10" width="27" height="27"/>
</g>
<g>
	<rect x="175" y="158" stroke="#000000" stroke-miterlimit="10" width="36" height="27"/>
	<rect x="220" y="158" stroke="#000000" stroke-miterlimit="10" width="27" height="27"/>
	<rect x="211" y="158" fill="none" stroke="#000000" stroke-miterlimit="10" width="9" height="27"/>
	<rect x="166" y="158" fill="none" stroke="#000000" stroke-miterlimit="10" width="9" height="27"/>
	<rect x="139" y="158" stroke="#000000" stroke-miterlimit="10" width="27" height="27"/>
</g>
<rect x="-180.5" y="279.5" stroke="#000000" stroke-miterlimit="10" width="396.436" height="18"/>
<g>
	
		<rect x="33.816" y="206.967" transform="matrix(0.8645 -0.5027 0.5027 0.8645 -106.6775 54.2772)" stroke="#000000" stroke-miterlimit="10" width="27" height="36"/>
	
		<rect x="54.175" y="246.478" transform="matrix(0.8645 -0.5027 0.5027 0.8645 -121.5179 69.2569)" stroke="#000000" stroke-miterlimit="10" width="27" height="27"/>
	
		<rect x="45.127" y="239.918" transform="matrix(0.8645 -0.5027 0.5027 0.8645 -114.9205 62.5978)" fill="none" stroke="#000000" stroke-miterlimit="10" width="27" height="9"/>
	
		<rect x="22.505" y="201.017" transform="matrix(0.8645 -0.5027 0.5027 0.8645 -98.4328 45.955)" fill="none" stroke="#000000" stroke-miterlimit="10" width="27" height="9"/>
	
		<rect x="13.457" y="176.457" transform="matrix(0.8645 -0.5027 0.5027 0.8645 -91.8357 39.2963)" stroke="#000000" stroke-miterlimit="10" width="27" height="27"/>
</g>
<g>
	<rect x="-18.5" y="207.5" stroke="#000000" stroke-miterlimit="10" width="27" height="36"/>
	<rect x="-18.5" y="252.5" stroke="#000000" stroke-miterlimit="10" width="27" height="27"/>
	<rect x="-18.5" y="243.5" fill="none" stroke="#000000" stroke-miterlimit="10" width="27" height="9"/>
	<rect x="-18.5" y="198.5" fill="none" stroke="#000000" stroke-miterlimit="10" width="27" height="9"/>
	<rect x="-18.5" y="171.5" stroke="#000000" stroke-miterlimit="10" width="27" height="27"/>
</g>
<g>
	<rect x="89.5" y="207.5" stroke="#000000" stroke-miterlimit="10" width="27" height="36"/>
	<rect x="89.5" y="252.5" stroke="#000000" stroke-miterlimit="10" width="27" height="27"/>
	<rect x="89.5" y="243.5" fill="none" stroke="#000000" stroke-miterlimit="10" width="27" height="9"/>
	<rect x="89.5" y="198.5" fill="none" stroke="#000000" stroke-miterlimit="10" width="27" height="9"/>
	<rect x="89.5" y="171.5" stroke="#000000" stroke-miterlimit="10" width="27" height="27"/>
</g>
<g>
	<rect x="161.5" y="252.5" stroke="#000000" stroke-miterlimit="10" width="36" height="27"/>
	<rect x="206.5" y="252.5" stroke="#000000" stroke-miterlimit="10" width="27" height="27"/>
	<rect x="197.5" y="252.5" fill="none" stroke="#000000" stroke-miterlimit="10" width="9" height="27"/>
	<rect x="152.5" y="252.5" fill="none" stroke="#000000" stroke-miterlimit="10" width="9" height="27"/>
	<rect x="125.5" y="252.5" stroke="#000000" stroke-miterlimit="10" width="27" height="27"/>
</g>
<g>
	<rect x="17.5" y="513.5" stroke="#000000" stroke-miterlimit="10" width="27" height="36"/>
	<rect x="17.5" y="558.5" stroke="#000000" stroke-miterlimit="10" width="27" height="27"/>
	<rect x="17.5" y="549.5" fill="none" stroke="#000000" stroke-miterlimit="10" width="27" height="9"/>
	<rect x="17.5" y="504.5" fill="none" stroke="#000000" stroke-miterlimit="10" width="27" height="9"/>
	<rect x="17.5" y="477.5" stroke="#000000" stroke-miterlimit="10" width="27" height="27"/>
</g>
<g>
	<rect x="89.5" y="513.5" stroke="#000000" stroke-miterlimit="10" width="27" height="36"/>
	<rect x="89.5" y="558.5" stroke="#000000" stroke-miterlimit="10" width="27" height="27"/>
	<rect x="89.5" y="549.5" fill="none" stroke="#000000" stroke-miterlimit="10" width="27" height="9"/>
	<rect x="89.5" y="504.5" fill="none" stroke="#000000" stroke-miterlimit="10" width="27" height="9"/>
	<rect x="89.5" y="477.5" stroke="#000000" stroke-miterlimit="10" width="27" height="27"/>
</g>
<g>
	<rect x="53.5" y="513.5" stroke="#000000" stroke-miterlimit="10" width="27" height="36"/>
	<rect x="53.5" y="558.5" stroke="#000000" stroke-miterlimit="10" width="27" height="27"/>
	<rect x="53.5" y="549.5" fill="none" stroke="#000000" stroke-miterlimit="10" width="27" height="9"/>
	<rect x="53.5" y="504.5" fill="none" stroke="#000000" stroke-miterlimit="10" width="27" height="9"/>
	<rect x="53.5" y="477.5" stroke="#000000" stroke-miterlimit="10" width="27" height="27"/>
</g>
<g>
	<rect x="125.5" y="513.5" stroke="#000000" stroke-miterlimit="10" width="27" height="36"/>
	<rect x="125.5" y="558.5" stroke="#000000" stroke-miterlimit="10" width="27" height="27"/>
	<rect x="125.5" y="549.5" fill="none" stroke="#000000" stroke-miterlimit="10" width="27" height="9"/>
	<rect x="125.5" y="504.5" fill="none" stroke="#000000" stroke-miterlimit="10" width="27" height="9"/>
	<rect x="125.5" y="477.5" stroke="#000000" stroke-miterlimit="10" width="27" height="27"/>
</g>
<rect x="-108.5" y="432.5" stroke="#000000" stroke-miterlimit="10" width="396.436" height="18"/>
<rect x="-144.5" y="585.5" stroke="#000000" stroke-miterlimit="10" width="504" height="18"/>
<g>
	<rect x="-18.5" y="513.5" stroke="#000000" stroke-miterlimit="10" width="27" height="36"/>
	<rect x="-18.5" y="558.5" stroke="#000000" stroke-miterlimit="10" width="27" height="27"/>
	<rect x="-18.5" y="549.5" fill="none" stroke="#000000" stroke-miterlimit="10" width="27" height="9"/>
	<rect x="-18.5" y="504.5" fill="none" stroke="#000000" stroke-miterlimit="10" width="27" height="9"/>
	<rect x="-18.5" y="477.5" stroke="#000000" stroke-miterlimit="10" width="27" height="27"/>
</g>
<g>
	<rect x="-18.5" y="405.5" stroke="#000000" stroke-miterlimit="10" width="36" height="27"/>
	<rect x="26.5" y="405.5" stroke="#000000" stroke-miterlimit="10" width="27" height="27"/>
	<rect x="17.5" y="405.5" fill="none" stroke="#000000" stroke-miterlimit="10" width="9" height="27"/>
	<rect x="-27.5" y="405.5" fill="none" stroke="#000000" stroke-miterlimit="10" width="9" height="27"/>
	<rect x="-54.5" y="405.5" stroke="#000000" stroke-miterlimit="10" width="27" height="27"/>
</g>
<g>
	
		<rect x="17.5" y="351.625" transform="matrix(-0.4831 -0.8756 0.8756 -0.4831 -277.6548 575.3336)" stroke="#000000" stroke-miterlimit="10" width="27" height="36"/>
	
		<rect x="52.961" y="336.56" transform="matrix(-0.4831 -0.8756 0.8756 -0.4831 -207.9354 577.3601)" stroke="#000000" stroke-miterlimit="10" width="27" height="27"/>
	
		<rect x="37.201" y="354.256" transform="matrix(-0.4831 -0.8756 0.8756 -0.4831 -238.9196 576.4633)" fill="none" stroke="#000000" stroke-miterlimit="10" width="26.999" height="9"/>
	
		<rect x="-2.201" y="375.994" transform="matrix(-0.4831 -0.8756 0.8756 -0.4831 -316.3918 574.1997)" fill="none" stroke="#000000" stroke-miterlimit="10" width="27" height="9"/>
	
		<rect x="-17.96" y="375.69" transform="matrix(-0.4831 -0.8756 0.8756 -0.4831 -347.3767 573.3037)" stroke="#000000" stroke-miterlimit="10" width="26.999" height="27"/>
</g>
<g>
	<rect x="233.5" y="405.5" stroke="#000000" stroke-miterlimit="10" width="36" height="27"/>
	<rect x="278.5" y="405.5" stroke="#000000" stroke-miterlimit="10" width="27" height="27"/>
	<rect x="269.5" y="405.5" fill="none" stroke="#000000" stroke-miterlimit="10" width="9" height="27"/>
	<rect x="224.5" y="405.5" fill="none" stroke="#000000" stroke-miterlimit="10" width="9" height="27"/>
	<rect x="197.5" y="405.5" stroke="#000000" stroke-miterlimit="10" width="27" height="27"/>
</g>
<g>
	<rect x="224.5" y="376.5" stroke="#000000" stroke-miterlimit="10" width="36" height="27"/>
	<rect x="269.5" y="376.5" stroke="#000000" stroke-miterlimit="10" width="27" height="27"/>
	<rect x="260.5" y="376.5" fill="none" stroke="#000000" stroke-miterlimit="10" width="9" height="27"/>
	<rect x="215.5" y="376.5" fill="none" stroke="#000000" stroke-miterlimit="10" width="9" height="27"/>
	<rect x="188.5" y="376.5" stroke="#000000" stroke-miterlimit="10" width="27" height="27"/>
</g>
<g>
	<rect x="121" y="346.5" stroke="#000000" stroke-miterlimit="10" width="36" height="27"/>
	<rect x="166" y="346.5" stroke="#000000" stroke-miterlimit="10" width="27" height="27"/>
	<rect x="157" y="346.5" fill="none" stroke="#000000" stroke-miterlimit="10" width="9" height="27"/>
	<rect x="112" y="346.5" fill="none" stroke="#000000" stroke-miterlimit="10" width="9" height="27"/>
	<rect x="85" y="346.5" stroke="#000000" stroke-miterlimit="10" width="27" height="27"/>
</g>
<g>
	<rect x="112" y="376.5" stroke="#000000" stroke-miterlimit="10" width="36" height="27"/>
	<rect x="157" y="376.5" stroke="#000000" stroke-miterlimit="10" width="27" height="27"/>
	<rect x="148" y="376.5" fill="none" stroke="#000000" stroke-miterlimit="10" width="9" height="27"/>
	<rect x="103" y="376.5" fill="none" stroke="#000000" stroke-miterlimit="10" width="9" height="27"/>
	<rect x="76" y="376.5" stroke="#000000" stroke-miterlimit="10" width="27" height="27"/>
</g>
<g>
	<rect x="98.5" y="405.5" stroke="#000000" stroke-miterlimit="10" width="36" height="27"/>
	<rect x="143.5" y="405.5" stroke="#000000" stroke-miterlimit="10" width="27" height="27"/>
	<rect x="134.5" y="405.5" fill="none" stroke="#000000" stroke-miterlimit="10" width="9" height="27"/>
	<rect x="89.5" y="405.5" fill="none" stroke="#000000" stroke-miterlimit="10" width="9" height="27"/>
	<rect x="62.5" y="405.5" stroke="#000000" stroke-miterlimit="10" width="27" height="27"/>
</g>
<g>
	<rect x="440.5" y="531.715" stroke="#000000" stroke-miterlimit="10" width="36" height="27"/>
	<rect x="485.5" y="531.715" stroke="#000000" stroke-miterlimit="10" width="27" height="27"/>
	<rect x="476.5" y="531.715" fill="none" stroke="#000000" stroke-miterlimit="10" width="9" height="27"/>
	<rect x="431.5" y="531.715" fill="none" stroke="#000000" stroke-miterlimit="10" width="9" height="27"/>
	<rect x="404.5" y="531.715" stroke="#000000" stroke-miterlimit="10" width="27" height="27"/>
</g>
<g>
	
		<rect x="328" y="531.5" transform="matrix(-0.4366 -0.8996 0.8996 -0.4366 -3.7402 1096.6578)" stroke="#000000" stroke-miterlimit="10" width="27" height="36"/>
	
		<rect x="364.435" y="518.316" transform="matrix(-0.4367 -0.8996 0.8996 -0.4367 64.5222 1104.0356)" stroke="#000000" stroke-miterlimit="10" width="27" height="27"/>
	
		<rect x="348.242" y="535.175" transform="matrix(-0.4366 -0.8996 0.8996 -0.4366 34.1784 1100.7534)" fill="none" stroke="#000000" stroke-miterlimit="10" width="27" height="9"/>
	
		<rect x="307.758" y="554.825" transform="matrix(-0.4366 -0.8996 0.8996 -0.4366 -41.6589 1092.5621)" fill="none" stroke="#000000" stroke-miterlimit="10" width="27" height="9"/>
	
		<rect x="291.565" y="553.684" transform="matrix(-0.4366 -0.8996 0.8996 -0.4366 -71.9934 1089.285)" stroke="#000000" stroke-miterlimit="10" width="27" height="27"/>
</g>
<g>
	<rect x="391" y="558.5" stroke="#000000" stroke-miterlimit="10" width="36" height="27"/>
	<rect x="436" y="558.5" stroke="#000000" stroke-miterlimit="10" width="27" height="27"/>
	<rect x="427" y="558.5" fill="none" stroke="#000000" stroke-miterlimit="10" width="9" height="27"/>
	<rect x="382" y="558.5" fill="none" stroke="#000000" stroke-miterlimit="10" width="9" height="27"/>
	<rect x="355" y="558.5" stroke="#000000" stroke-miterlimit="10" width="27" height="27"/>
</g>
<g>
	
		<rect x="368.5" y="475.766" transform="matrix(0.4971 -0.8677 0.8677 0.4971 -236.3323 579.7511)" stroke="#000000" stroke-miterlimit="10" width="27.001" height="35.999"/>
	
		<rect x="403.64" y="500.399" transform="matrix(0.4971 -0.8677 0.8677 0.4971 -236.1309 620.3661)" stroke="#000000" stroke-miterlimit="10" width="27.001" height="27"/>
	
		<rect x="388.023" y="500.451" transform="matrix(0.4971 -0.8677 0.8677 0.4971 -236.2223 602.3036)" fill="none" stroke="#000000" stroke-miterlimit="10" width="27" height="9"/>
	
		<rect x="348.977" y="478.08" transform="matrix(0.4971 -0.8677 0.8677 0.4971 -236.4432 557.196)" fill="none" stroke="#000000" stroke-miterlimit="10" width="27" height="9.001"/>
	
		<rect x="333.359" y="460.131" transform="matrix(0.4971 -0.8677 0.8677 0.4971 -236.5336 539.1353)" stroke="#000000" stroke-miterlimit="10" width="27.001" height="27"/>
</g>
<g>
	
		<rect x="532.589" y="531.145" transform="matrix(0.7565 -0.654 0.654 0.7565 -226.1669 490.8885)" stroke="#000000" stroke-miterlimit="10" width="27.001" height="36"/>
	
		<rect x="559.076" y="566.281" transform="matrix(0.7565 -0.654 0.654 0.7565 -239.7548 515.6826)" stroke="#000000" stroke-miterlimit="10" width="27" height="27.001"/>
	
		<rect x="547.304" y="561.666" transform="matrix(0.7565 -0.654 0.654 0.7565 -233.7139 504.636)" fill="none" stroke="#000000" stroke-miterlimit="10" width="27" height="9"/>
	
		<rect x="517.873" y="527.623" transform="matrix(0.7565 -0.654 0.654 0.7565 -218.6183 477.1191)" fill="none" stroke="#000000" stroke-miterlimit="10" width="27.001" height="9"/>
	
		<rect x="506.101" y="505.007" transform="matrix(0.7565 -0.654 0.654 0.7565 -212.5784 466.0839)" stroke="#000000" stroke-miterlimit="10" width="27" height="27"/>
</g>
<g>
	<rect x="1056.577" y="569.052" stroke="#000000" stroke-miterlimit="10" width="36" height="27"/>
	<rect x="1101.577" y="569.052" stroke="#000000" stroke-miterlimit="10" width="27" height="27"/>
	<rect x="1092.577" y="569.052" fill="none" stroke="#000000" stroke-miterlimit="10" width="9" height="27"/>
	<rect x="1047.577" y="569.052" fill="none" stroke="#000000" stroke-miterlimit="10" width="9" height="27"/>
	<rect x="1020.577" y="569.052" stroke="#000000" stroke-miterlimit="10" width="27" height="27"/>
</g>
<g>
	<rect x="1110.577" y="474.636" stroke="#000000" stroke-miterlimit="10" width="36" height="27"/>
	<rect x="1155.577" y="474.636" stroke="#000000" stroke-miterlimit="10" width="27" height="27"/>
	<rect x="1146.577" y="474.636" fill="none" stroke="#000000" stroke-miterlimit="10" width="9" height="27"/>
	<rect x="1101.577" y="474.636" fill="none" stroke="#000000" stroke-miterlimit="10" width="9" height="27"/>
	<rect x="1074.577" y="474.636" stroke="#000000" stroke-miterlimit="10" width="27" height="27"/>
</g>
<g>
	
		<rect x="1179.206" y="491.629" transform="matrix(-0.3228 -0.9465 0.9465 -0.3228 1095.4176 1802.9982)" stroke="#000000" stroke-miterlimit="10" width="27" height="36"/>
	
		<rect x="1217.538" y="483.055" transform="matrix(-0.3228 -0.9465 0.9465 -0.3228 1158.4539 1821.9796)" stroke="#000000" stroke-miterlimit="10" width="27" height="26.999"/>
	
		<rect x="1200.502" y="497.865" transform="matrix(-0.3228 -0.9465 0.9465 -0.3228 1130.4775 1813.5464)" fill="none" stroke="#000000" stroke-miterlimit="10" width="27" height="9.001"/>
	
		<rect x="1157.911" y="512.392" transform="matrix(-0.3228 -0.9465 0.9465 -0.3228 1060.33 1792.4479)" fill="none" stroke="#000000" stroke-miterlimit="10" width="27" height="9"/>
	
		<rect x="1140.876" y="509.203" transform="matrix(-0.3228 -0.9465 0.9465 -0.3228 1032.2656 1784.0085)" stroke="#000000" stroke-miterlimit="10" width="26.999" height="27"/>
</g>
<g>
	
		<rect x="1236.214" y="536.244" transform="matrix(0.458 -0.889 0.889 0.458 184.6877 1411.3862)" stroke="#000000" stroke-miterlimit="10" width="27.001" height="36.001"/>
	
		<rect x="1272.218" y="559.291" transform="matrix(0.4579 -0.889 0.889 0.4579 187.7726 1453.5159)" stroke="#000000" stroke-miterlimit="10" width="27" height="27"/>
	
		<rect x="1256.217" y="560.048" transform="matrix(0.4579 -0.889 0.889 0.4579 186.3979 1434.7874)" fill="none" stroke="#000000" stroke-miterlimit="10" width="27" height="9"/>
	
		<rect x="1216.213" y="539.441" transform="matrix(0.458 -0.889 0.889 0.458 183.0061 1388.0197)" fill="none" stroke="#000000" stroke-miterlimit="10" width="27.001" height="9"/>
	
		<rect x="1200.212" y="522.198" transform="matrix(0.4579 -0.889 0.889 0.4579 181.6732 1369.343)" stroke="#000000" stroke-miterlimit="10" width="26.999" height="26.999"/>
</g>
<g>
	
		<rect x="1061.077" y="501.086" transform="matrix(0.1445 -0.9895 0.9895 0.1445 405.6685 1507.3811)" stroke="#000000" stroke-miterlimit="10" width="27" height="36"/>
	
		<rect x="1101.152" y="511.438" transform="matrix(0.1445 -0.9895 0.9895 0.1445 434.162 1552.0417)" stroke="#000000" stroke-miterlimit="10" width="27" height="27"/>
	
		<rect x="1083.341" y="517.837" transform="matrix(0.1445 -0.9895 0.9895 0.1445 421.4983 1532.1924)" fill="none" stroke="#000000" stroke-miterlimit="10" width="27" height="9"/>
	
		<rect x="1038.813" y="511.335" transform="matrix(0.1445 -0.9895 0.9895 0.1445 389.8386 1482.5699)" fill="none" stroke="#000000" stroke-miterlimit="10" width="27" height="9"/>
	
		<rect x="1021.002" y="499.734" transform="matrix(0.1445 -0.9895 0.9895 0.1445 377.1749 1462.7205)" stroke="#000000" stroke-miterlimit="10" width="27" height="27"/>
</g>
<g>
	
		<rect x="986.117" y="545.071" transform="matrix(-0.3923 -0.9198 0.9198 -0.3923 873.8312 1703.4489)" stroke="#000000" stroke-miterlimit="10" width="26.999" height="36"/>
	
		<rect x="1023.37" y="533.683" transform="matrix(-0.3923 -0.9198 0.9198 -0.3923 940.2966 1715.5941)" stroke="#000000" stroke-miterlimit="10" width="27" height="27"/>
	
		<rect x="1006.813" y="549.745" transform="matrix(-0.3923 -0.9198 0.9198 -0.3923 910.7494 1710.1951)" fill="none" stroke="#000000" stroke-miterlimit="10" width="27" height="9"/>
	
		<rect x="965.42" y="567.397" transform="matrix(-0.3923 -0.9198 0.9198 -0.3923 836.8961 1696.7004)" fill="none" stroke="#000000" stroke-miterlimit="10" width="26.999" height="9.001"/>
	
		<rect x="948.862" y="565.459" transform="matrix(-0.3923 -0.9198 0.9198 -0.3923 807.3322 1691.299)" stroke="#000000" stroke-miterlimit="10" width="27" height="27"/>
</g>
<g>
	<rect x="1110.577" y="537.76" stroke="#000000" stroke-miterlimit="10" width="36" height="27"/>
	<rect x="1155.577" y="537.76" stroke="#000000" stroke-miterlimit="10" width="27" height="27"/>
	<rect x="1146.577" y="537.76" fill="none" stroke="#000000" stroke-miterlimit="10" width="9" height="27"/>
	<rect x="1101.577" y="537.76" fill="none" stroke="#000000" stroke-miterlimit="10" width="9" height="27"/>
	<rect x="1074.577" y="537.76" stroke="#000000" stroke-miterlimit="10" width="27" height="27"/>
</g>
<g>
	<rect x="1173.057" y="569.052" stroke="#000000" stroke-miterlimit="10" width="36" height="27"/>
	<rect x="1218.057" y="569.052" stroke="#000000" stroke-miterlimit="10" width="27" height="27"/>
	<rect x="1209.057" y="569.052" fill="none" stroke="#000000" stroke-miterlimit="10" width="9" height="27"/>
	<rect x="1164.057" y="569.052" fill="none" stroke="#000000" stroke-miterlimit="10" width="9" height="27"/>
	<rect x="1137.057" y="569.052" stroke="#000000" stroke-miterlimit="10" width="27" height="27"/>
</g>
<g>
	<rect x="1088.077" y="414.136" stroke="#000000" stroke-miterlimit="10" width="36" height="27"/>
	<rect x="1133.077" y="414.136" stroke="#000000" stroke-miterlimit="10" width="27" height="27"/>
	<rect x="1124.077" y="414.136" fill="none" stroke="#000000" stroke-miterlimit="10" width="9" height="27"/>
	<rect x="1079.077" y="414.136" fill="none" stroke="#000000" stroke-miterlimit="10" width="9" height="27"/>
	<rect x="1052.077" y="414.136" stroke="#000000" stroke-miterlimit="10" width="27" height="27"/>
</g>
<g>
	<rect x="1101.057" y="443.959" stroke="#000000" stroke-miterlimit="10" width="36" height="27"/>
	<rect x="1146.057" y="443.959" stroke="#000000" stroke-miterlimit="10" width="27" height="27"/>
	<rect x="1137.057" y="443.959" fill="none" stroke="#000000" stroke-miterlimit="10" width="9" height="27"/>
	<rect x="1092.057" y="443.959" fill="none" stroke="#000000" stroke-miterlimit="10" width="9" height="27"/>
	<rect x="1065.057" y="443.959" stroke="#000000" stroke-miterlimit="10" width="27" height="27"/>
</g>
<rect x="1025.077" y="304.328" fill="none" stroke="#000000" stroke-miterlimit="10" width="81" height="108"/>
<rect x="1024.077" y="305.328" fill="none" stroke="#000000" stroke-miterlimit="10" width="81" height="108"/>
<rect x="1106.077" y="304.328" fill="none" stroke="#000000" stroke-miterlimit="10" width="81" height="108"/>
<rect x="1107.077" y="305.328" fill="none" stroke="#000000" stroke-miterlimit="10" width="81" height="108"/>
<line fill="none" stroke="#000000" stroke-miterlimit="10" x1="1033.077" y1="304.328" x2="1033.077" y2="412.328"/>
<line fill="none" stroke="#000000" stroke-miterlimit="10" x1="1027.077" y1="304.328" x2="1027.077" y2="412.328"/>
<line fill="none" stroke="#000000" stroke-miterlimit="10" x1="1029.077" y1="304.328" x2="1029.077" y2="412.328"/>
<line fill="none" stroke="#000000" stroke-miterlimit="10" x1="1031.077" y1="304.328" x2="1031.077" y2="412.328"/>
<line fill="none" stroke="#000000" stroke-miterlimit="10" x1="1185.077" y1="304.328" x2="1185.077" y2="412.328"/>
<line fill="none" stroke="#000000" stroke-miterlimit="10" x1="1179.077" y1="304.328" x2="1179.077" y2="412.328"/>
<line fill="none" stroke="#000000" stroke-miterlimit="10" x1="1181.077" y1="304.328" x2="1181.077" y2="412.328"/>
<line fill="none" stroke="#000000" stroke-miterlimit="10" x1="1183.077" y1="304.328" x2="1183.077" y2="412.328"/>
<g>
	<path d="M1046.738,320.854c-0.217-0.055-0.407-0.143-0.571-0.264s-0.292-0.275-0.384-0.463s-0.138-0.408-0.138-0.662
		c0-0.305,0.061-0.556,0.182-0.753s0.281-0.352,0.48-0.463s0.421-0.188,0.665-0.231s0.495-0.064,0.753-0.064
		c0.254,0,0.521,0.018,0.8,0.053s0.513,0.084,0.7,0.146v-0.451c0-0.203-0.013-0.393-0.038-0.568s-0.08-0.327-0.164-0.454
		s-0.208-0.229-0.372-0.305s-0.385-0.114-0.662-0.114c-0.875,0-1.312,0.363-1.312,1.09h-0.908c0-0.375,0.069-0.685,0.208-0.929
		s0.318-0.437,0.539-0.577s0.467-0.238,0.738-0.293s0.54-0.082,0.806-0.082c0.695,0,1.221,0.168,1.576,0.504
		s0.533,0.848,0.533,1.535v2.373c0,0.105,0.021,0.178,0.062,0.217s0.116,0.059,0.226,0.059c0.09,0,0.187-0.008,0.29-0.023
		s0.204-0.035,0.302-0.059v0.674c-0.098,0.039-0.229,0.08-0.393,0.123s-0.338,0.064-0.521,0.064c-0.312,0-0.521-0.073-0.624-0.22
		s-0.155-0.308-0.155-0.483v-0.1c-0.07,0.09-0.16,0.183-0.27,0.278s-0.242,0.184-0.398,0.264s-0.336,0.144-0.539,0.19
		s-0.438,0.07-0.703,0.07C1047.19,320.937,1046.955,320.909,1046.738,320.854z M1048.531,319.99
		c0.268-0.096,0.499-0.212,0.694-0.349v-0.814c-0.145-0.039-0.335-0.07-0.571-0.094s-0.487-0.035-0.753-0.035
		c-0.406,0-0.726,0.052-0.958,0.155s-0.349,0.298-0.349,0.583c0,0.465,0.336,0.697,1.008,0.697
		C1047.954,320.134,1048.264,320.086,1048.531,319.99z"/>
	<path d="M1055.158,320.866c-0.182-0.047-0.342-0.108-0.48-0.185s-0.261-0.162-0.366-0.258s-0.193-0.188-0.264-0.278v0.674h-0.791
		v-7.658h0.949v2.953c0.055-0.062,0.128-0.132,0.22-0.208s0.204-0.146,0.337-0.211s0.281-0.118,0.445-0.161s0.346-0.064,0.545-0.064
		c0.281,0,0.552,0.05,0.812,0.149s0.491,0.257,0.694,0.472s0.367,0.497,0.492,0.847s0.188,0.772,0.188,1.269
		c0,0.477-0.061,0.888-0.182,1.233s-0.281,0.628-0.48,0.847s-0.431,0.382-0.694,0.489s-0.54,0.161-0.829,0.161
		C1055.538,320.937,1055.34,320.913,1055.158,320.866z M1056.629,319.606c0.232-0.359,0.349-0.826,0.349-1.4
		c0-0.578-0.116-1.047-0.349-1.406s-0.608-0.539-1.128-0.539c-0.289,0-0.541,0.052-0.756,0.155s-0.395,0.228-0.539,0.372v2.83
		c0.145,0.145,0.324,0.269,0.539,0.372s0.467,0.155,0.756,0.155C1056.021,320.146,1056.396,319.966,1056.629,319.606z"/>
	<path d="M1061.735,320.811c-0.309-0.084-0.589-0.229-0.841-0.437s-0.456-0.486-0.612-0.838s-0.234-0.795-0.234-1.33
		c0-0.547,0.082-0.996,0.246-1.348s0.372-0.631,0.624-0.838s0.532-0.351,0.841-0.431s0.611-0.12,0.908-0.12
		c0.246,0,0.503,0.029,0.771,0.088s0.514,0.162,0.738,0.311s0.413,0.349,0.565,0.601s0.24,0.573,0.264,0.964h-0.949
		c-0.047-0.438-0.194-0.736-0.442-0.896s-0.556-0.24-0.923-0.24c-0.535,0-0.947,0.152-1.236,0.457s-0.434,0.789-0.434,1.453
		c0,0.672,0.145,1.157,0.434,1.456s0.701,0.448,1.236,0.448c0.367,0,0.675-0.08,0.923-0.24s0.396-0.459,0.442-0.896h0.949
		c-0.023,0.383-0.113,0.702-0.27,0.958s-0.347,0.458-0.571,0.606s-0.471,0.252-0.738,0.311s-0.521,0.088-0.759,0.088
		C1062.354,320.937,1062.044,320.895,1061.735,320.811z"/>
</g>
<g>
	
		<rect x="139" y="117.776" transform="matrix(-0.4366 -0.8996 0.8996 -0.4366 96.9373 332.256)" stroke="#000000" stroke-miterlimit="10" width="27" height="36"/>
	
		<rect x="175.435" y="104.592" transform="matrix(-0.4367 -0.8996 0.8996 -0.4367 165.1941 339.6292)" stroke="#000000" stroke-miterlimit="10" width="27" height="27"/>
	
		<rect x="159.242" y="121.452" transform="matrix(-0.4366 -0.8996 0.8996 -0.4366 134.8559 336.3517)" fill="none" stroke="#000000" stroke-miterlimit="10" width="27" height="9"/>
	
		<rect x="118.758" y="141.101" transform="matrix(-0.4366 -0.8996 0.8996 -0.4366 59.0187 328.1603)" fill="none" stroke="#000000" stroke-miterlimit="10" width="27" height="9"/>
	
		<rect x="102.565" y="139.961" transform="matrix(-0.4366 -0.8996 0.8996 -0.4366 28.6841 324.8832)" stroke="#000000" stroke-miterlimit="10" width="27" height="27"/>
</g>
<g>
	<rect x="236.359" y="126.562" stroke="#000000" stroke-miterlimit="10" width="36" height="27"/>
	<rect x="281.359" y="126.562" stroke="#000000" stroke-miterlimit="10" width="27" height="27"/>
	<rect x="272.359" y="126.562" fill="none" stroke="#000000" stroke-miterlimit="10" width="9" height="27"/>
	<rect x="227.359" y="126.562" fill="none" stroke="#000000" stroke-miterlimit="10" width="9" height="27"/>
	<rect x="200.359" y="126.562" stroke="#000000" stroke-miterlimit="10" width="27" height="27"/>
</g>
</svg>
