<?xml version="1.0" encoding="utf-8"?>
<!-- Generator: Adobe Illustrator 16.0.0, SVG Export Plug-In . SVG Version: 6.00 Build 0)  -->
<!DOCTYPE svg PUBLIC "-//W3C//DTD SVG 1.1//EN" "http://www.w3.org/Graphics/SVG/1.1/DTD/svg11.dtd">
<svg version="1.1" id="Layer_1" xmlns="http://www.w3.org/2000/svg" xmlns:xlink="http://www.w3.org/1999/xlink" x="0px" y="0px"
	 width="1600px" height="600px" viewBox="0 0 1600 600" enable-background="new 0 0 1600 600" xml:space="preserve">
<g>
	<rect x="756.463" y="575.181" stroke="#000000" stroke-miterlimit="10" width="36" height="27"/>
	<rect x="801.464" y="575.181" stroke="#000000" stroke-miterlimit="10" width="26.999" height="27"/>
	<rect x="792.463" y="575.181" fill="none" stroke="#000000" stroke-miterlimit="10" width="9" height="27"/>
	<rect x="747.463" y="575.181" fill="none" stroke="#000000" stroke-miterlimit="10" width="9" height="27"/>
	<rect x="720.463" y="575.181" stroke="#000000" stroke-miterlimit="10" width="27" height="27"/>
</g>
<g>
	<rect x="810.463" y="480.765" stroke="#000000" stroke-miterlimit="10" width="36" height="27"/>
	<rect x="855.463" y="480.765" stroke="#000000" stroke-miterlimit="10" width="27" height="27"/>
	<rect x="846.463" y="480.765" fill="none" stroke="#000000" stroke-miterlimit="10" width="9" height="27"/>
	<rect x="801.464" y="480.765" fill="none" stroke="#000000" stroke-miterlimit="10" width="8.999" height="27"/>
	<rect x="774.463" y="480.765" stroke="#000000" stroke-miterlimit="10" width="27" height="27"/>
</g>
<g>
	
		<rect x="879.092" y="497.758" transform="matrix(-0.3228 -0.9465 0.9465 -0.3228 692.6141 1527.0615)" stroke="#000000" stroke-miterlimit="10" width="27" height="36"/>
	
		<rect x="917.425" y="489.184" transform="matrix(-0.3228 -0.9465 0.9465 -0.3228 755.6257 1546.0342)" stroke="#000000" stroke-miterlimit="10" width="27" height="26.998"/>
	
		<rect x="900.388" y="503.994" transform="matrix(-0.3228 -0.9465 0.9465 -0.3228 727.6714 1537.6112)" fill="none" stroke="#000000" stroke-miterlimit="10" width="27" height="9.002"/>
	
		<rect x="857.798" y="518.521" transform="matrix(-0.3228 -0.9465 0.9465 -0.3228 657.5034 1516.5012)" fill="none" stroke="#000000" stroke-miterlimit="10" width="27" height="8.999"/>
	
		<rect x="840.762" y="515.332" transform="matrix(-0.3228 -0.9465 0.9465 -0.3228 629.4794 1508.0669)" stroke="#000000" stroke-miterlimit="10" width="26.999" height="27"/>
</g>
<g>
	
		<rect x="936.1" y="542.373" transform="matrix(0.458 -0.889 0.889 0.458 16.5652 1147.9148)" stroke="#000000" stroke-miterlimit="10" width="27.001" height="36.001"/>
	
		<rect x="972.105" y="565.42" transform="matrix(0.4579 -0.889 0.889 0.4579 19.6328 1190.0364)" stroke="#000000" stroke-miterlimit="10" width="27" height="26.999"/>
	
		<rect x="956.103" y="566.177" transform="matrix(0.4579 -0.889 0.889 0.4579 18.286 1171.3423)" fill="none" stroke="#000000" stroke-miterlimit="10" width="27" height="9.001"/>
	
		<rect x="916.098" y="545.57" transform="matrix(0.458 -0.889 0.889 0.458 14.8834 1124.5482)" fill="none" stroke="#000000" stroke-miterlimit="10" width="27.001" height="9"/>
	
		<rect x="900.098" y="528.327" transform="matrix(0.458 -0.889 0.889 0.458 13.5284 1105.8411)" stroke="#000000" stroke-miterlimit="10" width="27" height="26.999"/>
</g>
<g>
	
		<rect x="760.963" y="507.215" transform="matrix(0.1445 -0.9895 0.9895 0.1445 142.8548 1215.6602)" stroke="#000000" stroke-miterlimit="10" width="27" height="36"/>
	
		<rect x="801.038" y="517.567" transform="matrix(0.1445 -0.9895 0.9895 0.1445 171.3221 1260.2977)" stroke="#000000" stroke-miterlimit="10" width="27" height="27"/>
	
		<rect x="783.227" y="523.966" transform="matrix(0.1445 -0.9895 0.9895 0.1445 158.6844 1240.4712)" fill="none" stroke="#000000" stroke-miterlimit="10" width="27" height="8.999"/>
	
		<rect x="738.7" y="517.464" transform="matrix(0.1445 -0.9895 0.9895 0.1445 127.025 1190.8489)" fill="none" stroke="#000000" stroke-miterlimit="10" width="27" height="9"/>
	
		<rect x="720.889" y="505.863" transform="matrix(0.1445 -0.9895 0.9895 0.1445 114.3613 1170.9996)" stroke="#000000" stroke-miterlimit="10" width="27" height="27"/>
</g>
<g>
	
		<rect x="686.003" y="551.2" transform="matrix(-0.3923 -0.9198 0.9198 -0.3923 450.3455 1435.9261)" stroke="#000000" stroke-miterlimit="10" width="26.999" height="36"/>
	
		<rect x="723.256" y="539.812" transform="matrix(-0.3923 -0.9198 0.9198 -0.3923 516.8148 1448.0696)" stroke="#000000" stroke-miterlimit="10" width="27" height="27"/>
	
		<rect x="706.699" y="555.874" transform="matrix(-0.3923 -0.9198 0.9198 -0.3923 487.2675 1442.6707)" fill="none" stroke="#000000" stroke-miterlimit="10" width="27" height="9"/>
	
		<rect x="665.307" y="573.526" transform="matrix(-0.3923 -0.9198 0.9198 -0.3923 413.4103 1429.1777)" fill="none" stroke="#000000" stroke-miterlimit="10" width="26.999" height="9.001"/>
	
		<rect x="648.748" y="571.588" transform="matrix(-0.3923 -0.9198 0.9198 -0.3923 383.8503 1423.7745)" stroke="#000000" stroke-miterlimit="10" width="27" height="27"/>
</g>
<g>
	<rect x="810.463" y="543.889" stroke="#000000" stroke-miterlimit="10" width="36" height="27"/>
	<rect x="855.463" y="543.889" stroke="#000000" stroke-miterlimit="10" width="27" height="27"/>
	<rect x="846.463" y="543.889" fill="none" stroke="#000000" stroke-miterlimit="10" width="9" height="27"/>
	<rect x="801.464" y="543.889" fill="none" stroke="#000000" stroke-miterlimit="10" width="8.999" height="27"/>
	<rect x="774.463" y="543.889" stroke="#000000" stroke-miterlimit="10" width="27" height="27"/>
</g>
<g>
	<rect x="872.943" y="575.181" stroke="#000000" stroke-miterlimit="10" width="36" height="27"/>
	<rect x="917.943" y="575.181" stroke="#000000" stroke-miterlimit="10" width="27" height="27"/>
	<rect x="908.943" y="575.181" fill="none" stroke="#000000" stroke-miterlimit="10" width="9" height="27"/>
	<rect x="863.943" y="575.181" fill="none" stroke="#000000" stroke-miterlimit="10" width="9" height="27"/>
	<rect x="836.943" y="575.181" stroke="#000000" stroke-miterlimit="10" width="27" height="27"/>
</g>
<g>
	<rect x="787.963" y="420.265" stroke="#000000" stroke-miterlimit="10" width="36" height="27"/>
	<rect x="832.963" y="420.265" stroke="#000000" stroke-miterlimit="10" width="27" height="27"/>
	<rect x="823.963" y="420.265" fill="none" stroke="#000000" stroke-miterlimit="10" width="9" height="27"/>
	<rect x="778.963" y="420.265" fill="none" stroke="#000000" stroke-miterlimit="10" width="9" height="27"/>
	<rect x="751.963" y="420.265" stroke="#000000" stroke-miterlimit="10" width="27" height="27"/>
</g>
<g>
	<rect x="800.942" y="450.088" stroke="#000000" stroke-miterlimit="10" width="36.001" height="27"/>
	<rect x="845.943" y="450.088" stroke="#000000" stroke-miterlimit="10" width="27" height="27"/>
	<rect x="836.943" y="450.088" fill="none" stroke="#000000" stroke-miterlimit="10" width="9" height="27"/>
	<rect x="791.943" y="450.088" fill="none" stroke="#000000" stroke-miterlimit="10" width="9" height="27"/>
	<rect x="764.943" y="450.088" stroke="#000000" stroke-miterlimit="10" width="27" height="27"/>
</g>
<rect x="724.963" y="310.457" fill="none" stroke="#000000" stroke-miterlimit="10" width="81" height="108"/>
<rect x="723.963" y="311.457" fill="none" stroke="#000000" stroke-miterlimit="10" width="81" height="108"/>
<rect x="805.963" y="310.457" fill="none" stroke="#000000" stroke-miterlimit="10" width="81" height="108"/>
<rect x="806.963" y="311.457" fill="none" stroke="#000000" stroke-miterlimit="10" width="81" height="108"/>
<line fill="none" stroke="#000000" stroke-miterlimit="10" x1="732.963" y1="310.457" x2="732.963" y2="418.457"/>
<line fill="none" stroke="#000000" stroke-miterlimit="10" x1="726.963" y1="310.457" x2="726.963" y2="418.457"/>
<line fill="none" stroke="#000000" stroke-miterlimit="10" x1="728.963" y1="310.457" x2="728.963" y2="418.457"/>
<line fill="none" stroke="#000000" stroke-miterlimit="10" x1="730.963" y1="310.457" x2="730.963" y2="418.457"/>
<line fill="none" stroke="#000000" stroke-miterlimit="10" x1="884.963" y1="310.457" x2="884.963" y2="418.457"/>
<line fill="none" stroke="#000000" stroke-miterlimit="10" x1="878.963" y1="310.457" x2="878.963" y2="418.457"/>
<line fill="none" stroke="#000000" stroke-miterlimit="10" x1="880.963" y1="310.457" x2="880.963" y2="418.457"/>
<line fill="none" stroke="#000000" stroke-miterlimit="10" x1="882.963" y1="310.457" x2="882.963" y2="418.457"/>
<g>
	<path d="M746.625,326.983c-0.217-0.055-0.407-0.143-0.571-0.264s-0.292-0.275-0.384-0.463s-0.138-0.408-0.138-0.662
		c0-0.305,0.061-0.556,0.182-0.753s0.281-0.352,0.48-0.463s0.421-0.188,0.665-0.231s0.495-0.064,0.753-0.064
		c0.254,0,0.521,0.018,0.8,0.053s0.513,0.084,0.7,0.146v-0.451c0-0.203-0.013-0.393-0.038-0.568s-0.08-0.327-0.164-0.454
		s-0.208-0.229-0.372-0.305s-0.385-0.114-0.662-0.114c-0.875,0-1.312,0.363-1.312,1.09h-0.908c0-0.375,0.069-0.685,0.208-0.929
		s0.318-0.437,0.539-0.577s0.467-0.238,0.738-0.293s0.54-0.082,0.806-0.082c0.695,0,1.221,0.168,1.576,0.504
		s0.533,0.848,0.533,1.535v2.373c0,0.105,0.021,0.178,0.062,0.217s0.116,0.059,0.226,0.059c0.09,0,0.187-0.008,0.29-0.023
		s0.204-0.035,0.302-0.059v0.674c-0.098,0.039-0.229,0.08-0.393,0.123s-0.338,0.064-0.521,0.064c-0.312,0-0.521-0.073-0.624-0.22
		s-0.155-0.308-0.155-0.483v-0.1c-0.07,0.09-0.16,0.183-0.27,0.278s-0.242,0.184-0.398,0.264s-0.336,0.144-0.539,0.19
		s-0.438,0.07-0.703,0.07C747.077,327.065,746.841,327.038,746.625,326.983z M748.417,326.119c0.268-0.096,0.499-0.212,0.694-0.349
		v-0.814c-0.145-0.039-0.335-0.07-0.571-0.094s-0.487-0.035-0.753-0.035c-0.406,0-0.726,0.052-0.958,0.155s-0.349,0.298-0.349,0.583
		c0,0.465,0.336,0.697,1.008,0.697C747.84,326.263,748.15,326.215,748.417,326.119z"/>
	<path d="M755.044,326.995c-0.182-0.047-0.342-0.108-0.48-0.185s-0.261-0.162-0.366-0.258s-0.193-0.188-0.264-0.278v0.674h-0.791
		v-7.658h0.949v2.953c0.055-0.062,0.128-0.132,0.22-0.208s0.204-0.146,0.337-0.211s0.281-0.118,0.445-0.161s0.346-0.064,0.545-0.064
		c0.281,0,0.552,0.05,0.812,0.149s0.491,0.257,0.694,0.472s0.367,0.497,0.492,0.847s0.188,0.772,0.188,1.269
		c0,0.477-0.061,0.888-0.182,1.233s-0.281,0.628-0.48,0.847s-0.431,0.382-0.694,0.489s-0.54,0.161-0.829,0.161
		C755.424,327.065,755.226,327.042,755.044,326.995z M756.515,325.735c0.232-0.359,0.349-0.826,0.349-1.4
		c0-0.578-0.116-1.047-0.349-1.406s-0.608-0.539-1.128-0.539c-0.289,0-0.541,0.052-0.756,0.155s-0.395,0.228-0.539,0.372v2.83
		c0.145,0.145,0.324,0.269,0.539,0.372s0.467,0.155,0.756,0.155C755.907,326.274,756.283,326.095,756.515,325.735z"/>
	<path d="M761.622,326.939c-0.309-0.084-0.589-0.229-0.841-0.437s-0.456-0.486-0.612-0.838s-0.234-0.795-0.234-1.33
		c0-0.547,0.082-0.996,0.246-1.348s0.372-0.631,0.624-0.838s0.532-0.351,0.841-0.431s0.611-0.12,0.908-0.12
		c0.246,0,0.503,0.029,0.771,0.088s0.514,0.162,0.738,0.311s0.413,0.349,0.565,0.601s0.24,0.573,0.264,0.964h-0.949
		c-0.047-0.438-0.194-0.736-0.442-0.896s-0.556-0.24-0.923-0.24c-0.535,0-0.947,0.152-1.236,0.457s-0.434,0.789-0.434,1.453
		c0,0.672,0.145,1.157,0.434,1.456s0.701,0.448,1.236,0.448c0.367,0,0.675-0.08,0.923-0.24s0.396-0.459,0.442-0.896h0.949
		c-0.023,0.383-0.113,0.702-0.27,0.958s-0.347,0.458-0.571,0.606s-0.471,0.252-0.738,0.311s-0.521,0.088-0.759,0.088
		C762.241,327.065,761.93,327.023,761.622,326.939z"/>
</g>
</svg>
