<?xml version="1.0" encoding="utf-8"?>
<!-- Generator: Adobe Illustrator 16.0.0, SVG Export Plug-In . SVG Version: 6.00 Build 0)  -->
<!DOCTYPE svg PUBLIC "-//W3C//DTD SVG 1.1//EN" "http://www.w3.org/Graphics/SVG/1.1/DTD/svg11.dtd">
<svg version="1.1" id="Layer_1" xmlns="http://www.w3.org/2000/svg" xmlns:xlink="http://www.w3.org/1999/xlink" x="0px" y="0px"
	 width="1784.868px" height="363.168px" viewBox="0 0 1784.868 363.168" enable-background="new 0 0 1784.868 363.168"
	 xml:space="preserve">
<g>
	<path d="M106.727,357.866c-2.626-1.696-5.632-3.014-7.796-5.173c-3.889-3.881-4.358-8.818-2.36-13.832
		c2.018-5.062,6.149-7.584,11.341-8.554c0.731-0.137,1.495-0.135,2.244-0.135c18.191-0.009,36.382-0.021,54.572,0
		c5.567,0.006,10.13,2.201,12.903,7.081c4.352,7.659,1.018,16.319-7.273,19.587c-0.763,0.301-1.496,0.681-2.243,1.024
		C147.652,357.866,127.19,357.866,106.727,357.866z"/>
	<path d="M150.094,5.303c2.967,2.121,3.574,5.078,3.468,8.555c-0.191,6.267-0.026,12.543-0.065,18.815
		c-0.031,5.043-2.181,7.098-7.178,6.459c-6.261-0.799-12.469-0.729-18.722,0.044c-4.459,0.551-6.743-1.546-6.79-6.033
		c-0.072-6.833,0.086-13.67-0.069-20.5c-0.076-3.351,0.953-5.832,4.012-7.34C133.197,5.303,141.646,5.303,150.094,5.303z"/>
	<path d="M137.111,275.084c-13.606,0.001-27.212,0.008-40.818-0.002c-5.237-0.005-7.204-1.553-7.375-6.678
		c-0.521-15.572-6.196-29.611-12.626-43.43c-7.232-15.545-14.941-30.879-21.784-46.59c-7.335-16.843-10.106-34.536-6.702-52.812
		c3.049-16.367,10.023-30.888,21.016-43.5c8.969-10.291,19.695-18.178,32.114-23.625c12.076-5.297,24.82-7.755,38.058-7.446
		c20.584,0.481,39.017,7.114,54.989,19.999c15.067,12.154,25.265,27.666,30.553,46.424c6.031,21.397,3.545,42.063-5.322,62.028
		c-7.186,16.179-15.274,31.956-22.578,48.083c-3.275,7.229-6.026,14.766-8.239,22.388c-1.63,5.615-2.266,11.569-2.866,17.42
		c-0.633,6.18-1.979,7.734-8.164,7.737C163.948,275.086,150.53,275.082,137.111,275.084z"/>
	<path d="M137.217,289.141c11.072-0.002,22.144-0.025,33.216,0.006c6.209,0.021,11.075,2.945,12.961,8.07
		c2.147,5.832,1.435,11.281-3.099,15.855c-2.422,2.44-5.503,3.639-8.892,3.646c-22.799,0.052-45.6,0.115-68.399-0.02
		c-7.795-0.047-13.223-6.031-13.202-13.875c0.021-7.849,5.514-13.584,13.356-13.653C114.51,289.068,125.863,289.145,137.217,289.141
		z"/>
	<path d="M16.786,158.973c-3.378,0-6.757,0.061-10.133-0.014c-4.567-0.101-6.542-2.033-6.594-6.583
		c-0.076-6.661-0.083-13.324,0.005-19.985c0.057-4.329,2.156-6.411,6.448-6.452c7.037-0.067,14.075-0.083,21.112,0.006
		c4.5,0.058,6.967,2.95,6.231,7.381c-1.009,6.079-0.995,12.099,0.035,18.179c0.782,4.616-1.639,7.324-6.408,7.449
		C23.919,159.047,20.352,158.972,16.786,158.973z"/>
	<path d="M257.367,125.918c3.377,0,6.755-0.034,10.133,0.009c4.52,0.057,6.656,2.042,6.715,6.479
		c0.089,6.66,0.084,13.323,0.004,19.984c-0.055,4.551-2.03,6.511-6.605,6.562c-6.942,0.078-13.887,0.101-20.829-0.005
		c-4.878-0.074-7.205-2.91-6.355-7.735c1.038-5.888,1.017-11.73,0.031-17.618c-0.798-4.766,1.637-7.586,6.492-7.665
		C250.423,125.872,253.896,125.917,257.367,125.918z"/>
	<path d="M81.554,17.286c0.994,0.702,2.834,1.375,3.647,2.686c4.042,6.512,7.911,13.14,11.637,19.84
		c1.619,2.911,0.805,5.792-2.067,7.541c-6.222,3.79-12.526,7.45-18.889,10.998c-2.92,1.629-5.711,0.771-7.466-2.159
		c-3.798-6.339-7.527-12.722-11.166-19.153c-1.711-3.024-1.058-5.926,1.955-7.774c6.297-3.863,12.729-7.506,19.139-11.183
		C79.038,17.685,79.95,17.668,81.554,17.286z"/>
	<path d="M36.297,102.851c-0.901-0.41-2.564-1.025-4.087-1.886c-5.382-3.046-10.719-6.171-16.067-9.279
		c-4.054-2.355-4.916-5.26-2.597-9.422c3.192-5.731,6.456-11.424,9.796-17.069c2.165-3.659,5.151-4.399,8.813-2.316
		c6.026,3.426,12.035,6.885,18.026,10.372c3.722,2.166,4.58,5.303,2.545,8.735c-3.487,5.879-6.972,11.761-10.385,17.684
		C41.154,101.731,39.538,102.872,36.297,102.851z"/>
	<path d="M245.215,61.65c2.991,0.12,4.662,1.703,5.891,3.808c3.165,5.422,6.285,10.87,9.387,16.329
		c2.652,4.667,1.775,7.584-2.862,10.201c-5.711,3.223-11.342,6.592-17.079,9.77c-3.914,2.167-6.604,1.248-8.866-2.634
		c-3.299-5.665-6.619-11.316-9.995-16.935c-2.002-3.333-1.585-6.504,1.723-8.504c6.494-3.923,13.126-7.617,19.727-11.362
		C243.852,61.917,244.729,61.801,245.215,61.65z"/>
	<path d="M217.968,34.148c-0.312,0.969-0.464,2.029-0.958,2.893c-3.63,6.343-7.268,12.682-11.031,18.947
		c-1.984,3.306-4.775,3.996-8.163,2.086c-5.949-3.353-11.862-6.77-17.723-10.274c-3.607-2.157-4.305-5.156-2.191-8.86
		c3.342-5.856,6.709-11.7,10.149-17.499c2.612-4.403,5.18-4.961,9.542-2.406c5.417,3.172,10.889,6.248,16.315,9.403
		C216.075,29.696,218.049,31.145,217.968,34.148z"/>
	<path d="M221.928,207.826c0.715-1.965,1.122-3.309,1.685-4.584c2.496-5.658,5.029-11.297,7.562-16.938
		c2.093-4.66,4.965-5.606,9.406-3.07c6.021,3.438,12.027,6.906,18.033,10.373c3.292,1.898,4.394,4.697,2.578,8.062
		c-3.469,6.426-7.148,12.746-10.941,18.986c-1.638,2.695-4.573,3.336-7.411,1.77c-5.988-3.306-11.96-6.66-17.75-10.296
		C223.624,211.209,222.869,209.158,221.928,207.826z"/>
	<path d="M52.029,208.26c-0.821,1.117-1.621,3.119-3.096,4.049c-5.55,3.493-11.288,6.695-17.02,9.889
		c-3.51,1.955-6.347,1.188-8.393-2.237c-3.409-5.713-6.764-11.461-10.012-17.267c-2.32-4.144-1.418-7.006,2.671-9.364
		c6.089-3.513,12.157-7.063,18.274-10.527c3.171-1.796,6.278-1.063,7.823,2.203c3.202,6.777,6.114,13.688,9.116,20.558
		C51.649,206.15,51.699,206.83,52.029,208.26z"/>
</g>
<g>
	<path d="M1579.168,0.166c59.16,0,118.32,0.252,177.477-0.165c16.105-0.114,28.293,10.817,28.223,28.2
		c-0.416,102.484-0.203,204.972-0.205,307.458c-0.002,17.648-9.85,27.501-27.543,27.503c-118.984,0.008-237.969,0.009-356.953-0.002
		c-17.684-0.001-27.516-9.867-27.516-27.529c-0.002-102.652-0.002-205.306,0-307.959c0-17.648,9.846-27.498,27.543-27.502
		C1459.852,0.159,1519.51,0.166,1579.168,0.166z M1397.606,337.884c120.764,0,241.301,0,361.941,0c0-90.579,0-180.919,0-271.246
		c-120.846,0-241.254,0-361.941,0C1397.606,157.162,1397.606,247.382,1397.606,337.884z M1652.76,17.031
		c-8.734,0.03-16.297,7.459-16.404,16.117c-0.111,8.899,7.502,16.507,16.504,16.489c9.023-0.018,16.455-7.587,16.291-16.596
		C1668.991,24.229,1661.59,17,1652.76,17.031z M1727.159,33.271c-0.012,9.067,7.441,16.47,16.484,16.369
		c8.766-0.098,16.189-7.506,16.275-16.242c0.088-8.843-7.662-16.458-16.645-16.357C1734.405,17.14,1727.168,24.426,1727.159,33.271z
		 M1714.321,33.248c-0.055-9.01-7.225-16.213-16.146-16.224c-9.154-0.011-16.268,7.309-16.186,16.653
		c0.08,8.912,7.434,16.086,16.365,15.964C1707.317,49.52,1714.374,42.272,1714.321,33.248z"/>
	<path d="M1544.989,244.979c-7.035-3.025-13.396-5.746-19.744-8.496c-22.123-9.588-44.215-19.246-66.391-28.705
		c-2.871-1.227-4.125-2.611-3.934-5.815c0.352-5.799-1.711-12.918,0.973-17.067c2.656-4.108,9.885-5.334,15.184-7.646
		c22.713-9.905,45.449-19.75,68.186-29.602c1.646-0.713,3.346-1.304,5.713-2.22c0,8.108,0.184,15.688-0.174,23.242
		c-0.061,1.312-2.174,3.081-3.715,3.688c-17.938,7.074-35.947,13.964-53.934,20.916c-1.18,0.457-2.318,1.021-4.086,1.806
		c19.496,7.683,38.324,15.204,57.252,22.467c3.441,1.32,4.979,2.875,4.768,6.761
		C1544.729,230.898,1544.989,237.527,1544.989,244.979z"/>
	<path d="M1612.325,145.614c7.816,3.332,14.824,6.289,21.807,9.3c21.383,9.217,42.727,18.528,64.17,27.604
		c3.125,1.322,4.314,2.897,4.094,6.271c-0.367,5.633,1.662,12.552-0.941,16.591c-2.576,3.994-9.598,5.192-14.744,7.442
		c-22.859,9.994-45.744,19.929-68.627,29.871c-1.631,0.709-3.305,1.322-5.742,2.289c0-8.252-0.186-15.838,0.186-23.397
		c0.061-1.251,2.363-2.86,3.955-3.497c17.447-6.973,34.965-13.781,52.457-20.65c1.664-0.652,3.287-1.41,5.584-2.4
		c-19.596-7.61-38.439-15.09-57.432-22.174c-3.848-1.437-5.066-3.253-4.855-7.202
		C1612.571,159.358,1612.325,153.024,1612.325,145.614z"/>
	<path d="M1564.295,262.029c-7.057-0.012-10.207-3.785-8.521-11.186c4.766-20.918,9.762-41.783,14.762-62.646
		c4.146-17.308,8.262-34.626,12.793-51.834c0.852-3.231,2.969-7.282,5.645-8.558c2.691-1.284,7.527-0.617,10.074,1.146
		c1.996,1.383,3.104,5.961,2.58,8.736c-2.033,10.773-4.84,21.402-7.428,32.069c-6.701,27.64-13.381,55.285-20.199,82.897
		C1572.196,259.968,1569.774,262.037,1564.295,262.029z"/>
</g>
<text transform="matrix(1 0 0 1 697.2534 5.3027)" font-family="'MyriadPro-Regular'" font-size="24" glyph-orientation-vertical="0" writing-mode="tb">10100100101010</text>
<text transform="matrix(1 0 0 1 745.2534 5.3027)" font-family="'MyriadPro-Regular'" font-size="24" glyph-orientation-vertical="0" writing-mode="tb">011010010101</text>
<text transform="matrix(1 0 0 1 795.2534 5.3027)" font-family="'MyriadPro-Regular'" font-size="24" glyph-orientation-vertical="0" writing-mode="tb">1010000</text>
<text transform="matrix(1 0 0 1 839.2534 5.3027)" font-family="'MyriadPro-Regular'" font-size="24" glyph-orientation-vertical="0" writing-mode="tb">1100000001</text>
<text transform="matrix(1 0 0 1 881.2534 5.3027)" font-family="'MyriadPro-Regular'" font-size="24" glyph-orientation-vertical="0" writing-mode="tb">1001001</text>
<text transform="matrix(1 0 0 1 921.2534 5.3027)" font-family="'MyriadPro-Regular'" font-size="24" glyph-orientation-vertical="0" writing-mode="tb">001000010</text>
<text transform="matrix(1 0 0 1 437.2534 181.9551)" font-family="'MyriadPro-Regular'" font-size="72">+</text>
<text transform="matrix(1 0 0 1 1114.2534 181.584)" font-family="'MyriadPro-Regular'" font-size="72">=</text>
</svg>
