<?xml version="1.0" encoding="utf-8"?>
<!-- Generator: Adobe Illustrator 16.0.0, SVG Export Plug-In . SVG Version: 6.00 Build 0)  -->
<!DOCTYPE svg PUBLIC "-//W3C//DTD SVG 1.1//EN" "http://www.w3.org/Graphics/SVG/1.1/DTD/svg11.dtd">
<svg version="1.1" id="Layer_1" xmlns="http://www.w3.org/2000/svg" xmlns:xlink="http://www.w3.org/1999/xlink" x="0px" y="0px"
	 width="383.75px" height="686.535px" viewBox="0 0 383.75 686.535" enable-background="new 0 0 383.75 686.535"
	 xml:space="preserve">
<path d="M383.748,352.766c-7.871,1.36-39.273,7.897-47.146,9.256c-7.873,1.357-15.738,2.755-23.609,4.114
	c-7.795,1.35-15.592,2.668-23.387,4.009c-8.346,1.438-16.688,2.894-25.037,4.306c-0.717,0.121-1.145,0.458-1.493,1.033
	c-1.363,2.258-2.761,4.494-4.104,6.766c-0.479,0.811-1.072,1.223-2.045,1.415c-6.111,1.21-12.197,2.538-18.307,3.766
	c-1.754,0.354-3.285,0.995-4.743,2.08c-15.586,11.604-31.203,23.161-46.836,34.699c-1.501,1.105-2.77,2.372-3.881,3.863
	c-5.688,7.633-11.158,15.411-15.868,23.694c-1.341,2.358-2.552,4.793-3.782,7.214c-1.784,3.512-2.808,7.288-3.902,11.051
	c-2.521,8.667-4.927,17.36-6.826,26.188c-1.396,6.491-2.435,13.037-2.959,19.661c-0.587,7.43,0.456,14.657,2.525,21.788
	c2.856,9.845,6.588,19.358,11.023,28.576c1.966,4.087,3.219,8.296,4.043,12.708c0.997,5.339,2.119,10.654,3.202,15.977
	c0.209,1.026,0.294,2.051,0.274,3.099c-0.191,10.233-0.362,20.472-0.551,30.708c-0.144,7.757-0.309,15.513-0.451,23.27
	c-0.015,0.811-0.115,1.562-0.479,2.313c-3.318,6.847-7.688,12.881-13.499,17.849c-3.787,3.236-8.144,5.287-12.914,6.578
	c-5.171,1.396-10.411,2.467-15.685,3.389c-6.378,1.115-12.794,1.979-19.225,2.715c-4.05,0.464-8.117,0.771-12.177,1.142
	c-1.904,0.18-3.815,0.341-5.725,0.508c-0.802-0.144-1.6-0.091-2.397,0.035c-0.795-0.004-1.589-0.009-2.384-0.015
	c-1.276-0.002-2.553-0.004-3.83-0.006c-2.109,0-4.218,0-6.328,0c-0.963,0.006-1.925,0.015-2.887,0.021
	c-0.792-0.008-1.583-0.019-2.375-0.024c-2.307-0.317-4.502-0.98-6.659-1.879c-9.594-3.987-19.012-8.333-28.053-13.468
	c-2.851-1.618-5.656-3.313-8.275-5.289c-1.401-1.059-2.751-2.189-4.067-3.354c-1.727-1.525-2.852-3.444-3.291-5.715
	c-0.365-1.88-0.721-3.77-0.932-5.671c-0.467-4.215-0.545-8.452-0.581-12.689c-0.068-7.999,0.26-15.987,0.684-23.972
	c0.364-6.86,0.882-13.717,1.377-20.57c0.271-3.746,0.646-7.484,0.956-11.229c0.12-1.457,0.552-2.747,1.363-4.011
	c6.128-9.549,12.178-19.146,18.29-28.705c0.794-1.241,1.252-2.502,1.465-3.977c0.972-6.729,1.696-13.48,2.115-20.262
	c0.306-4.941,0.451-9.898-0.182-14.847c-0.226-1.763-0.717-3.435-1.333-5.08c-1.18-3.148-2.709-6.135-4.338-9.068
	c-4.74-8.536-10.191-16.615-15.923-24.509c-6.012-8.277-12.106-16.496-18.165-24.74c-0.189-0.258-0.355-0.534-0.571-0.771
	c-1.084-1.173-1.452-2.548-1.499-4.142c-0.152-5.192-0.407-10.384-0.641-15.572c-0.316-7.026-0.648-14.054-0.977-21.078
	c-0.131-2.794-0.268-5.588-0.401-8.382c0.199-1.436,0.104-2.856-0.143-4.275c-0.19-1.097-0.352-2.171,0.028-3.288
	c0.281-0.824,0.316-1.721,0.105-2.596c0.617-8.612,1.238-17.224,1.848-25.836c0.39-5.502,0.746-11.008,1.15-16.509
	c0.388-5.264,0.824-10.521,1.229-15.78c0.369-4.782,0.71-9.566,1.093-14.348c0.421-5.262,0.861-10.519,1.322-15.772
	c0.273-3.104,0.527-6.215,0.922-9.306c0.679-5.318,1.997-10.514,3.297-15.705c5.103-20.379,11.049-40.522,17.115-60.631
	c0.297-0.984,0.748-1.936,1.231-2.848c12.037-22.727,24.094-45.442,36.131-68.169c1.719-3.245,3.3-6.562,5.28-9.667
	c4.381-6.87,8.717-13.77,13.112-20.631c1.294-2.02,2.799-3.891,4.36-5.719c15.735-18.426,31.388-36.92,47.201-55.278
	c8.297-9.632,16.519-19.326,24.764-29.002c3.058-3.588,6.318-7.019,8.93-10.964c0.62-0.938,1.501-1.141,2.409-1.369
	c5.964-1.495,11.938-2.951,17.904-4.435c5.114-1.272,10.226-2.556,15.333-3.858c1.334-0.34,2.699-0.409,4.044-0.395
	c1.464,0.016,2.957-0.57,4.401,0.121c-0.165,1.456-0.959,2.681-1.516,3.983c-3.705,8.663-7.471,17.301-11.178,25.963
	c-0.259,0.604-0.896,1.181-0.502,1.981c0.598-0.128,0.973-0.569,1.411-0.906c3.93-3.021,7.543-6.396,11.11-9.828
	c7.553-7.263,15.129-14.5,22.69-21.752c0.229-0.22,0.423-0.476,0.632-0.715c1.133,0.014,2.267,0.027,3.398,0.041
	c2.217,0.298,4.431,0.63,6.65,0.889c8.336,0.972,16.674,1.924,25.013,2.874c2.065,0.235,4.137,0.421,6.2,0.655
	c0.632,0.072,1.263,0.201,1.873,0.372c0.166,0.046,0.332,0.326,0.373,0.525c0.045,0.219-0.059,0.468-0.086,0.704
	c-0.562,4.763-1.164,9.521-1.656,14.291c-0.131,1.28-0.698,2.245-1.424,3.218c-9.215,12.379-18.34,24.825-27.645,37.137
	c-11.525,15.252-22.262,31.059-33.236,46.698c-3.398,4.843-6.703,9.753-10.166,14.549c-3.615,5.007-6.543,10.418-9.531,15.793
	c-0.965,1.735-1.635,3.639-2.408,5.477c-9.582,22.743-19.162,45.488-28.732,68.236c-1.087,2.584-1.716,5.317-2.462,8.008
	c-1.304,4.696-2.447,9.433-3.141,14.267c-0.386,2.693-0.711,5.394-0.707,8.117c0.01,5.198-0.03,10.399,0.117,15.596
	c0.147,5.192,0.455,10.384,1.31,15.521c0.328,1.971,0.785,3.91,1.408,5.815c0.64,1.959,1.87,3.247,3.8,4.01
	c2.83,1.117,5.729,2.005,8.663,2.772c7.422,1.939,14.935,3.474,22.473,4.889c2.275,0.428,4.559,0.827,6.832,1.264
	c0.799,0.154,1.571,0.157,2.375-0.002c8.463-1.673,16.93-3.322,25.393-4.988c1.357-0.268,2.639-0.23,3.99,0.245
	c3.613,1.272,7.287,2.373,10.916,3.604c0.875,0.297,1.69,0.328,2.578,0.181c7.565-1.254,15.139-2.479,22.704-3.727
	c8.277-1.364,16.552-2.753,24.829-4.109c7.332-1.201,14.672-2.36,22.004-3.562c7.332-1.202,14.658-2.444,21.99-3.645
	c7.332-1.201,14.672-2.359,22.004-3.561c7.332-1.2,14.658-2.444,21.99-3.645"/>
</svg>
