<?xml version="1.0" encoding="utf-8"?>
<!-- Generator: Adobe Illustrator 16.0.0, SVG Export Plug-In . SVG Version: 6.00 Build 0)  -->
<!DOCTYPE svg PUBLIC "-//W3C//DTD SVG 1.1//EN" "http://www.w3.org/Graphics/SVG/1.1/DTD/svg11.dtd">
<svg version="1.1" id="Layer_1" xmlns="http://www.w3.org/2000/svg" xmlns:xlink="http://www.w3.org/1999/xlink" x="0px" y="0px"
	 width="1569.412px" height="1234.411px" viewBox="0 -618.243 1569.412 1234.411"
	 enable-background="new 0 -618.243 1569.412 1234.411" xml:space="preserve">
<path d="M0,498.057c0.952-5.549,1.963-11.088,2.846-16.646c6.86-43.2,34.395-69.274,77.75-73.269
	c8.94-0.821,17.958-1.103,26.941-1.104c172.82-0.041,345.642-0.003,518.462,0.019c0,15.667,0,31.333,0,47
	c-2.162-0.065-4.324-0.193-6.486-0.194c-171.315-0.068-342.639-0.146-513.957-0.127c-8.143,0-16.368,0.254-24.41,1.401
	c-19.135,2.737-29.563,12.903-32.102,32.045c-1.48,11.159-2.11,22.583-1.611,33.821c1.033,23.282,13.863,38.308,36.547,43.992
	c16.108,4.036,32.594,4.645,49.116,4.644c161.987-0.006,323.976-0.002,485.959,0.021c2.314,0,4.629,0.26,6.943,0.396
	c0,15.333,0,30.667,0,46c-0.666,0.039-1.33,0.112-1.994,0.112c-165.977,0-331.954-0.004-497.929-0.011
	c-21.951-0.001-43.543-2.401-64.354-9.837c-27.891-9.966-47.551-28.23-56.36-56.959C2.938,541.456,1.754,533.169,0,525.057
	C0,516.057,0,507.057,0,498.057z"/>
<path d="M53.925,230.102c0-14.238,0-27.806,0-41.96c2.094,0,3.879,0,5.665,0c145.824,0,291.646-0.028,437.47,0.036
	c20.386,0.009,40.562,1.646,60.101,8.306c32.276,11.009,50.869,33.245,55.74,66.964c2.901,20.094,1.651,40.064-4.32,59.354
	c-9.055,29.234-28.793,46.313-60.814,51.115c-10.973,1.646-22.262,1.588-33.405,1.593c-111.824,0.054-223.651-0.049-335.479-0.096
	c-39.331-0.02-78.661-0.002-117.992-0.002c-2.144,0-4.289-0.001-6.846-0.001c0-13.913,0-27.445,0-41.617c1.859,0,3.636,0,5.413,0
	c147.323,0.001,294.646,0.012,441.969-0.018c11.822-0.003,23.691,0.347,35.453-0.579c21.367-1.687,31.248-10.618,33.773-31.709
	c1.407-11.78,1.354-23.998-0.027-35.783c-1.627-13.891-10.264-23.894-23.48-28.58c-8.385-2.974-17.35-4.65-26.194-5.877
	c-8.049-1.115-16.293-1.127-24.449-1.13c-145.324-0.051-290.646-0.025-435.97-0.018C58.548,230.102,56.569,230.102,53.925,230.102z"
	/>
<path d="M524.269,0.283c0,11.772,0,23.028,0,34.759c-2.12,0-3.918,0.001-5.715,0c-128.479-0.035-256.961-0.114-385.442-0.002
	c-8.085,0.007-16.271,0.965-24.223,2.467c-7.633,1.442-12.965,6.595-15.761,13.897c-5.865,15.314-6.222,30.966-1.39,46.516
	c3.339,10.746,11.792,16.521,22.115,19.922c13.217,4.354,26.922,4.356,40.565,4.361c120.982,0.04,241.964-0.032,362.945-0.071
	c2.151-0.001,4.307,0,6.832,0c0,11.733,0,23.124,0,35.051c-2.104,0-3.9,0-5.697,0c-122.481,0.005-244.964,0.017-367.447,0.007
	c-16.382-0.001-32.588-1.203-48.334-6.349c-29.243-9.557-45.453-29.663-48.411-60.115c-1.804-18.575-0.657-37.004,7.016-54.424
	C68.435,20.151,80.37,8.868,97.467,4.429c10.041-2.607,20.642-4.27,30.995-4.288C259.108-0.102,389.755,0.033,520.404,0.08
	C521.558,0.081,522.712,0.198,524.269,0.283z"/>
<path d="M80.05,257.894c0-4.083,0-7.386,0-11.314c1.867-0.104,3.612-0.283,5.356-0.284c145.164-0.012,290.328-0.014,435.49,0.046
	c1.831,0.001,5.106,0.555,5.239,1.293c0.543,3.021,0.193,6.216-0.037,9.332c-0.024,0.354-1.352,0.786-2.106,0.871
	c-1.318,0.146-2.662,0.054-3.996,0.054c-144.33,0.002-288.661,0.002-432.991,0.003C84.873,257.894,82.74,257.894,80.05,257.894z"/>
<path d="M80.078,317.729c0-4.032,0-7.329,0-11.238c1.863-0.096,3.616-0.262,5.37-0.262c145.127-0.014,290.252-0.015,435.381-0.011
	c5.16,0,8.15,5.393,5.525,10.117c-0.382,0.688-1.529,1.179-2.392,1.307c-1.469,0.221-2.99,0.087-4.49,0.087
	c-143.958,0.002-287.919,0.002-431.879,0.002C85.289,317.729,82.984,317.729,80.078,317.729z"/>
<path d="M526.076,288.36c-148.686,0-297.075,0-445.835,0c0-3.621,0-7.019,0-10.996c1.75-0.091,3.518-0.265,5.285-0.265
	c145.12-0.013,290.239-0.014,435.357-0.009C527.283,277.091,527.738,278.042,526.076,288.36z"/>
<path d="M127.491,83.657c0-4.177,0-7.597,0-11.316c124.991,0,249.723,0,374.393,0c0.222,0.418,0.478,0.695,0.513,0.999
	c1.271,10.31,1.27,10.313-8.906,10.314c-119.656,0.001-239.312,0.002-358.967,0.003C132.247,83.657,129.974,83.657,127.491,83.657z"
	/>
<path d="M127.855,98.396c124.654,0,249.361,0,374.346,0c0,3.754,0,7.306,0,11.363c-2.008,0-3.633,0-5.256,0
	c-120.146,0.001-240.289,0.004-360.432,0.004C125.842,109.764,125.842,109.756,127.855,98.396z"/>
<path d="M502.238,48.03c0,3.56,0,6.967,0,11.197c-2.451,0-4.705,0-6.957,0c-119.656,0-239.313-0.001-358.97-0.001
	c-10.267,0-10.267,0.001-8.512-11.196C252.454,48.03,377.171,48.03,502.238,48.03z"/>
<path d="M98.289,483.671c0-3.826,0-7.266,0-11.055c166.048,0,331.875,0,498.113,0c0,3.633,0,7.176,0,11.055
	C430.46,483.671,264.634,483.671,98.289,483.671z"/>
<path d="M596.513,539.444c0,3.725,0,7.141,0,10.961c-166.016,0-331.861,0-498.072,0c0-3.62,0-7.153,0-10.961
	C264.383,539.444,430.113,539.444,596.513,539.444z"/>
<path d="M596.107,505.332c0.284,0.354,0.469,0.475,0.481,0.615c1.193,10.496,1.191,10.495-9.268,10.495
	c-160.328,0-320.657,0.001-480.984,0.001c-2.484,0-4.969,0-7.857,0c0-3.831,0-7.239,0-11.111
	C264.188,505.332,430.066,505.332,596.107,505.332z"/>
<g>
	<path d="M1188.868-617.935c109.447,0,218.893,0.466,328.332-0.306c29.795-0.211,52.342,20.011,52.211,52.17
		c-0.771,189.597-0.375,379.198-0.379,568.798c-0.004,32.647-18.223,50.877-50.955,50.88
		c-220.121,0.015-440.242,0.017-660.363-0.003c-32.715-0.002-50.904-18.255-50.904-50.93c-0.002-189.906-0.002-379.815,0-569.724
		c0-32.649,18.217-50.872,50.955-50.879C968.131-617.947,1078.5-617.935,1188.868-617.935z M852.975,6.843
		c223.414,0,446.406,0,669.594,0c0-167.571,0-334.7,0-501.805c-223.564,0-446.32,0-669.594,0
		C852.975-327.492,852.975-160.586,852.975,6.843z M1325.01-586.734c-16.156,0.056-30.146,13.799-30.348,29.816
		c-0.205,16.463,13.879,30.538,30.533,30.505c16.693-0.033,30.441-14.037,30.137-30.703
		C1355.04-573.418,1341.346-586.792,1325.01-586.734z M1462.649-556.69c-0.021,16.773,13.768,30.47,30.494,30.282
		c16.219-0.182,29.951-13.887,30.109-30.048c0.164-16.359-14.174-30.447-30.791-30.26
		C1476.053-586.533,1462.667-573.055,1462.649-556.69z M1438.899-556.733c-0.102-16.669-13.365-29.994-29.871-30.015
		c-16.934-0.02-30.096,13.522-29.943,30.808c0.148,16.487,13.754,29.76,30.277,29.534
		C1425.942-526.63,1438.997-540.039,1438.899-556.733z"/>
	<path d="M1125.633-165.032c-13.014-5.595-24.781-10.63-36.525-15.718c-40.928-17.737-81.797-35.604-122.822-53.104
		c-5.312-2.269-7.631-4.829-7.277-10.756c0.65-10.729-3.166-23.898,1.801-31.573c4.912-7.601,18.285-9.868,28.09-14.146
		c42.018-18.324,84.08-36.537,126.143-54.763c3.047-1.318,6.193-2.413,10.572-4.108c0,15.001,0.34,29.024-0.324,42.998
		c-0.113,2.429-4.021,5.7-6.873,6.822c-33.184,13.087-66.498,25.835-99.775,38.694c-2.184,0.846-4.289,1.89-7.561,3.343
		c36.068,14.215,70.9,28.127,105.916,41.563c6.367,2.442,9.211,5.318,8.82,12.509
		C1125.155-191.08,1125.633-178.816,1125.633-165.032z"/>
	<path d="M1250.208-348.855c14.459,6.162,27.424,11.633,40.342,17.204c39.559,17.052,79.047,34.275,118.715,51.066
		c5.781,2.446,7.98,5.36,7.576,11.603c-0.68,10.421,3.072,23.221-1.742,30.693c-4.766,7.389-17.754,9.605-27.275,13.769
		c-42.291,18.488-84.627,36.868-126.961,55.261c-3.016,1.312-6.113,2.446-10.623,4.235c0-15.267-0.342-29.301,0.344-43.285
		c0.111-2.314,4.373-5.292,7.316-6.47c32.277-12.899,64.686-25.495,97.047-38.203c3.078-1.205,6.08-2.609,10.33-4.439
		c-36.252-14.079-71.113-27.916-106.248-41.021c-7.119-2.657-9.373-6.018-8.984-13.324
		C1250.663-323.431,1250.208-335.148,1250.208-348.855z"/>
	<path d="M1161.352-133.488c-13.055-0.021-18.885-7.002-15.766-20.694c8.816-38.698,18.061-77.298,27.311-115.895
		c7.67-32.021,15.283-64.06,23.666-95.893c1.574-5.979,5.492-13.473,10.441-15.834c4.98-2.374,13.926-1.142,18.637,2.121
		c3.693,2.559,5.746,11.028,4.773,16.162c-3.762,19.93-8.953,39.593-13.74,59.327c-12.396,51.135-24.754,102.277-37.369,153.358
		C1175.967-137.302,1171.487-133.474,1161.352-133.488z"/>
</g>
</svg>
